<?xml version="1.0" encoding="utf-8"?>
<!-- Generator: Adobe Illustrator 16.0.0, SVG Export Plug-In . SVG Version: 6.00 Build 0)  -->
<!DOCTYPE svg PUBLIC "-//W3C//DTD SVG 1.1//EN" "http://www.w3.org/Graphics/SVG/1.1/DTD/svg11.dtd">
<svg version="1.1" id="_x2014_ÎÓÈ_x5F_1" xmlns="http://www.w3.org/2000/svg" xmlns:xlink="http://www.w3.org/1999/xlink"
	 x="0px" y="0px" width="240.667px" height="242px" viewBox="179.167 271.5 240.667 242"
	 enable-background="new 179.167 271.5 240.667 242" xml:space="preserve">
<g id="_x39_UZCRN_1_">
	<g>
		<path fill="#FF5200" d="M365.588,509.029c-60.988,0-121.636-0.341-182.624-0.341c0-10.222,0-20.103,0-29.983
			c0.34-1.021,0.681-2.044,0.681-3.066c5.452-31.005,22.487-52.129,51.448-63.714c1.022-0.341,2.044-1.021,3.407-1.362
			c-27.939-21.465-31.346-53.833-20.443-77.002c5.792-12.266,14.65-21.806,26.576-28.279c16.354-8.859,33.39-9.881,50.767-3.748
			c17.717-28.279,51.448-32.027,73.595-16.354c11.243,7.836,18.398,18.739,20.783,32.027c3.748,20.103-3.066,36.457-18.398,50.085
			c1.703,0.681,3.066,1.363,4.43,1.704c22.146,10.221,36.797,26.917,39.522,51.448c1.704,14.65,0.682,29.642,0.682,44.633
			c0,0.341-0.341,0.341-0.682,1.022c-17.376,0-35.094,0-52.47,0c0.681,7.496,1.703,14.651,2.044,21.806
			C365.929,494.719,365.588,501.874,365.588,509.029z M350.937,494.378c2.386-35.435-19.08-64.735-52.47-71.209
			c-11.244-2.045-23.169-1.704-35.094-1.704c-19.421,0-35.435,7.155-48.382,21.465c-13.288,14.311-18.398,31.688-17.036,51.107
			C249.063,494.037,299.83,494.378,350.937,494.378z M274.276,406.814c26.236,0.341,47.701-20.784,48.041-46.678
			c0.341-26.235-20.783-48.041-47.019-48.041c-26.235-0.34-47.7,20.784-48.041,46.678
			C226.917,385.008,248.041,406.474,274.276,406.814z M309.71,410.562c2.386,1.021,3.748,1.362,5.111,2.044
			c14.31,5.792,27.257,14.65,35.775,27.598c3.066,4.43,5.11,7.496,6.813,11.244l44.634-0.341c0-7.496,0-14.65,0-21.806
			c-0.341-16.354-6.814-29.643-19.761-39.864c-14.311-11.584-31.006-12.266-48.723-11.244
			C329.472,391.142,321.636,402.044,309.71,410.562z M309.37,308.007c18.739,13.628,27.598,32.027,27.598,54.855
			c16.354,2.726,33.39-8.858,38.501-25.553c5.11-17.717-3.407-36.457-20.443-43.953C338.33,285.86,318.569,291.993,309.37,308.007z"
			/>
	</g>
</g>
</svg>
