<?xml version="1.0" encoding="utf-8"?>
<!-- Generator: Adobe Illustrator 21.0.0, SVG Export Plug-In . SVG Version: 6.00 Build 0)  -->
<svg version="1.1" id="_x2014_ÎÓÈ_x5F_1" xmlns="http://www.w3.org/2000/svg" xmlns:xlink="http://www.w3.org/1999/xlink"
	 x="0px" y="0px" viewBox="0 0 176.1 150" style="enable-background:new 0 0 176.1 150;" xml:space="preserve">
<style type="text/css">
	.st0{fill:#FF5200;}
</style>
<g id="_x39_UZCRN_1_">
	<g>
		<path class="st0" d="M107.3,107c-17.9,0-35.7-0.1-53.6-0.1c0-3,0-5.9,0-8.8c0.1-0.3,0.2-0.6,0.2-0.9c1.6-9.1,6.6-15.3,15.1-18.7
			c0.3-0.1,0.6-0.3,1-0.4c-8.2-6.3-9.2-15.8-6-22.6c1.7-3.6,4.3-6.4,7.8-8.3c4.8-2.6,9.8-2.9,14.9-1.1c5.2-8.3,15.1-9.4,21.6-4.8
			c3.3,2.3,5.4,5.5,6.1,9.4c1.1,5.9-0.9,10.7-5.4,14.7c0.5,0.2,0.9,0.4,1.3,0.5c6.5,3,10.8,7.9,11.6,15.1c0.5,4.3,0.2,8.7,0.2,13.1
			c0,0.1-0.1,0.1-0.2,0.3c-5.1,0-10.3,0-15.4,0c0.2,2.2,0.5,4.3,0.6,6.4C107.4,102.8,107.3,104.9,107.3,107z M103,102.7
			c0.7-10.4-5.6-19-15.4-20.9c-3.3-0.6-6.8-0.5-10.3-0.5c-5.7,0-10.4,2.1-14.2,6.3c-3.9,4.2-5.4,9.3-5,15
			C73.1,102.6,88,102.7,103,102.7z M80.5,77c7.7,0.1,14-6.1,14.1-13.7c0.1-7.7-6.1-14.1-13.8-14.1c-7.7-0.1-14,6.1-14.1,13.7
			C66.6,70.6,72.8,76.9,80.5,77z M90.9,78.1c0.7,0.3,1.1,0.4,1.5,0.6c4.2,1.7,8,4.3,10.5,8.1c0.9,1.3,1.5,2.2,2,3.3l13.1-0.1
			c0-2.2,0-4.3,0-6.4c-0.1-4.8-2-8.7-5.8-11.7c-4.2-3.4-9.1-3.6-14.3-3.3C96.7,72.4,94.4,75.6,90.9,78.1z M90.8,48
			c5.5,4,8.1,9.4,8.1,16.1c4.8,0.8,9.8-2.6,11.3-7.5c1.5-5.2-1-10.7-6-12.9C99.3,41.5,93.5,43.3,90.8,48z"/>
	</g>
</g>
</svg>
