<?xml version="1.0" encoding="utf-8"?>
<!-- Generator: Adobe Illustrator 21.0.0, SVG Export Plug-In . SVG Version: 6.00 Build 0)  -->
<svg version="1.1" id="_x2014_ÎÓÈ_x5F_1" xmlns="http://www.w3.org/2000/svg" xmlns:xlink="http://www.w3.org/1999/xlink"
	 x="0px" y="0px" viewBox="0 0 293.5 317.4" style="enable-background:new 0 0 293.5 317.4;" xml:space="preserve">
<style type="text/css">
	.st0{fill:#F05627;stroke:#FFFFFF;stroke-width:3;stroke-miterlimit:10;}
	.st1{fill:#F05627;}
</style>
<g>
	<path class="st0" d="M129.9,226.3c0-10.4,0-20.3,0-30.4c-2,0-3.7,0-5.5,0c-6.1-0.1-12.2,0.3-18.2-0.3
		c-11.4-1.2-19.9-10.7-19.9-22.3c-0.1-19.9-0.1-39.8,0-59.7c0.1-12.6,10.2-22.5,22.8-22.5c30,0,60.1,0,90.1,0
		c12.7,0,22.8,9.7,22.9,22.4c0.2,20,0.2,40,0,60c-0.1,12.6-10.2,22.3-22.7,22.4c-10,0.1-20.1,0-30.1,0.1c-1,0-2.1,0.4-2.8,1
		c-11.6,9.3-23.2,18.6-34.7,28C131.2,225.3,130.8,225.7,129.9,226.3z M144.1,196.7c0.8-0.6,1.3-1,1.7-1.3
		c5.2-4.2,10.4-8.5,15.7-12.6c0.7-0.6,1.8-0.9,2.7-0.9c11.5-0.1,22.9,0,34.4,0c5.8,0,9.4-3.6,9.4-9.4c0-19.3,0-38.6,0-57.9
		c0-5.6-3.6-9.2-9.2-9.2c-29.7,0-59.5,0-89.2,0c-5.4,0-9.1,3.7-9.1,9.1c0,19.3,0,38.6,0,57.9c0,5.9,3.6,9.4,9.5,9.4
		c10.4,0,20.8,0,31.2,0c0.9,0,1.9,0,2.9,0C144.1,186.7,144.1,191.4,144.1,196.7z"/>
	<path class="st1" d="M133.4,143.5c0,4.6-3.6,8.2-8.2,8.2c-4.7,0-8.3-3.6-8.3-8.3c0-4.5,3.7-8.2,8.3-8.1
		C129.8,135.3,133.4,138.9,133.4,143.5z"/>
	<path class="st1" d="M154.3,151.7c-4.6,0-8.2-3.5-8.3-8.1c-0.1-4.7,3.6-8.4,8.2-8.4c4.6,0,8.2,3.6,8.2,8.2
		C162.4,148,158.9,151.7,154.3,151.7z"/>
	<path class="st1" d="M191.5,143.4c0,4.6-3.6,8.3-8.1,8.3c-4.6,0-8.3-3.5-8.3-8.1c-0.1-4.7,3.5-8.4,8.2-8.4
		C187.9,135.3,191.5,138.8,191.5,143.4z"/>
</g>
</svg>
