<?xml version="1.0" encoding="utf-8"?>
<!-- Generator: Adobe Illustrator 16.0.0, SVG Export Plug-In . SVG Version: 6.00 Build 0)  -->
<!DOCTYPE svg PUBLIC "-//W3C//DTD SVG 1.1//EN" "http://www.w3.org/Graphics/SVG/1.1/DTD/svg11.dtd">
<svg version="1.1" id="_x2014_ÎÓÈ_x5F_1" xmlns="http://www.w3.org/2000/svg" xmlns:xlink="http://www.w3.org/1999/xlink"
	 x="0px" y="0px" width="278.075px" height="276.389px" viewBox="176.269 261.806 278.075 276.389"
	 enable-background="new 176.269 261.806 278.075 276.389" xml:space="preserve">
<g>
	<path fill="#F05627" stroke="#FFFFFF" stroke-width="3" stroke-miterlimit="10" d="M265.554,538.194c0-21.261,0-41.499,0-62.146
		c-4.089,0-7.564,0-11.244,0c-12.47-0.205-24.94,0.613-37.206-0.613c-23.305-2.453-40.682-21.874-40.682-45.588
		c-0.204-40.682-0.204-81.363,0-122.044c0.205-25.758,20.852-45.997,46.61-45.997c61.329,0,122.862,0,184.19,0
		c25.963,0,46.61,19.83,46.814,45.792c0.409,40.886,0.409,81.771,0,122.658c-0.204,25.758-20.852,45.587-46.405,45.792
		c-20.442,0.204-41.09,0-61.533,0.204c-2.044,0-4.293,0.817-5.724,2.045c-23.714,19.012-47.428,38.023-70.938,57.239
		C268.211,536.149,267.394,536.968,265.554,538.194z M294.583,477.684c1.636-1.228,2.658-2.045,3.476-2.658
		c10.63-8.586,21.26-17.376,32.095-25.758c1.431-1.227,3.68-1.84,5.52-1.84c23.51-0.205,46.814,0,70.323,0
		c11.857,0,19.217-7.359,19.217-19.217c0-39.455,0-78.91,0-118.364c0-11.448-7.359-18.808-18.808-18.808
		c-60.716,0-121.635,0-182.351,0c-11.04,0-18.603,7.564-18.603,18.603c0,39.455,0,78.91,0,118.365
		c0,12.062,7.359,19.216,19.42,19.216c21.261,0,42.521,0,63.782,0c1.84,0,3.884,0,5.928,0
		C294.583,457.24,294.583,466.849,294.583,477.684z"/>
	<path fill="#F05627" d="M272.708,368.927c0,9.404-7.359,16.763-16.763,16.763c-9.608,0-16.967-7.359-16.967-16.968
		c0-9.199,7.563-16.763,16.967-16.559C265.349,352.164,272.708,359.523,272.708,368.927z"/>
	<path fill="#F05627" d="M315.435,385.69c-9.404,0-16.763-7.155-16.968-16.559c-0.205-9.608,7.359-17.172,16.763-17.172
		c9.404,0,16.764,7.359,16.764,16.763S324.838,385.69,315.435,385.69z"/>
	<path fill="#F05627" d="M391.482,368.722c0,9.404-7.359,16.968-16.56,16.968c-9.403,0-16.967-7.155-16.967-16.559
		c-0.205-9.608,7.154-17.172,16.763-17.172C384.123,352.164,391.482,359.318,391.482,368.722z"/>
</g>
</svg>
