<?xml version="1.0" encoding="utf-8"?>
<!-- Generator: Adobe Illustrator 21.0.0, SVG Export Plug-In . SVG Version: 6.00 Build 0)  -->
<svg version="1.1" id="_x2014_ÎÓÈ_x5F_1" xmlns="http://www.w3.org/2000/svg" xmlns:xlink="http://www.w3.org/1999/xlink"
	 x="0px" y="0px" viewBox="0 0 176.1 150" style="enable-background:new 0 0 176.1 150;" xml:space="preserve">
<style type="text/css">
	.st0{fill:#FF5200;}
	.st1{clip-path:url(#SVGID_2_);}
	.st2{fill:none;stroke:#FF5200;stroke-width:2;stroke-miterlimit:10;}
	.st3{fill:none;stroke:#FF5200;stroke-width:2.5127;stroke-miterlimit:10;}
</style>
<g id="UpLcRx_1_">
	<g>
		<path class="st0" d="M-627.1-124.2c-10.2,0-20.4,0-30.6,0c-3,0-3.7-0.7-3.7-3.7c0-20.4,0-40.8,0-61.2c0-2.9,0.7-3.6,3.6-3.6
			c20.5,0,40.9,0,61.4,0c2.8,0,3.6,0.7,3.6,3.6c0,20.5,0,40.9,0,61.4c0,2.7-0.8,3.5-3.5,3.5C-606.5-124.2-616.8-124.2-627.1-124.2z
			 M-594.4-160.3c-4.8-4.9-9.5-9.6-14.1-14.3c-2.1,2.1-4.2,4.2-6.3,6.2c4.8,4.8,9.5,9.5,14.2,14.2
			C-598.6-156.3-596.4-158.3-594.4-160.3z M-635.4-168.8c-2.1-2.2-4-4.2-5.9-6.2c-4.8,4.7-9.5,9.4-14,13.9c2,2.1,3.9,4.1,5.9,6.2
			C-644.7-159.5-640-164.2-635.4-168.8z M-619.3-152.3c-4.8-4.9-9.5-9.6-14-14.2c-2.1,2-4.1,4-6.1,5.8c4.7,4.8,9.4,9.5,14.1,14.1
			C-623.3-148.4-621.3-150.4-619.3-152.3z M-617-182.6c-4.6,4.6-9.2,9.3-13.6,13.7c1.9,2,3.9,4.2,5.8,6.2c4.7-4.6,9.3-9.2,14-13.8
			C-612.8-178.6-614.9-180.6-617-182.6z M-627.4-143.9c-1.9-2-3.9-4.1-5.9-6.2c-4.7,4.7-9.4,9.4-14,14c1.9,2.1,3.9,4.2,5.8,6.2
			C-636.6-134.7-631.9-139.4-627.4-143.9z M-633.4-170.9c2.1-2.1,4.1-4.2,6-6c-4.6-4.7-9.3-9.4-13.9-14.1c-2,2-4,4-6,6
			C-642.8-180.2-638.1-175.6-633.4-170.9z M-608.9-157.8c-4.6,4.7-9.3,9.3-13.7,13.8c1.9,2.1,4,4.2,5.8,6.2c4.8-4.7,9.4-9.3,14-13.9
			C-604.8-153.7-606.8-155.7-608.9-157.8z M-657.5-158.6c-1.7,1.2-3,2.6-2.6,5c0.2,1.2,0,2.4,0.1,3.7c0,0.5,0.1,1.2,0.4,1.5
			c3.4,3.4,6.8,6.8,10.1,10c2.1-2.1,4.2-4.1,6.1-6C-648.2-149.2-652.8-153.9-657.5-158.6z M-624.8-141.6c-2.1,2-4.1,4.1-6.4,6.3
			c1.9,1.8,4,3.5,5.7,5.6c2.7,3.4,5.9,4.9,10.4,4.4c1.9-0.2,3.3-0.7,4.2-2.2C-615.6-132.3-620.3-137-624.8-141.6z M-606.4-143.7
			c4,4,8.1,8.1,12.4,12.3c0-4,0-7.9,0-11.8c0-0.2-0.1-0.5-0.3-0.7c-2-2.1-4-4.2-5.7-6.1C-602.5-147.6-604.5-145.6-606.4-143.7z
			 M-594-188.5c-4.3,4.2-8.4,8.3-12.2,12c2,2.1,4,4.2,6.2,6.5c1.7-1.8,3.6-3.7,5.4-5.7c0.3-0.4,0.6-0.9,0.6-1.4
			C-594-180.9-594-184.6-594-188.5z M-602.3-185.3c-1.9-1.9-3.8-3.7-5.7-5.5c-0.3-0.3-0.7-0.6-1-0.6c-3.9,0-7.9,0-11.8,0
			c4.2,4.3,8.2,8.4,12.2,12.5C-606.5-181.1-604.5-183.1-602.3-185.3z M-645.8-191.5c-3.7,0-7.3,0-10.9,0c-2,0-3.3,1.4-3.4,3.4
			c0,1.2,0.1,2.5,0,3.7c-0.3,2.3,0.7,3.8,2.5,4.9C-653.7-183.5-649.9-187.4-645.8-191.5z M-631-185c2,2,4,4,6,6c2-2,4.1-4.1,5.9-6
			c-1.9-2.1-3.9-4.2-5.7-6.1C-626.9-189-629-187-631-185z M-635.7-152.7c-2-2-3.9-3.9-5.7-5.7c-1.9,2-3.9,3.9-5.9,6
			c1.9,1.9,3.8,3.8,5.6,5.6C-639.7-148.8-637.7-150.8-635.7-152.7z M-644-177c-1.9-2-3.9-4-5.7-6c-1.9,1.9-3.8,3.9-5.5,5.7
			c1.8,1.8,3.8,3.8,5.9,5.8C-647.7-173.2-645.8-175.2-644-177z M-655.5-127.9c2.1,2.5,2.1,2.5,5.3,2.5c1.8,0,3.5,0,5.3,0
			c1.4,0,2.7,0,3.6,0c-2.7-2.9-5.4-5.8-8-8.6C-651.4-132-653.4-130-655.5-127.9z M-608.8-141.3c-2,1.9-3.9,3.8-5.6,5.5
			c1.9,2,3.7,4,5.4,5.7c2-1.9,3.9-3.8,5.8-5.6C-605-137.5-606.9-139.4-608.8-141.3z M-660.1-177.5c0,3.3,0.1,6.4,0,9.5
			c-0.1,2.3,0.6,3.9,2.4,4.9c2.1-2.1,4.2-4.1,6-5.9C-654.5-171.8-657.2-174.6-660.1-177.5z M-660.1-128.5c2.8-2.8,5.5-5.5,7.9-7.9
			c-1.9-1.9-3.9-4-6.1-6.2c-0.6,0.9-1.7,1.9-1.7,2.9C-660.2-135.9-660.1-132.1-660.1-128.5z M-611.2-160.5c-1.9-1.9-3.7-3.8-5.6-5.7
			c-2,1.9-3.9,3.8-5.8,5.6c1.9,2,3.8,3.9,5.7,5.9C-615-156.7-613.1-158.6-611.2-160.5z M-600-132.9c-2.7,2.6-5.2,5.1-7.6,7.5
			c3,0,6.4-0.1,9.7,0c1.6,0,2.7-0.4,3.4-1.8C-596.4-129.3-598.4-131.3-600-132.9z M-633.3-133.8c-2,2-3.8,3.9-5.7,5.8
			c2.9,3.8,8.7,3.8,11.3,0.1C-629.6-129.8-631.4-131.7-633.3-133.8z M-604.8-191.4c1.5,1.6,2.9,3.1,4.2,4.4c1.5-1.5,3-2.9,4.5-4.4
			C-599-191.4-601.8-191.4-604.8-191.4z M-594.1-155.9c-1.4,1.3-2.8,2.7-4,3.8c1.3,1.3,2.6,2.7,4,4.1
			C-594.1-150.6-594.1-153.2-594.1-155.9z M-633.2-187.3c1.4-1.5,2.7-2.8,3.9-4c-2.4,0-5,0-7.2,0
			C-635.4-190-634.3-188.6-633.2-187.3z M-594.1-171.7c-1.3,1.1-2.7,2.3-4.1,3.5c1.4,1.3,2.7,2.6,4.1,3.8
			C-594.1-166.9-594.1-169.4-594.1-171.7z"/>
		<path class="st0" d="M-555.7-276.8c10.2,0,20.4,0,30.6,0c2.9,0,3.6,0.7,3.6,3.6c0,20.5,0,40.9,0,61.4c0,2.9-0.7,3.6-3.6,3.6
			c-20.5,0-40.9,0-61.4,0c-2.8,0-3.5-0.7-3.5-3.5c0-20.5,0-41.1,0-61.6c0-2.7,0.7-3.5,3.5-3.5C-576.2-276.8-565.9-276.8-555.7-276.8
			z M-549.1-225.5c7.4,0,14.6,0,21.8,0c0-3.4,0-6.6,0-9.9c-7.3,0-14.5,0-21.8,0C-549.1-232.1-549.1-228.9-549.1-225.5z
			 M-561.3-235.5c0,7.4,0,14.6,0,21.8c3.4,0,6.7,0,9.9,0c0-7.3,0-14.5,0-21.8C-554.7-235.5-557.9-235.5-561.3-235.5z M-539-259.5
			c-3.3,0-6.7,0-10,0c0,7.3,0,14.5,0,21.7c3.4,0,6.7,0,10,0C-539-245-539-252.2-539-259.5z M-551.3-259.5c-7.4,0-14.7,0-21.8,0
			c0,3.4,0,6.6,0,9.9c7.3,0,14.6,0,21.8,0C-551.3-252.9-551.3-256.2-551.3-259.5z M-575.4-237.7c0-7.4,0-14.6,0-21.8
			c-3.4,0-6.7,0-9.9,0c0,7.3,0,14.5,0,21.8C-582-237.7-578.8-237.7-575.4-237.7z M-549.1-213.7c7.4,0,14.6,0,21.8,0
			c0-3.3,0-6.4,0-9.5c-7.3,0-14.5,0-21.8,0C-549.1-220-549.1-216.9-549.1-213.7z M-527.3-237.7c0-7.4,0-14.6,0-21.8
			c-3.3,0-6.4,0-9.5,0c0,7.3,0,14.5,0,21.8C-533.6-237.7-530.5-237.7-527.3-237.7z M-551.3-247.2c-7.4,0-14.6,0-21.8,0
			c0,3.3,0,6.4,0,9.5c7.3,0,14.5,0,21.8,0C-551.3-240.9-551.3-244-551.3-247.2z M-549.1-261.8c7.4,0,14.6,0,21.8,0
			c0-3.3,0-6.4,0-9.5c-7.3,0-14.5,0-21.8,0C-549.1-268.1-549.1-265-549.1-261.8z M-573.2-213.7c3.3,0,6.5,0,9.6,0
			c0-7.3,0-14.5,0-21.7c-3.2,0-6.4,0-9.6,0C-573.2-228.1-573.2-221-573.2-213.7z M-551.3-275.4c-3.5,0-6.7,0-10,0
			c0,4.6,0,9.1,0,13.6c3.4,0,6.7,0,10,0C-551.3-266.4-551.3-270.8-551.3-275.4z M-588.6-225.5c4.5,0,8.8,0,13.2,0c0-3.4,0-6.7,0-9.9
			c-4.5,0-8.9,0-13.2,0C-588.6-232-588.6-228.8-588.6-225.5z M-573.1-275.4c0,4.7,0,9.2,0,13.6c3.3,0,6.4,0,9.5,0
			c0-4.6,0-9.1,0-13.6C-566.8-275.4-569.8-275.4-573.1-275.4z M-575.4-223.2c-4.6,0-8.9,0-13.2,0c0,3.3,0,6.4,0,9.5
			c4.5,0,8.9,0,13.2,0C-575.4-216.9-575.4-220-575.4-223.2z M-588.6-261.8c4.5,0,8.9,0,13.2,0c0-3.3,0-6.4,0-9.6
			c-4.5,0-8.8,0-13.2,0C-588.6-268.2-588.6-265.1-588.6-261.8z M-525-213.7c0.8,0,1.5,0,2.2,0c0-7.4,0-14.6,0-21.8
			c-0.8,0-1.5,0-2.2,0C-525-228.2-525-220.9-525-213.7z M-551.3-211.4c-7.4,0-14.6,0-22,0c0.1,0.7,0.1,1.3,0.2,1.8
			c7.4,0,14.5,0,21.8,0C-551.3-210.2-551.3-210.7-551.3-211.4z M-549.1-273.6c7.4,0,14.6,0,22,0c-0.1-0.7-0.1-1.3-0.2-1.8
			c-7.4,0-14.5,0-21.8,0C-549.1-274.8-549.1-274.3-549.1-273.6z M-525-275.4c0,4.6,0,9.1,0,13.6c0.8,0,1.5,0,2.3,0
			c0-4-0.1-7.9,0-11.7C-522.6-275.2-523.2-275.8-525-275.4z M-588.6-273.6c4.5,0,8.8,0,13.4,0c0-0.7-0.1-1.2-0.1-1.9
			c-4,0-7.9,0-11.7,0C-588.4-275.5-588.9-275-588.6-273.6z M-588.1-237.5c0.2-0.1,0.3-0.1,0.5-0.2c0-7.3,0-14.6,0-21.9
			c-0.2-0.1-0.3-0.1-0.5-0.2c-0.2,0.4-0.6,0.8-0.6,1.2c0,6.6,0,13.2,0,19.8C-588.7-238.3-588.3-237.9-588.1-237.5z M-525-259.5
			c0,3.4,0,6.7,0,10.1c0.8,0,1.5-0.1,2.2-0.1c0-3.4,0-6.7,0-10C-523.5-259.5-524.1-259.5-525-259.5z M-525-247.3c0,3.3,0,6.4,0,9.7
			c0.8,0,1.5-0.1,2.2-0.1c0-3.3,0-6.4,0-9.6C-523.5-247.3-524.2-247.3-525-247.3z M-549.2-211.4c0.1,0.7,0.1,1.3,0.1,1.9
			c3.4,0,6.6,0,10,0c0-0.7,0-1.2,0-1.9C-542.4-211.4-545.6-211.4-549.2-211.4z M-575.4-211.4c-3.5,0-6.7,0-10,0c0,0.7,0,1.2,0,1.8
			c3.4,0,6.7,0,10,0C-575.4-210.2-575.4-210.8-575.4-211.4z M-536.8-209.6c3.3,0,6.5,0,9.7,0c-0.1-0.7-0.1-1.3-0.2-1.8
			c-3.3,0-6.4,0-9.5,0C-536.8-210.8-536.8-210.2-536.8-209.6z M-522.7-211.4c-0.7,0-1.5,0-2.3,0c0,0.6,0,1.2,0,1.8
			C-523.5-209.3-522.5-209.5-522.7-211.4z"/>
		<path class="st0" d="M-661.3-242.6c0-10.2,0-20.4,0-30.6c0-2.9,0.7-3.6,3.6-3.6c20.5,0,40.9,0,61.4,0c2.7,0,3.5,0.8,3.5,3.5
			c0,20.5,0,41.1,0,61.6c0,2.7-0.8,3.5-3.5,3.5c-20.5,0-40.9,0-61.4,0c-2.9,0-3.6-0.7-3.6-3.6C-661.3-222.1-661.3-232.3-661.3-242.6
			z M-644.8-227.9c0-8.2,0-16.2,0-24.2c-5.2,0-10.2,0-15.3,0c0,8.2,0,16.1,0,24.2C-654.9-227.9-649.9-227.9-644.8-227.9z
			 M-626.1-243.2c0,7.8,0,15.4,0,23c4.9,0,9.7,0,14.4,0c0-7.7,0-15.3,0-23C-616.5-243.2-621.2-243.2-626.1-243.2z M-609-252.2
			c0,5.8,0,11.5,0,17.3c5,0,9.9,0,14.8,0c0-5.9,0-11.6,0-17.3C-599.2-252.2-604.1-252.2-609-252.2z M-624.8-265.4c0-3.4,0-6.7,0-9.9
			c-7.8,0-15.4,0-23,0c0,3.4,0,6.6,0,9.9C-640.1-265.4-632.5-265.4-624.8-265.4z M-622.1-265.5c7.8,0,15.4,0,23,0c0-3.4,0-6.7,0-9.9
			c-7.7,0-15.3,0-23,0C-622.1-272.1-622.1-268.8-622.1-265.5z M-628.8-227.9c0-5.2,0-10.2,0-15.3c-4.5,0-8.8,0-13.2,0
			c0,5.2,0,10.2,0,15.3C-637.6-227.9-633.2-227.9-628.8-227.9z M-656.8-254.8c8.4,0,16.5,0,24.7,0c0-2.7,0-5.3,0-7.9
			c-8.3,0-16.5,0-24.7,0C-656.8-260-656.8-257.5-656.8-254.8z M-642.1-245.9c10.2,0,20.3,0,30.3,0c0-2.2,0-4.3,0-6.3
			c-10.2,0-20.2,0-30.3,0C-642.1-250.1-642.1-248.1-642.1-245.9z M-647.8-209.6c7.8,0,15.4,0,23,0c0-2.6,0-5.1,0-7.5
			c-7.7,0-15.3,0-23,0C-647.8-214.6-647.8-212.2-647.8-209.6z M-599-209.5c0-2.6,0-5.1,0-7.6c-7.7,0-15.4,0-23,0c0,2.6,0,5,0,7.6
			C-614.3-209.5-606.7-209.5-599-209.5z M-650.8-225.3c-3.2,0-6.1,0-9.3,0c0,4.9,0,9.7,0.1,14.5c0,0.4,0.7,1.2,1.2,1.3
			c2.7,0.1,5.4,0.1,8.1,0.1C-650.8-214.9-650.8-220-650.8-225.3z M-611.7-254.8c0-2.8,0-5.3,0-7.9c-6,0-11.8,0-17.7,0
			c0,2.7,0,5.3,0,7.9C-623.4-254.8-617.6-254.8-611.7-254.8z M-599.1-220.2c0-4.1,0-8.1,0-12c-3.4,0-6.7,0-9.9,0c0,4.1,0,8,0,12
			C-605.7-220.2-602.4-220.2-599.1-220.2z M-609.1-254.9c5.1,0,10,0,14.9,0c0-2.7,0-5.3,0-7.9c-5.1,0-10,0-14.9,0
			C-609.1-260.1-609.1-257.6-609.1-254.9z M-628.8-225.2c-6.4,0-12.7,0-18.9,0c0,1.8,0,3.4,0,5.1c6.4,0,12.6,0,18.9,0
			C-628.8-221.9-628.8-223.5-628.8-225.2z M-650.8-275.4c-2.1,0-4,0-5.9,0c0,3.4,0,6.7,0,10c2,0,4,0,5.9,0
			C-650.8-268.8-650.8-272.1-650.8-275.4z M-594.2-216c0-5.5,0-10.8,0-16.1c-0.8,0-1.5,0-2.2,0c0,5.5,0,10.8,0,16.1
			C-595.6-216-595-216-594.2-216z M-594-265.4c0-2.8,0-5.5,0-8.2c0-1.9-0.2-2-2.3-1.7c0,3.3,0,6.6,0,9.9
			C-595.6-265.4-594.9-265.4-594-265.4z M-659.5-267.7c-0.1,0-0.3,0-0.4,0c0,4.3,0,8.6,0,12.9c0.1,0,0.3,0,0.4,0
			C-659.5-259.1-659.5-263.4-659.5-267.7z M-596.4-209.6c2.5,0.1,2.7-0.2,2.2-3.9c-0.7,0-1.4,0-2.2,0
			C-596.4-212.1-596.4-210.9-596.4-209.6z M-659.5-275.1c-0.1,0-0.2,0-0.4-0.1c0,1.6,0,3.3,0,4.9c0.1,0,0.2,0,0.4,0
			C-659.5-271.9-659.5-273.5-659.5-275.1z"/>
		<path class="st0" d="M-450.1-158.3c0,10.1,0,20.3,0,30.4c0,3-0.7,3.7-3.7,3.7c-20.4,0-40.8,0-61.2,0c-2.9,0-3.6-0.7-3.6-3.6
			c0-20.5,0-40.9,0-61.4c0-2.9,0.7-3.6,3.6-3.6c20.5,0,40.9,0,61.4,0c2.7,0,3.5,0.8,3.5,3.5C-450.1-178.9-450.1-168.6-450.1-158.3z
			 M-493.3-154.5c0.1-3-0.5-3.8-2.6-3.6c-2.9,0.2-5.8,0.4-8.7,0.4c-1.4,0-2,0.5-2.1,1.8c-0.1,1.6-0.3,3.2-0.3,4.8
			c-0.1,2.4,0.6,3.1,3.1,3.1c2.9,0,5.9-0.1,8.8,0c1.4,0,1.8-0.8,1.8-1.9C-493.2-151.4-493.3-153-493.3-154.5z M-491.4-146.1
			c0,0,0-0.1,0-0.1c-2.4,0.2-4.7,0.3-7,0.6c-0.6,0.1-1.5,0.9-1.6,1.4c-0.2,1.9-0.1,3.8-0.1,5.7c0,1.6,0.6,2.5,2.4,2.5
			c3-0.1,6,0.1,9.1,0.2c1.1,0,1.9-0.4,1.9-1.6c0.1-2.5,0.1-5,0-7.5c0-0.4-0.8-1-1.3-1.1C-489.1-146.3-490.3-146.1-491.4-146.1z
			 M-486.7-166.3c-0.1-3.3-0.1-3.4-3.4-3.5c-2.6-0.1-5.2,0.2-7.8,0.4c-2.2,0.2-2.6,0.9-2.2,3.1c0.2,1,0.3,2.1,0.1,3.2
			c-0.4,2.3,0.1,3.2,2.5,3.3c2,0.1,3.9,0,5.9-0.1c1.5-0.1,3.5,0.3,4.2-0.5c0.8-1,0.5-3,0.7-4.5
			C-486.5-165.3-486.7-165.8-486.7-166.3z M-501.2-180.9c0-0.1,0-0.1,0-0.2c-1.3,0-2.6-0.1-3.8,0.1c-0.6,0.1-1.5,0.8-1.5,1.4
			c-0.2,2.2-0.2,4.3,0,6.5c0.1,0.6,0.9,1.7,1.5,1.7c3.3,0.3,6.7,0.3,10.1,0.4c0.4,0,1.2-0.5,1.2-0.9c0.1-2.8,0.2-5.6,0.1-8.4
			c0-0.4-1-1-1.5-1C-497.2-181.3-499.2-181-501.2-180.9z M-470.2-148.1c0,0.1,0,0.1,0,0.2c0.5,0,0.9,0.1,1.4,0.1
			c3.3,0.2,3.9-0.2,4-3.6c0.1-1.5-0.2-3,0-4.4c0.2-1.6-0.4-2.1-1.9-2.1c-2.3,0-4.7-0.2-7-0.2c-3,0-4.1,1.3-3.7,4.3
			c0.1,1.1,0.2,2.2,0.1,3.2c-0.2,2.1,0.6,3,2.7,2.8C-473.2-147.9-471.7-148-470.2-148.1z M-479.4-148c1.1-2.9,0.4-6,0.2-9.1
			c0-0.3-1.1-0.8-1.7-0.8c-2.9-0.1-5.9-0.1-8.8-0.1c-1.7,0-2.1,0.7-1.8,2.4c0.3,1.6,0.4,3.3,0.2,5c-0.3,2.3-0.2,2.6,2.2,2.6
			C-485.9-148-482.9-148-479.4-148z M-472-141.5c0.1-0.8,0.1-1.6,0.2-2.4c0.1-1.4-0.4-2-1.8-1.9c-3,0.1-6-0.2-9-0.1
			c-0.8,0-2.2,0.8-2.2,1.3c-0.1,2.4,0,4.8,0.3,7.1c0.1,0.5,1.1,1.2,1.7,1.3c1.6,0.3,3.2,0.2,4.8,0.3
			C-472.4-135.7-472-136.1-472-141.5z M-471.2-171.1c0,0,0,0.1,0,0.1c1.4,0,2.9,0.2,4.3-0.1c0.8-0.2,1.9-1,2-1.7
			c0.2-2.3,0.1-4.6,0.1-6.9c0-1.2-0.6-1.5-1.6-1.5c-2.9,0.1-5.8,0.1-8.7,0.2c-1.3,0-2.1,0.5-2,2.1c0.1,1.7-0.1,3.5-0.3,5.2
			c-0.2,1.7,0.6,2.4,2.1,2.5C-474-171.1-472.6-171.1-471.2-171.1z M-464.2-159.9c0,0,0,0.1,0,0.1c1.2,0,2.3,0,3.5,0
			c2.2,0.1,2.9-0.6,2.8-2.9c-0.1-1.5-0.4-3-0.3-4.4c0.3-2.1-0.3-2.8-2.4-2.7c-2.7,0.2-5.3,0.3-8,0.3c-1.3,0-1.9,0.4-1.9,1.7
			c0,1.8,0.2,3.7,0,5.5c-0.2,1.7,0.6,2.3,2,2.3C-467-159.8-465.6-159.9-464.2-159.9z M-485.2-180.8
			C-485.2-180.9-485.2-180.9-485.2-180.8c-1.5-0.1-3,0-4.5-0.1c-1.5,0-2.3,0.3-2,2.1c0.3,1.6,0.5,3.4,0.3,5c-0.2,2,0,2.6,2,2.7
			c2.8,0.1,5.5-0.1,8.3,0c1.2,0,1.9-0.2,1.9-1.4c0.1-2.1,0.1-4.1,0.3-6.2c0.2-1.6-0.4-2.1-1.9-2.1
			C-482.2-180.8-483.7-180.8-485.2-180.8z M-472.3-166.1c0.1-1.5,1-3.6-1.7-3.6c-3,0-6.1,0.2-9.1,0.4c-0.6,0.1-1.6,0.9-1.6,1.4
			c-0.1,2.3,0.1,4.6,0.2,6.9c0,1,0.5,1.3,1.6,1.3c2.9-0.1,5.9-0.4,8.8,0c2,0.2,2.1-0.8,2.1-2C-472-163.3-472.2-164.7-472.3-166.1z
			 M-514.2-159.5c3.7,0,6.7-0.1,9.7,0c2.4,0.1,3-0.4,3-2.8c-0.1-1.9,0-3.9,0-5.8c0-1.2-0.5-1.5-1.7-1.4c-2.9,0.1-5.9,0.3-8.7-0.1
			c-1.7-0.2-2.1,0.7-2.2,1.8C-514.3-165.1-514.2-162.5-514.2-159.5z M-470.3-141.3c0,0-0.1,0-0.1,0c0,1.2-0.2,2.3,0.1,3.4
			c0.2,0.6,1,1.6,1.6,1.6c3,0.1,6.1,0.1,9.1-0.1c0.6,0,1.7-0.8,1.7-1.2c0.1-2.4,0-4.8-0.2-7.3c0-0.4-1-1-1.5-1.1
			c-2.5-0.2-5-0.1-7.5-0.3c-2.5-0.1-3.5,0.7-3.3,3.2C-470.4-142.4-470.4-141.9-470.3-141.3z M-513.8-136.1c3.6,0,6.7,0,9.9,0
			c1.3,0,2.5-0.3,2.5-1.9c0-2-0.2-3.9-0.3-5.9c-0.2-2.3-0.6-2.5-2.8-2.1c-0.9,0.2-1.8,0-2.7,0c-0.7,0-1.3-0.1-2,0
			c-1.1,0.1-2.3,0.1-3.3,0.3c-0.6,0.1-1.6,0.7-1.6,1.1C-514.2-141.9-513.9-139.1-513.8-136.1z M-493.3-125.4c0-2.8,0.1-5.3-0.1-7.7
			c0-0.5-1-1.3-1.6-1.3c-3.4,0-6.7,0.1-10.1,0.3c-0.6,0-1.4,1.2-1.5,1.9c-0.3,1.8-0.4,3.6-0.4,5.4c0,0.4,0.7,1.3,1,1.3
			C-501.8-125.4-497.7-125.4-493.3-125.4z M-493.1-191.5c-1.2,0-2.4,0-3.7,0c-3.3,0-3.3,0-3.1,3.3c0,0.7-0.2,1.5-0.3,2.2
			c-0.1,1.4,0.1,2.9,1.9,3c3.3,0.2,6.7,0.4,10,0.3c0.6,0,1.7-1,1.8-1.7c0.2-1.7,0.1-3.4,0.1-5.2c0-1.2-0.2-2.1-1.8-2
			C-489.8-191.4-491.5-191.5-493.1-191.5z M-470.6-191.4c0,2.1,0,4.1,0,6.2c0,2,1.2,3.1,3.3,2.9c2.9-0.2,5.7-0.3,9-0.5
			c0.2-2.7,0.5-5.6,0.8-8.6C-461.9-191.4-466.1-191.4-470.6-191.4z M-477.3-125.4c4,0,7.8,0,11.6-0.1c0.4,0,1.1-0.9,1.1-1.4
			c0.1-2-0.1-3.9-0.1-5.9c0-1.4-0.7-1.7-1.9-1.7c-2.8,0-5.6,0-8.4,0c-1.6,0-2.7,0.3-2,2.4c0.3,0.9-0.2,2.1-0.2,3.2
			C-477.4-127.8-477.3-126.7-477.3-125.4z M-451.4-180.9c-3.4,0-6.6-0.1-9.7,0.1c-0.6,0-1.5,1-1.6,1.6c-0.2,2-0.2,4.1,0.1,6.1
			c0.1,0.7,1.2,1.8,1.8,1.8c3.1,0.2,6.2,0.1,9.4,0.1C-451.4-174.4-451.4-177.8-451.4-180.9z M-478.7-125.5c-0.1-2.8-0.2-5.5-0.5-8.1
			c0-0.3-0.9-0.7-1.5-0.7c-3-0.1-6.1-0.1-9.1,0c-0.6,0-1.7,0.9-1.8,1.4c-0.2,2.4-0.1,4.9-0.1,7.4
			C-487.4-125.5-483.3-125.5-478.7-125.5z M-451.4-148c0-3.5,0-6.6,0-9.9c-3.2,0-6.3-0.1-9.4,0.1c-0.6,0-1.6,0.8-1.7,1.3
			c-0.2,2.3-0.3,4.6-0.2,6.9c0,0.5,0.8,1.5,1.2,1.5C-458.2-147.9-454.9-148-451.4-148z M-471.8-191.4c-4.7,0-8.9,0-12.9,0
			c0,2.2,0,4.3,0,6.4c0,1.8,0.7,2.7,2.7,2.6c2.7-0.2,5.3-0.3,8-0.5c0.6-0.1,1.5-0.6,1.6-1.1C-472.1-186.4-472-188.9-471.8-191.4z
			 M-514.4-191.4c0.2,2,0.4,3.8,0.4,5.6c-0.1,3.3,0.2,3.6,3.5,3.2c2.1-0.2,4.2-0.8,6.4,0.3c1.2,0.6,2.6-0.2,2.6-1.7
			c0.1-2.4-0.2-4.8-0.3-7.3C-506-191.4-509.9-191.4-514.4-191.4z M-451.3-134.3c-3.4,0-6.6-0.1-9.7,0.1c-0.6,0-1.5,0.8-1.5,1.3
			c-0.2,1.9-0.1,3.9,0,5.8c0,1.1,0.5,1.8,1.9,1.8c2.5-0.1,5-0.1,7.5,0c1.3,0,1.9-0.4,1.9-1.7C-451.3-129.5-451.3-131.8-451.3-134.3z
			 M-517.2-171.3c1,0.1,1.9,0.1,2.8,0.2c0.9,0,1.9-0.1,2.8,0.1c2.4,0.4,3.8-0.9,3.4-3.3c-0.2-1.2-0.1-2.5-0.2-3.8
			c-0.2-1,0.3-2.6-1.4-2.7c-2.4-0.2-4.8,0-7.4,0C-517.2-177.7-517.2-174.6-517.2-171.3z M-517.3-157.4c0,3.1,0,6.1,0,9.4
			c2.2,0.1,4.4,0.3,6.5,0.2c0.7-0.1,1.9-1,2-1.7c0.2-2.5,0.1-5.1,0-7.6c0-0.3-0.5-0.7-0.8-0.7C-512.1-157.7-514.6-157.6-517.3-157.4
			z M-517.3-134.4c0,2.8-0.1,5.2,0.1,7.7c0,0.5,1,1.2,1.5,1.3c2,0.2,3.9,0,5.9,0.1c1.1,0,1.5-0.4,1.5-1.4c0-2,0-4.1,0-6.1
			c0-1.1-0.4-1.6-1.6-1.5C-512.3-134.4-514.6-134.4-517.3-134.4z M-451.3-145.5c-0.7-0.1-1.2-0.1-1.8-0.1c-2.3-0.4-3,0.3-3,2.6
			c0,1.7-0.1,3.3,0,5c0,0.5,0.5,1.3,0.9,1.4c1.2,0.4,2.4,0.4,3.8,0.6C-451.3-139.5-451.3-142.4-451.3-145.5z M-451.4-169.1
			c-0.9-0.1-1.7-0.2-2.5-0.2c-1.5-0.1-2.2,0.4-2,2.2c0.2,1.3-0.1,2.6-0.3,4c-0.2,1.7,0.7,3.4,1.9,3.4c0.9,0,1.9-0.1,2.8-0.1
			C-451.4-163-451.4-166-451.4-169.1z M-451.3-182.6c0-2.5,0.1-5,0-7.5c-0.1-1.9-1.6-1.2-2.6-1.3c-1-0.1-2,0-1.9,1.4
			c0,2,0,3.9,0.2,5.9c0.1,0.6,0.8,1.4,1.4,1.6C-453.4-182.4-452.4-182.6-451.3-182.6z M-517.3-136.4c0.2,0,0.4,0.1,0.7,0.1
			c1.8-2.5,0.3-5.5,0.8-8.3c0.1-0.5-0.6-1.1-0.9-1.7c-0.2,0.1-0.3,0.2-0.5,0.3C-517.3-142.8-517.3-139.6-517.3-136.4z M-517.2-159.6
			c1.8-1.9,1.8-9.3,0-10.1C-517.2-166.4-517.2-163.1-517.2-159.6z M-517-182.2c2-3.1,0.5-6.2,1.2-9.1
			C-517.5-191.1-518-186.9-517-182.2z"/>
		<path class="st0" d="M-484.1-276.8c10.1,0,20.3,0,30.4,0c3,0,3.7,0.7,3.7,3.7c0,20.4,0,40.8,0,61.2c0,2.9-0.7,3.6-3.6,3.6
			c-20.5,0-40.9,0-61.4,0c-2.8,0-3.6-0.7-3.6-3.6c0-20.5,0-40.9,0-61.4c0-2.8,0.7-3.5,3.5-3.5C-504.8-276.8-494.4-276.8-484.1-276.8
			z M-489.9-243.5c7.5,0,14.9,0,22.2,0c0-3.3,0-6.4,0-9.5c-7.5,0-14.8,0-22.2,0C-489.9-249.8-489.9-246.7-489.9-243.5z
			 M-492.2-252.9c-7.5,0-14.9,0-22.2,0c0,3.2,0,6.3,0,9.5c7.5,0,14.8,0,22.2,0C-492.2-246.6-492.2-249.7-492.2-252.9z M-502.2-231.6
			c7.5,0,14.9,0,22.2,0c0-3.3,0-6.4,0-9.5c-7.5,0-14.8,0-22.2,0C-502.2-238-502.2-234.9-502.2-231.6z M-455.5-241.1
			c-7.5,0-14.9,0-22.2,0c0,3.3,0,6.4,0,9.5c7.5,0,14.8,0,22.2,0C-455.5-234.8-455.5-237.9-455.5-241.1z M-489.9-229.3
			c0,3.3,0,6.4,0,9.6c7.5,0,14.8,0,22.2,0c0-3.3,0-6.4,0-9.6C-475.2-229.3-482.5-229.3-489.9-229.3z M-492.1-229.3
			c-7.6,0-14.9,0-22.2,0c0,3.3,0,6.4,0,9.5c7.5,0,14.8,0,22.2,0C-492.1-223-492.1-226.1-492.1-229.3z M-502.2-255.2
			c7.5,0,14.9,0,22.2,0c0-3.3,0-6.4,0-9.5c-7.5,0-14.8,0-22.2,0C-502.2-261.5-502.2-258.4-502.2-255.2z M-455.5-255.2
			c0-3.3,0-6.4,0-9.5c-7.5,0-14.8,0-22.2,0c0,3.2,0,6.3,0,9.5C-470.3-255.2-463-255.2-455.5-255.2z M-514.4-267.1
			c7.5,0,14.9,0,22.2,0c0-2.9,0-5.6,0-8.3c-7.5,0-14.8,0-22.2,0C-514.4-272.6-514.4-269.9-514.4-267.1z M-489.9-275.5
			c0,2.9,0,5.6,0,8.4c7.5,0,14.8,0,22.1,0c0-2.9,0-5.6,0-8.4C-475.2-275.5-482.4-275.5-489.9-275.5z M-502.2-209.6
			c7.5,0,14.9,0,22.2,0c0-2.7,0-5.4,0-7.9c-7.5,0-14.8,0-22.2,0C-502.2-214.8-502.2-212.3-502.2-209.6z M-477.7-209.6
			c7.5,0,14.9,0,22.2,0c0-2.7,0-5.4,0-7.9c-7.5,0-14.8,0-22.2,0C-477.7-214.8-477.7-212.3-477.7-209.6z M-451.4-253
			c-4.8,0-9.4,0-14,0c0,3.3,0,6.4,0,9.5c4.8,0,9.3,0,14,0C-451.4-246.6-451.4-249.7-451.4-253z M-465.5-219.8c4.7,0,9.4,0,14,0
			c0-3.3,0-6.4,0-9.5c-4.8,0-9.4,0-14,0C-465.5-226-465.5-222.9-465.5-219.8z M-517.2-241.2c0,3.2,0,6.4,0,9.6c4.3,0,8.5,0,12.7,0
			c0-3.3,0-6.4,0-9.6C-508.7-241.2-512.9-241.2-517.2-241.2z M-517.2-264.9c0,3.3,0,6.5,0,9.6c4.4,0,8.6,0,12.8,0c0-3.3,0-6.4,0-9.6
			C-508.8-264.9-512.9-264.9-517.2-264.9z M-465.5-267.1c4.8,0,9.4,0,14.2,0c0-2.4,0.1-4.6-0.1-6.8c0-0.6-0.8-1.5-1.3-1.5
			c-4.2-0.1-8.5-0.1-12.8-0.1C-465.5-272.6-465.5-269.9-465.5-267.1z M-504.4-217.5c-4.4,0-8.6,0-13,0c0,2.3-0.1,4.5,0.1,6.7
			c0,0.5,0.8,1.2,1.2,1.3c3.9,0.1,7.8,0.1,11.7,0.1C-504.4-212.3-504.4-214.8-504.4-217.5z M-453.2-264.8c0,3.3,0,6.4,0,9.7
			c0.7-0.1,1.3-0.1,1.8-0.1c0-3.3,0-6.4,0-9.5C-452-264.8-452.6-264.8-453.2-264.8z M-453.2-241.2c0,3.3,0,6.4,0,9.6
			c0.6,0,1.2,0,1.8,0c0-3.2,0-6.4,0-9.6C-452-241.2-452.5-241.2-453.2-241.2z M-453.3-217.5c0,2.8,0,5.4,0,8
			c0.1,0.1,0.3,0.2,0.4,0.3c0.5-0.5,1.4-1,1.5-1.5c0.2-2.3,0.1-4.5,0.1-6.8C-452-217.5-452.6-217.5-453.3-217.5z M-517.2-219.8
			c0.1,0,0.3,0,0.4,0c0-3.2,0-6.4,0-9.6c-0.1,0-0.3,0-0.4,0C-517.2-226.1-517.2-222.9-517.2-219.8z M-516.7-253c-0.1,0-0.3,0-0.4,0
			c0,3.2,0,6.4,0,9.6c0.1,0,0.3,0,0.4,0C-516.7-246.6-516.7-249.8-516.7-253z M-516.7-275.2c-0.1,0-0.3,0-0.4,0c0,2.7,0,5.4,0,8.1
			c0.1,0,0.3,0,0.4,0C-516.7-269.8-516.7-272.5-516.7-275.2z"/>
		<path class="st0" d="M-590-158.7c0-10.2,0-20.4,0-30.6c0-2.7,0.7-3.5,3.5-3.5c20.5,0,40.9,0,61.4,0c2.9,0,3.6,0.7,3.6,3.6
			c0,20.5,0,40.9,0,61.4c0,2.8-0.7,3.6-3.6,3.6c-20.5,0-40.9,0-61.4,0c-2.8,0-3.5-0.8-3.5-3.5C-590-138-590-148.3-590-158.7z
			 M-550.7-141.4c0.5,0.6,1.2,1.6,1.9,2.4c1.2,1.4,2.5,2.8,3.8,4.2c1,1.1,2,0.8,3-0.2c3.3-3.4,6.6-6.9,10-10.3
			c1.5-1.5,1.6-2.6,0.2-4.1c-0.6-0.7-1.2-1.3-1.9-1.9c-4.2-3.4-3.3-3.8-7.2,0c-0.5,0.5-1.1,1-1.6,1.5
			C-545.3-147-547.9-144.3-550.7-141.4z M-586.1-176.8c0.4,0.5,1.1,1.4,1.7,2.2c1.3,1.5,2.7,3,4,4.5c1,1,2,0.7,2.8-0.2
			c3.3-3.4,6.6-6.9,9.9-10.4c1.6-1.6,1.7-2.6,0.2-4.3c-0.7-0.7-1.4-1.5-2.2-2.2c-3-2.6-3-2.6-6.1-0.3c-0.3,0.2-0.6,0.4-0.8,0.6
			C-579.6-183.4-582.8-180.1-586.1-176.8z M-568.2-158.9c0.5,0.7,1.2,1.6,1.9,2.5c1.2,1.4,2.4,2.9,3.8,4.1c0.5,0.4,1.9,0.5,2.4,0.1
			c1.3-0.9,2.3-2.3,3.4-3.4c2.3-2.4,4.6-5,7.1-7.2c1.4-1.3,1.5-2.5,0.4-3.6c-1.5-1.6-3.3-3-5-4.4c-0.4-0.3-1.4-0.5-1.8-0.2
			c-1.5,1.1-3,2.4-4.3,3.7C-562.9-164.7-565.5-161.8-568.2-158.9z M-534.2-177.4c-0.3-0.9-0.3-1.5-0.6-1.9c-1.9-1.9-3.8-3.8-5.8-5.6
			c-0.4-0.3-1.5-0.4-1.8-0.1c-1.3,1.2-2.4,2.7-3.6,4c-0.9,1-1.9,1.9-2.8,2.8c-1.4,1.4-2.8,2.8-4.2,4.3c-0.8,0.9-0.4,1.4,0.4,2.1
			c1.5,1.3,2.9,2.8,4.2,4.3c1.2,1.4,2.9,1.6,4,0.5c2.7-2.7,5.4-5.2,8-7.9C-535.5-175.8-534.8-176.7-534.2-177.4z M-562.9-168.2
			c-0.2-0.4-0.4-0.8-0.7-1.1c-1.8-1.6-3.6-3.2-5.5-4.8c-0.2-0.2-0.8-0.3-1.1-0.2c-1,0.6-2.1,1.2-3,2c-2.3,2.1-4.4,4.3-6.6,6.5
			c-1.9,1.8-2.2,3.9-0.8,5.5c1.2,1.3,2.3,2.5,3.4,3.9c1,1.3,1.9,1.3,3,0.1c1.4-1.6,2.4-3.9,4.1-4.7c3-1.4,4.1-4.4,6.5-6.1
			C-563.2-167.3-563.1-167.8-562.9-168.2z M-570-157.6c-1.3,1.1-2.4,1.9-3.3,2.8c-1.8,1.7-3.5,3.4-5.2,5.3c-1.2,1.4-2.6,2.8-3.2,4.5
			c-0.2,0.6,1.5,1.9,2.3,2.9c0.2,0.3,0.3,0.6,0.6,0.8c0.9,0.9,1.8,1.8,2.8,2.5c0.4,0.3,1.3,0.3,1.6,0.1c1.2-0.9,2.4-2,3.5-3
			c1.2-1.2,2.3-2.4,3.5-3.6c1.5-1.5,3.1-3.1,4.8-4.8C-565.1-152.6-567.5-155-570-157.6z M-577.7-131.9c1.6,1.8,3,3.4,4.3,5
			c1.5,1.9,3.2,2,4.9,0.1c1-1.2,1.9-2.4,3-3.4c2-2,4.1-4,6.3-5.8c1-0.9,1-1.7,0.1-2.6c-1.6-1.5-3.4-2.9-4.9-4.4
			c-0.9-0.9-1.5-0.7-2.4,0.1c-1.8,1.7-3.7,3.2-5.4,5C-573.9-136.1-575.7-134-577.7-131.9z M-562.8-146.4c-0.1,3.6,2.8,5.7,5.1,8
			c0.2,0.2,0.7,0.4,0.9,0.3c1.3-0.9,2.7-1.8,3.8-2.8c1-1,1.8-2.3,2.8-3.3c1.3-1.4,2.8-2.6,4.2-3.9c0.9-0.8,1.3-1.6,0.3-2.7
			c-2.1-2.1-4-4.4-6.4-7c-1.7,1.8-2.9,3.1-4.2,4.5C-558.5-151.1-560.6-148.7-562.8-146.4z M-568.7-176.4c2,1.9,3.5,3.5,5.1,4.9
			c2.4,2,3.1,1.7,5.2-0.6c2.4-2.7,5.1-5.2,7.8-7.5c1.1-0.9,1.2-1.7,0.6-2.5c-1.9-2.2-4-4.3-6.4-6.8
			C-560.5-184.7-564.5-180.6-568.7-176.4z M-550.1-158.3c1.8,1.7,3.3,3.2,4.9,4.6c2.5,2.1,3,1.8,5.2-0.5c2.4-2.6,5-5.2,7.7-7.5
			c1.4-1.2,1.4-2,0.4-3.1c-1.6-1.7-3.2-3.5-4.9-5.1c-0.3-0.3-1.1-0.6-1.3-0.5c-1.1,0.6-2.2,1.4-3.1,2.3c-2.3,2.3-4.6,4.7-6.8,7.1
			C-548.8-160.3-549.4-159.3-550.1-158.3z M-552.6-140.3c-1.7,2-3,3.5-4.5,5c-2,2.1-4.2,4.2-6.2,6.3c-0.5,0.5-1.1,1.7-0.8,2.1
			c0.5,0.7,1.5,1.3,2.4,1.4c2.8,0.2,5.7,0.1,8.5,0c0.7,0,1.6-0.4,2.1-0.9c2-1.9,3.8-3.9,6-6.1C-547.5-135-549.8-137.4-552.6-140.3z
			 M-540.1-125.4c3.9,0.8,7-1,9.2-4.9c0.4-0.7,1.2-1.3,1.9-1.8c1.2-0.9,0.9-1.9,0.1-2.6c-1.6-1.5-3.4-2.8-5.2-4
			c-0.5-0.3-1.6-0.3-2,0c-3.6,3.3-7.1,6.8-10.6,10.2c-0.3,0.3-0.6,1.3-0.4,1.6c0.5,0.6,1.3,1.3,2,1.4
			C-543.6-125.3-542.2-125.4-540.1-125.4z M-522.7-160.5c0-1.9,0.1-3.8,0-5.7c0-0.5-0.5-1.2-1-1.5c-0.2-0.2-1,0.2-1.3,0.5
			c-1.5,1.6-2.8,3.2-4.3,4.8c-0.8,0.8-1.8,1.4-2.6,2.2c-1.3,1.3-2.5,2.6-3.6,4c-0.2,0.3,0.1,1.4,0.4,1.8c1.4,1.5,2.9,2.9,4.3,4.4
			c1.4,1.6,3.1,1.5,4.3-0.2c0.3-0.4,0.5-0.9,0.9-1.1c2.9-1.3,3.4-3.7,3-6.6C-522.7-158.7-522.7-159.6-522.7-160.5z M-523.7-184.9
			c-1.8,1.5-3,2.4-4.1,3.5c-1.9,1.9-3.8,3.9-5.7,5.9c-0.8,0.8-1.7,1.6-2.3,2.6c-0.3,0.4-0.1,1.5,0.3,1.9c1.4,1.4,2.9,2.8,4.4,4.1
			c1.8,1.5,2.4,1.5,4-0.2c4.4-4.5,4.4-4.5,4.4-10.7c0-1.2,0.1-2.5,0-3.7C-522.8-182.5-523.3-183.4-523.7-184.9z M-588.7-142.1
			c0.2,0.1,0.4,0.3,0.6,0.4c1.7-1.8,3.4-3.6,5.1-5.4c0.2-0.2,0.4-0.3,0.6-0.5c1.4-1.2,2.9-2.4,4.2-3.8c0.6-0.6,1.2-1.7,1-2.2
			c-1.3-3.1-4.1-4.9-6.7-6.9c-0.2-0.1-0.5,0-0.8,0c-1.5,0.4-4.2,3.6-4.2,5.1C-588.8-150.9-588.7-146.5-588.7-142.1z M-576.8-136.7
			c-1.1-1.2-2.2-2.6-3.5-3.8c-3-2.7-3.1-2.6-6.2-0.3c-0.4,0.3-0.9,0.6-1.2,1c-0.4,0.5-0.9,1.2-0.9,1.8c-0.1,3.6-0.1,7.2,0,10.8
			c0,0.5,0.3,1.4,0.6,1.5c0.5,0.1,1.4-0.1,1.8-0.4c3-2.8,5.8-5.8,8.7-8.7C-577.2-135.1-577.2-135.7-576.8-136.7z M-522.4-190.5
			c-0.6-0.3-1.3-0.9-1.9-1c-3-0.1-6.1,0.1-9.1-0.1c-2.3-0.2-3.8,0.7-5.1,2.5c-1.3,2-1.4,2.8,0.7,3.9c1.5,0.8,2.5,1.9,3.4,3.3
			c1.1,1.9,3,1.8,4.3,0.1c0.6-0.9,1.5-1.5,2.3-2.2c1.7-1.6,3.3-3.3,5-4.9C-522.7-189.2-522.7-189.7-522.4-190.5z M-522.7-152.7
			c-1.9,2.1-3.3,3.7-4.8,5.2c-1.4,1.4-2.8,2.9-4.4,4c-1.8,1.2-2,2-0.5,3.5c1.4,1.4,2.7,3,4.1,4.4c0.5,0.5,1.8,1.1,2,0.9
			c1.3-1.3,3.3-2.6,3.4-4.2C-522.4-143.2-522.7-147.7-522.7-152.7z M-539.3-191.5c-4.9,0-9.4,0-13.8,0.1c-0.5,0-1.1,0.8-1.5,1.3
			c-0.2,0.3,0,1.1,0.2,1.3c1.5,1.6,3.2,3,4.8,4.6c1.1,1.1,2.2,1,3.2,0.1C-544.1-186.4-541.9-188.8-539.3-191.5z M-580.2-167.7
			c-2.7-2.7-5.1-5.2-7.5-7.6c-0.4,0.1-0.7,0.2-1.1,0.3c0,5,0,10,0,15c0.2,0.1,0.4,0.3,0.6,0.4C-585.5-162.2-583-164.8-580.2-167.7z
			 M-588.7-178c1.3-0.9,2.5-1.5,3.5-2.4c1.3-1.3,2.4-2.9,3.8-4.2c1-1,0.8-1.8,0-2.6c-1.5-1.4-3-2.7-4.6-3.9
			c-1.2-0.9-2.6-0.4-2.6,1.1C-588.8-186.1-588.7-182.1-588.7-178z M-556.4-190.9c-0.1-0.1-0.2-0.2-0.4-0.4c-4.9,0-9.8,0-14.8,0
			c0.2,0.5,0.3,0.8,0.5,1c1.9,1.4,3.8,2.7,5,4.9c1,1.7,2.9,1.3,4-0.3c0.4-0.6,1-1.1,1.5-1.6C-559.2-188.5-557.8-189.7-556.4-190.9z
			 M-522.7-135.1c-3.3,3.3-6.3,6.3-9.7,9.7c3.2,0,5.7,0.1,8.2-0.1c0.5,0,1.4-0.9,1.4-1.4C-522.6-129.5-522.7-132.1-522.7-135.1z
			 M-584.1-126c0.1,0.1,0.3,0.3,0.4,0.4c3,0,6.1,0,8.1,0c-1-1.2-2.4-2.8-4-4.6C-581-129-582.6-127.5-584.1-126z M-583.5-191.4
			c4.3,4.7,5.2,5.3,8.5,0C-577.8-191.4-580.6-191.4-583.5-191.4z"/>
		<path class="st0" d="M-378.7-242.4c0,10.2,0,20.4,0,30.6c0,2.9-0.7,3.6-3.6,3.6c-20.5,0-40.9,0-61.4,0c-2.8,0-3.6-0.7-3.6-3.6
			c0-20.5,0-40.9,0-61.4c0-2.8,0.7-3.5,3.5-3.5c20.5,0,41.1,0,61.6,0c2.7,0,3.5,0.8,3.5,3.5C-378.7-263-378.7-252.7-378.7-242.4z
			 M-424.2-242.2c0,0,0,0.1,0,0.1c-2.9,0-5.7,0-8.6,0c-1.6,0-2.5,0.9-2.5,2.3c-0.1,2.2,0,4.3,0.1,6.5c0.1,1.7,0.9,2.4,2.8,2.4
			c5.7-0.2,11.3-0.1,17-0.3c0.7,0,1.8-0.9,1.9-1.5c0.4-2.4,0.5-4.8,0.6-7.3c0.1-1-0.2-1.7-1.5-1.7
			C-417.6-241.8-420.9-242-424.2-242.2z M-445.9-253.6c0,3.5,0,6.8,0,10.1c3.1,0,6,0,9,0c3.8,0,7.7,0,11.5,0.1c1.8,0,3-0.9,3.1-2.7
			c0.1-1.3-0.2-2.6,0.1-3.8c0.9-3.1,0-3.7-3.1-3.7c-5,0-10,0-15,0C-442.1-253.6-444-253.6-445.9-253.6z M-422.9-255.3
			c2.6,0,5.2-0.1,7.7,0c1.8,0.1,2.7-0.7,2.9-2.4c0.2-2.3,0.2-4.6,0.1-6.9c0-0.4-0.9-1.1-1.4-1.2c-2.4-0.2-4.7-0.3-7.1-0.3
			c-3.6,0-7.2,0.1-10.8,0.4c-2.2,0.2-2.8,1-2.7,3.2c0.1,1.4,0.2,2.8,0.3,4.2c0.3,2.3,0.9,2.9,3.3,3
			C-428.1-255.3-425.5-255.3-422.9-255.3z M-410.5-253.6C-410.5-253.6-410.5-253.6-410.5-253.6c-2.4,0-4.7,0.1-7.1,0
			c-1.8,0-2.8,0.7-2.7,2.6c0,1.4-0.2,2.8-0.3,4.2c-0.3,2.6,0.9,3.6,3.6,3.6c4.5-0.1,9-0.1,13.5-0.1c1.4,0,2.3-0.4,2.3-1.9
			c0.1-2.2,0.1-4.3,0.1-6.5c0-1.6-0.8-2.1-2.4-2C-405.9-253.5-408.2-253.6-410.5-253.6z M-411.6-209.6c8.3,0,16.3,0,24.3,0
			c0-2.1,0.1-4.1,0-6c-0.1-1.2-0.7-2-2.3-1.9c-4.3,0.2-8.5,0.3-12.8,0.3c-2.4,0-4.9-0.2-7.3-0.1c-0.6,0-1.7,0.9-1.7,1.4
			C-411.7-213.9-411.6-211.8-411.6-209.6z M-380.1-243.5c0-3.6,0-6.8,0-10c-5.9,0-11.6,0-17.2,0c-1.5,0-2.1,0.8-2.1,2.2
			c0,2.1-0.1,4.2,0,6.3c0,0.5,0.9,1.4,1.4,1.4C-392.1-243.5-386.1-243.5-380.1-243.5z M-413.3-209.6c-0.2-2.1-0.3-4.1-0.5-6.1
			c-0.1-1.2-0.7-1.7-2-1.7c-6.4,0-12.8-0.1-19.1-0.1c-1.1,0-1.7,0.4-1.8,1.6c-0.1,2.1-0.4,4.1-0.6,6.4
			C-429.4-209.6-421.6-209.6-413.3-209.6z M-395.8-255.6c2.1,0.4,2.9-0.3,2.9-2.4c0.1-1.8,0.3-3.7,0.2-5.5c0-1.4-0.6-2.7-2.4-2.6
			c-4.6,0.1-9.2,0.3-13.8,0.3c-1.2,0-1.8,0.5-1.8,1.7c0,1.8,0,3.6,0,5.4c0,3.2,0.8,3.8,4,3.6C-403-255.3-399.4-255.4-395.8-255.6z
			 M-411.4-241c0,2.7,0.1,5.3,0,7.9c-0.1,1.6,0.6,2,2,2c2.8-0.1,5.5,0.1,8.3,0c7.3-0.3,6.7,0.4,6.8-6.8c0-3.2,0-3.2-3.2-3.2
			c-0.6,0-1.2-0.1-1.8-0.2C-403.3-241.7-407.2-242.4-411.4-241z M-388.6-229.8c0,0.1,0,0.1,0,0.2c-2.1,0-4.2,0-6.3,0
			c-1.2,0-1.7,0.3-1.6,1.7c0.2,2,0.2,4.1,0.2,6.1c0,2.5,0.5,3.1,3.1,3c3.9-0.1,7.8-0.3,11.8-0.3c1.2,0,1.5-0.5,1.5-1.6
			c-0.1-2.2-0.1-4.5,0-6.7c0-1.7-0.8-2.3-2.4-2.3C-384.4-229.8-386.5-229.8-388.6-229.8z M-407.3-275.5c-0.2,2.1-0.5,3.9-0.5,5.8
			c-0.1,1.7,0.9,2.6,2.7,2.5c4.3-0.2,8.6-0.4,13-0.4c6.6-0.1,6.9-0.4,6-7c0-0.3-0.1-0.5-0.2-0.8
			C-393.5-275.5-400.4-275.5-407.3-275.5z M-406.9-229.6c-2,0-3.9,0.1-5.9,0c-1.7-0.1-2.2,0.6-2.1,2.1c0.1,2.3,0.1,4.6,0.4,6.9
			c0.1,0.5,1,1.4,1.5,1.4c4.3,0.1,8.7,0.1,13,0c0.6,0,1.7-0.9,1.7-1.4c0.1-2.4-0.1-4.9-0.2-7.3c-0.1-1.1-0.7-1.6-1.9-1.6
			C-402.6-229.5-404.8-229.6-406.9-229.6z M-424.6-219.3c0,0,0,0.1,0,0.1c1.9,0,3.8,0,5.7,0c1.3,0,2.1-0.6,2.1-1.9
			c-0.1-2.4-0.2-4.7-0.5-7.1c-0.1-0.5-0.9-1.3-1.4-1.3c-4.2-0.2-8.4-0.2-12.6-0.2c-0.6,0-1.5,1-1.6,1.6c-0.1,2.2,0.2,4.4,0.3,6.6
			c0.1,1.8,1.1,2.2,2.7,2.2C-428.1-219.4-426.4-219.3-424.6-219.3z M-380-241.9c-3.6,0-7.1-0.1-10.5,0.1c-0.7,0-1.8,0.8-1.9,1.4
			c-0.4,1.9-0.4,3.9-0.5,5.8c-0.2,3.3,0,3.4,3.2,3.1c1.1-0.1,2.2,0,3.2,0c2.1,0,4.3,0,6.4,0C-380-234.9-380-238.2-380-241.9z
			 M-380.1-255.6c0-3.4,0-6.7,0-10.2c-2.9,0-5.6,0.1-8.3,0c-2-0.1-2.8,0.8-2.8,2.5c0,2.4,0.1,4.9,0.4,7.3c0,0.4,0.9,1.1,1.4,1
			C-386.3-255.2-383.2-255.4-380.1-255.6z M-445.9-219.3c3,0,5.9-0.2,8.7,0.1c2,0.2,2.6-0.7,2.6-2.3c0-2.3-0.2-4.6-0.4-6.9
			c0-0.4-0.7-1.1-1.1-1.1c-3.2-0.1-6.5,0-9.8,0C-445.9-226.1-445.9-222.8-445.9-219.3z M-425.1-275.4c-4.8,0-9.3,0-14,0
			c0.2,2,0.3,3.9,0.5,5.7c0.2,2.2,1.3,2.9,3.5,2.6c2.8-0.3,5.6-0.6,8.4-0.6c1.2,0,1.9-0.3,1.9-1.5
			C-424.8-271.2-425-273.2-425.1-275.4z M-409.3-275.2c-0.4-0.2-0.6-0.3-0.7-0.3c-3,0-6,0-8.9,0c-4.8,0-5.1,0.4-4.2,5.2
			c0,0.2,0.1,0.4,0.1,0.6c0.2,1.9,1.3,2.5,3,2.5c2.8,0,5.5,0,8.3,0c1.4,0,2.1-0.6,2.2-2C-409.5-271.3-409.4-273.2-409.3-275.2z
			 M-445.9-255.3c3.1,0,6.1,0.1,9-0.1c0.7,0,1.8-1.1,1.8-1.7c0-2.5-0.3-5-0.6-7.4c-0.1-0.6-1-1.4-1.5-1.5c-2.9-0.1-5.8-0.1-8.7-0.1
			C-445.9-262.3-445.9-259.1-445.9-255.3z M-436.9-241.8c-3.2,0-6,0-9,0c0,3.4,0,6.9,0,10.2c2.3,0.1,4.5,0.2,6.7,0.3
			c1.2,0,2.2-0.4,2.2-1.8C-436.9-235.8-436.9-238.6-436.9-241.8z M-446-217.3c0,2.2-0.1,4.3,0.1,6.4c0,0.5,0.9,1.4,1.4,1.4
			c1.8,0.2,3.6,0.1,5.4,0.1c0.2-1.4,0.6-2.5,0.4-3.6c-0.5-4.2,0.4-4.6-4.2-4.5C-443.8-217.6-444.8-217.4-446-217.3z M-440.7-275.5
			c-1.3,0-2.6-0.1-3.9,0.1c-0.5,0.1-1.2,0.7-1.2,1.2c-0.1,2.3-0.1,4.6-0.1,6.8c1.1,0,1.9-0.1,2.8,0c2.1,0.2,2.8-0.5,2.8-2.7
			C-440.5-271.8-440.6-273.6-440.7-275.5z M-385.2-209.5c1.4,0,2.7,0.2,3.8-0.1c0.6-0.1,1.4-0.9,1.4-1.4c0.2-2.1,0.1-4.1,0.1-6.2
			c-0.7-0.1-1.3-0.2-1.8-0.2c-2.9-0.2-3.2,0.1-3.5,3C-385.3-212.8-385.2-211.3-385.2-209.5z M-379.9-268c0-1.2,0-2.5,0-3.8
			c0-3.9,0-3.9-3.9-3.6c-0.1,0-0.2,0.1-0.5,0.3c0,1.2,0,2.6,0,3.9c0.1,3.9,0.1,3.9,4.1,3.5C-380.2-267.8-380.2-267.8-379.9-268z"/>
		<path class="st0" d="M-555.7-40.2c-10.2,0-20.4,0-30.6,0c-3,0-3.7-0.7-3.7-3.7c0-20.4,0-40.8,0-61.2c0-2.9,0.7-3.6,3.6-3.6
			c20.5,0,40.9,0,61.4,0c2.8,0,3.6,0.7,3.6,3.6c0,20.5,0,40.9,0,61.4c0,2.7-0.8,3.5-3.5,3.5C-535.2-40.2-545.4-40.2-555.7-40.2z
			 M-544.1-74c3.2-0.1,5.6,0.3,7.8-1.9c3-3,5.2-5.8,4.7-10.4c-0.3-2.2-0.8-3.8-2.4-5.2c-1.2-1-2.3-2-3.5-3.1
			c-1.4-1.3-10-1.6-11.4-0.3c-1.7,1.5-3.4,3.1-5,4.7c-0.3,0.3-0.8,0.8-0.8,1.1c0.3,4-1.5,8.2,2.8,11.5
			C-549.3-75.4-547.1-73-544.1-74z M-543.3-72.4c-1.2,0-2.3-0.1-3.5,0c-0.8,0.1-1.8,0.3-2.4,0.8c-1.6,1.4-3.2,2.9-4.7,4.5
			c-0.5,0.6-0.9,1.5-1,2.3c-0.8,4.9,0.2,9,4.7,11.9c0.6,0.4,1,0.9,1.5,1.4c0.3,0.3,0.7,0.6,1,0.6c4.2-0.3,8.7,1.4,12.1-2.9
			c1.9-2.4,4.2-4.3,3.5-7.8c-0.1-0.5,0.2-1.1,0.2-1.6c0-1.1,0.3-2.6-0.3-3.1C-535.4-69.1-537.6-74-543.3-72.4z M-568.3-74.2
			c3.3,0.7,5.6-0.4,8.1-2.6c3.2-2.7,3.6-5.8,3.5-9.5c0-2.3-0.9-3.8-2.4-5.4c-2.8-3.2-6-4.3-10.2-4c-2.6,0.2-4.4,1.1-6.4,2.6
			c-3.4,2.6-4,5.8-3.9,9.7c0.1,2.3,0.8,3.9,2.4,5.4C-574.5-75.6-572.3-72.6-568.3-74.2z M-568.9-50.8c3-0.2,5.4,0.5,7.2-1.7
			c1.2-1.4,2.6-2.6,3.9-3.9c1.2-1.2,1.6-9.1,0.6-10.5c-0.2-0.3-0.5-0.5-0.7-0.7c-1.4-1.3-2.8-2.6-4.2-3.9c-0.4-0.4-1-1-1.5-1
			c-4.2,0.3-9-1.7-12.4,2.8c-1,1.3-3.1,2.4-3.2,3.7c-0.3,4.2-1.4,8.6,3.1,12C-573.6-52.1-571.5-50-568.9-50.8z M-532-107.4
			c-7.6,0-15.1,0-22.6,0c-0.7,2.7-0.1,4.7,2.2,6.3c0.9,0.6,1.8,1.5,2.5,2.4c1.2,1.4,2.7,1.6,4.5,1.8c4.6,0.5,8.3-0.7,11.5-4.3
			C-532.2-103.1-531.2-104.7-532-107.4z M-579.2-107.4c-0.8,2.8,0,4.8,2.2,6.4c0.7,0.5,1.2,1.1,1.7,1.7c1.6,1.6,3.4,2.2,5.7,2.4
			c4.6,0.4,7.9-1.1,11-4.5c1.7-1.9,2.1-3.7,1.7-6C-564.4-107.4-571.8-107.4-579.2-107.4z M-579.6-41.5c7.8,0,15.3,0,22.7,0
			c0.2-2.6-5.8-8.2-8.7-8.2c-7.3,0-7.3,0-13.1,6C-579.3-43.3-579.3-42.4-579.6-41.5z M-554.6-41.5c7.5,0,15,0,22.8,0
			c-0.6-3.6-3.9-4.9-5.9-7.1c-2.3-2.5-5.7-0.8-8.5-1.1C-548.6-49.9-554.7-43.8-554.6-41.5z M-588.6-50.3c2.6-2.5,4.7-4.5,6.8-6.6
			c0.2-0.2,0.3-0.7,0.4-1.1c0.3-5,0.7-10-4.8-12.8c-0.3-0.2-0.5-0.5-0.7-0.7c-0.5-0.4-1-0.7-1.7-1.1
			C-588.6-65.2-588.6-58.1-588.6-50.3z M-588.1-95.8c-0.2,0.1-0.3,0.2-0.5,0.4c0,7.1,0,14.2,0,21.9c1-0.9,1.7-1.5,2.4-2
			c4.1-2.7,5.7-6.4,4.8-11.2c-0.2-0.9,0.3-2.2-0.2-2.8C-583.6-91.7-585.9-93.7-588.1-95.8z M-522.8-95.9c-1.8,1.6-3.3,3-4.9,4.3
			c-1.6,1.3-2.1,2.9-2.3,5c-0.4,4.5,0.8,7.9,4.5,10.4c0.9,0.6,1.6,1.4,2.7,2.4C-522.8-81.2-522.8-88.3-522.8-95.9z M-522.7-72.9
			c-1.5,1.3-2.4,2.5-3.6,3.2c-3,2-4.1,4.7-3.6,8.3c0.2,1.3-0.4,3.1,0.3,4c1.9,2.4,4.3,4.4,6.9,7C-522.7-58.1-522.7-65.2-522.7-72.9z
			 M-525-50.3c-2.1-1.9-4.1-3.6-5.7-5.1c-1.8,1.6-3.8,3.3-5.9,5c2.1,2.1,4,3.9,5.7,5.6C-529-46.6-527.1-48.4-525-50.3z M-561.4-50.3
			c2,2,3.9,3.8,5.6,5.6c2-1.9,3.9-3.7,5.8-5.5c-2-2-3.9-3.8-5.7-5.6C-557.4-54-559.3-52.3-561.4-50.3z M-580.3-45.1
			c1.8-1.7,3.7-3.4,5.6-5.1c-2-2-3.8-3.9-5.4-5.6c-1.9,1.8-3.8,3.6-5.7,5.4C-583.9-48.5-582-46.7-580.3-45.1z M-536.2-96.5
			c1.8,1.9,3.6,3.7,5.4,5.6c1.9-1.9,3.6-3.7,5.2-5.2c-1.8-1.9-3.5-3.7-5.2-5.5C-532.7-99.8-534.5-98.1-536.2-96.5z M-580.4-78.9
			c-1.6,1.7-3.2,3.2-4.7,4.9c-0.3,0.3-0.4,1.3-0.1,1.5c1.6,1.7,3.3,3.2,4.5,4.4c2.2-1.8,4.1-3.4,6.1-5.1
			C-576.6-75.2-578.4-76.9-580.4-78.9z M-555.7-67.7c1.7-1.7,3.4-3.2,5-4.8c0.2-0.3,0.3-1.1,0.1-1.4c-1.5-1.8-3.1-3.5-4.5-5
			c-2.3,2.1-4.2,3.9-6,5.5C-559.2-71.5-557.5-69.6-555.7-67.7z M-531-78.4c-1.6,1.6-3.4,3.4-5.2,5.1c1.8,1.9,3.5,3.7,5.3,5.5
			c1.9-1.9,3.7-3.6,5.6-5.6C-527.1-75-529-76.7-531-78.4z M-561-96.5c1.8,1.9,3.5,3.8,5.3,5.7c1.8-1.7,3.5-3.2,5.1-4.8
			c0.2-0.2,0.4-1,0.2-1.2c-1.7-1.8-3.5-3.4-5.1-5C-557.5-99.8-559.3-98.1-561-96.5z M-574.9-96.2c-1.9-1.9-3.6-3.7-5.5-5.6
			c-1.8,1.9-3.6,3.7-5.4,5.5c1.8,1.9,3.5,3.8,5.2,5.6C-578.5-92.7-576.6-94.5-574.9-96.2z M-581.7-107.5c-1.9,0-3.9-0.1-5.8,0
			c-0.4,0-1.2,0.7-1.2,1c-0.1,3.1-0.1,6.2-0.1,9.3c0.2,0.1,0.3,0.2,0.5,0.3c1.4-1.2,2.6-2.6,4.1-3.7
			C-581.8-102.2-580.7-104.3-581.7-107.5z M-530-107.5c0.1,1.6-0.3,3.4,0.5,4.3c1.9,2.3,4.2,4.2,6.4,6.2c0.5-3.2,0.5-6.2,0.4-9.2
			c0-0.5-0.8-1.3-1.3-1.3C-525.9-107.6-527.8-107.5-530-107.5z M-581.5-41.4c0.1-2-5-7.5-7.3-8.1c0,2.3-0.1,4.5,0.1,6.7
			c0,0.5,0.9,1.3,1.4,1.4C-585.3-41.3-583.5-41.4-581.5-41.4z M-522.7-49.5c-0.2-0.1-0.4-0.1-0.5-0.2c-2.1,2.7-5.6,4.3-7,8.3
			c2.5,0,4.4,0.1,6.2-0.1c0.5,0,1.3-0.9,1.3-1.3C-522.6-45-522.7-47.3-522.7-49.5z"/>
		<path class="st0" d="M-412.9-192.7c10.2,0,20.4,0,30.6,0c3,0,3.7,0.7,3.7,3.7c0,20.4,0,40.8,0,61.2c0,2.9-0.7,3.6-3.6,3.6
			c-20.5,0-40.9,0-61.4,0c-2.9,0-3.6-0.7-3.6-3.6c0-20.5,0-40.9,0-61.4c0-2.8,0.7-3.5,3.5-3.5C-433.5-192.7-423.2-192.7-412.9-192.7
			z M-413.8-138.9c0-6.9,0-13.5,0-20.2c-6.9,0-13.7,0-20.4,0c0,6.8,0,13.5,0,20.2C-427.4-138.9-420.7-138.9-413.8-138.9z
			 M-434.3-181.6c0,6.8,0,13.5,0,20.2c6.9,0,13.7,0,20.5,0c0-6.8,0-13.5,0-20.2C-420.7-181.6-427.5-181.6-434.3-181.6z
			 M-391.5-138.9c0-6.7,0-13.4,0-20.2c-6.7,0-13.4,0-20.1,0c0,6.8,0,13.5,0,20.2C-404.8-138.9-398.2-138.9-391.5-138.9z
			 M-411.5-181.6c0,6.8,0,13.5,0,20.1c6.8,0,13.5,0,20.1,0c0-6.8,0-13.4,0-20.1C-398.1-181.6-404.8-181.6-411.5-181.6z
			 M-434.4-125.6c7,0,13.8,0,20.5,0c0-3.8,0-7.5,0-11.2c-6.9,0-13.7,0-20.5,0C-434.4-133-434.4-129.3-434.4-125.6z M-411.6-136.8
			c0,3.9,0,7.5,0,11.2c6.8,0,13.4,0,20.2,0c0-3.8,0-7.5,0-11.2C-398.2-136.8-404.8-136.8-411.6-136.8z M-445.9-161.5
			c3.4,0,6.5,0,9.7,0c0-6.8,0-13.5,0-20.1c-3.3,0-6.5,0-9.7,0C-445.9-174.8-445.9-168.2-445.9-161.5z M-445.8-159.2
			c0,6.8,0,13.5,0,20.2c3.3,0,6.4,0,9.6,0c0-6.8,0-13.5,0-20.2C-439.5-159.2-442.6-159.2-445.8-159.2z M-380-161.4
			c0-6.8,0-13.5,0-20.1c-3.1,0-6.1,0-9.1,0c0,6.8,0,13.4,0,20.1C-386.1-161.4-383.1-161.4-380-161.4z M-380-159.1
			c-3.2,0-6.1,0-9.1,0c0,6.8,0,13.5,0,20.2c3.1,0,6.1,0,9.1,0C-380-145.7-380-152.4-380-159.1z M-434.4-183.9c7,0,13.8,0,20.6,0
			c0-2.6,0-5,0-7.4c-6.9,0-13.7,0-20.6,0C-434.4-188.8-434.4-186.5-434.4-183.9z M-391.4-183.8c0-2.7,0-5.1,0-7.5
			c-6.8,0-13.5,0-20.1,0c0,2.6,0,5,0,7.5C-404.8-183.8-398.2-183.8-391.4-183.8z M-436.2-125.4c0-3.9,0-7.6,0-11.3
			c-3.3,0-6.4,0-9.8,0c0,3.4-0.1,6.6,0.1,9.9c0,0.5,0.9,1.4,1.4,1.4C-441.8-125.4-439.1-125.4-436.2-125.4z M-389.1-136.8
			c0,3.9,0,7.6,0,11.4c2.6,0,5.1,0.1,7.6-0.1c0.5,0,1.5-0.7,1.5-1.2c0.1-3.4,0.1-6.7,0.1-10.2C-383.1-136.8-386-136.8-389.1-136.8z
			 M-436.2-191.5c-2.9,0-5.7,0-8.6,0c-0.4,0-1.2,0.6-1.2,1c-0.1,2.2-0.1,4.4-0.1,6.5c3.5,0,6.6,0,9.8,0
			C-436.2-186.5-436.2-188.9-436.2-191.5z M-379.9-183.8c0-2.2,0.1-4.2-0.1-6.1c0-0.5-0.7-1.5-1.2-1.5c-2.7-0.1-5.4-0.1-8-0.1
			c0,2.7,0,5.1,0,7.7C-386.1-183.8-383.1-183.8-379.9-183.8z"/>
		<path class="st0" d="M-626.9-108.7c10.1,0,20.3,0,30.4,0c3,0,3.7,0.7,3.7,3.7c0,20.4,0,40.8,0,61.2c0,2.9-0.7,3.6-3.6,3.6
			c-20.5,0-40.9,0-61.4,0c-2.9,0-3.6-0.7-3.6-3.6c0-20.5,0-40.9,0-61.4c0-2.8,0.7-3.5,3.5-3.5C-647.5-108.7-637.2-108.7-626.9-108.7
			z M-627.9-75.9c-3.3,3-6.8,6.3-10.1,9.3c3.5,3.6,6.9,7,10.2,10.4c3.3-3.3,6.6-6.6,10.1-10C-621.1-69.5-624.7-72.8-627.9-75.9z
			 M-617.8-88.8c-3.4-3.4-6.8-6.9-10-10.1c-3.3,3.3-6.8,6.7-9.8,9.7c3.3,3.3,6.7,6.8,9.9,10.1C-624.5-82.4-621.1-85.7-617.8-88.8z
			 M-629.3-54.8c-3.3-3.3-6.8-6.7-10.1-10.1c-3.3,3.3-6.7,6.6-9.9,9.8c3.4,3.4,6.8,6.8,10.1,10.2C-635.9-48.1-632.5-51.5-629.3-54.8
			z M-616.5-87.6c-3.4,3.3-6.7,6.7-9.9,9.9c3.3,3.3,6.8,6.8,10,10c3.4-3.2,6.9-6.5,10.2-9.6C-609.8-80.9-613.3-84.3-616.5-87.6z
			 M-629.8-77.8c-3-3-6.4-6.5-9.6-9.8c-3.2,3.2-6.6,6.5-10.1,9.9c3.5,3.3,6.9,6.6,10.6,10.1C-635.9-70.9-632.8-74.5-629.8-77.8z
			 M-616.4-44.8c3.3-3.3,6.7-6.7,9.9-10c-3.3-3.3-6.8-6.8-10-10c-3.3,3.3-6.7,6.6-10,9.9C-623.2-51.6-619.8-48.2-616.4-44.8z
			 M-615-89.3c3.4,3.5,6.8,6.9,10,10.2c3.3-3.3,6.6-6.6,9.9-9.8c-3.3-3.3-6.8-6.8-10.1-10.1C-608.5-95.8-611.9-92.5-615-89.3z
			 M-614.9-66.4c3.3,3.3,6.7,6.8,9.9,10c3.3-3.2,6.6-6.6,9.9-9.8c-3.4-3.3-6.8-6.7-10.5-10.3C-608.7-73.1-611.9-69.6-614.9-66.4z
			 M-651-99.4c-2.8,2.8-5.8,5.7-8.5,8.8c-0.5,0.5-0.6,2.2-0.2,2.7c2.9,3.1,5.9,6.1,8.5,8.7c3.6-3.6,7-6.9,10.2-10.1
			C-644.2-92.5-647.5-95.8-651-99.4z M-651-56.2c3.6-3.6,6.9-6.9,10.2-10.2c-3.3-3.2-6.7-6.6-10.1-9.9c-2.8,2.8-5.9,5.6-8.7,8.6
			c-0.5,0.5-0.5,2.3,0,2.8C-656.8-61.8-653.8-59-651-56.2z M-626.5-100.9c3.6,3.7,6.9,7.1,10.1,10.4c3.3-3.3,6.7-6.6,10.4-10.3
			c-1.1-1-2.5-1.8-3.4-3c-2.4-3.3-5.5-4.3-9.4-3.7c-0.6,0.1-1.3,0.2-1.7,0.5C-622.6-104.9-624.7-102.8-626.5-100.9z M-649.6-100.8
			c3.6,3.6,6.9,7,10.2,10.4c3.3-3.4,6.6-6.8,10.2-10.5c-0.9-0.8-2.2-1.7-3.1-2.9c-2.4-3.3-5.5-4.3-9.4-3.7c-0.6,0.1-1.3,0.2-1.7,0.5
			C-645.4-104.9-647.5-102.8-649.6-100.8z M-628-53.5c-3.3,3.3-6.7,6.7-10.1,10.1c0.8,1.4,2,2.1,3.9,2.1c4.3-0.1,8.7-0.1,13,0
			c1.7,0,2.8-0.7,3.5-1.9C-621.2-46.8-624.6-50.2-628-53.5z M-605-53.3c-3.4,3.3-6.8,6.6-10.2,10c0.9,1.4,2.1,2,3.9,1.9
			c4.2-0.1,8.4-0.1,12.6,0c1.8,0.1,3-0.5,3.7-1.9C-598.4-46.7-601.8-50.1-605-53.3z M-651-53.7c-2.8,2.8-5.8,5.7-8.6,8.7
			c-0.5,0.5-0.6,1.8-0.4,2.4c0.3,0.6,1.3,1.1,2.1,1.1c4.6,0.1,9.2,0,13.8,0.1c1.7,0,2.8-0.6,3.5-1.9
			C-643.9-46.7-647.3-50.1-651-53.7z M-594-67.9c0-6.3,0-12.5,0-18.7c0-0.2-0.1-0.3-0.1-0.3c-3.2,3.1-6.4,6.3-9.6,9.6
			C-600.7-74.3-597.4-71.2-594-67.9z M-594-64.3c-3.4,3.3-6.5,6.5-9.6,9.5c3.1,3.1,6.3,6.2,9.6,9.6c0-0.5,0-0.9,0-1.4
			C-594-52.5-594-58.4-594-64.3z M-604.1-100.9c3.4,3.4,6.7,6.7,10,10c0-4.7,0-9.4,0-14.2c0-0.8-0.4-2.2-0.7-2.2
			c-1-0.1-2.4,0-3.1,0.6C-600.1-104.9-602.1-102.8-604.1-100.9z M-660-47.3c2.7-2.6,5.3-5.2,7.4-7.3c-2.5-2.6-5-5.3-7.4-7.8
			C-660-57.5-660-52.3-660-47.3z M-652.2-77.3c-2.7-2.8-5.3-5.5-7.7-8.1c0,5.1,0,10.3,0,15.4C-657.3-72.5-654.6-75.1-652.2-77.3z
			 M-651.9-100.9c-2-1.9-4.1-4-6.2-6.1c-1-0.9-1.9-0.7-1.9,0.7c-0.1,4.5,0,9,0,13.6C-657.4-95.4-654.7-98.1-651.9-100.9z
			 M-610.3-107.4c1.8,1.8,3.7,3.7,5.1,5.1c1.8-1.6,3.7-3.4,5.5-5.1C-603.2-107.4-606.9-107.4-610.3-107.4z M-645-107.3
			c-3.9,0-7.5,0-10.8,0c1.7,1.7,3.5,3.6,5.3,5.5C-648.8-103.6-647-105.3-645-107.3z M-633.6-107.4c2,2,3.8,3.7,5.5,5.4
			c1.7-1.7,3.6-3.6,5.3-5.4C-626.2-107.4-629.7-107.4-633.6-107.4z"/>
		<path class="st0" d="M-412.9-40.2c-10.2,0-20.4,0-30.6,0c-3,0-3.7-0.7-3.7-3.7c0-20.4,0-40.8,0-61.2c0-2.9,0.7-3.6,3.6-3.6
			c20.5,0,40.9,0,61.4,0c2.8,0,3.6,0.7,3.6,3.6c0,20.5,0,40.9,0,61.4c0,2.7-0.8,3.5-3.5,3.5C-392.4-40.2-402.7-40.2-412.9-40.2z
			 M-394.7-57c0.4-2.3,0-3.8-2.1-5.2c-3.4-2.3-6.1-2.7-9.5-0.1c-1.7,1.3-2.6,2.2-2.7,4.5c-0.1,2.9,0.7,4.4,3.4,5.9c3,1.7,5,2,7.9,0
			C-395.7-53.3-393.6-54.3-394.7-57z M-394.7-89.7c1-2.9-0.5-4.4-3.1-5.2c-0.3-0.1-0.6-0.3-0.9-0.5c-1.8-1.4-3.4-1.3-5.6-0.2
			c-3.5,1.7-5.3,3.7-4.6,7.8c0.2,1.3,0.6,2.1,1.6,2.7c1,0.6,2.1,0.9,3,1.6c1.9,1.6,3.6,1.4,5.4-0.1c0.4-0.3,0.8-0.5,1.2-0.7
			C-395.1-85.2-393.8-86.8-394.7-89.7z M-394.7-73.3c0.8-2.5-0.5-3.7-2.5-5.2c-3.3-2.4-5.9-1.9-9,0.1c-1.9,1.2-2.7,2.3-2.8,4.6
			c0,2.8,0.8,4.2,3.2,5.7c3,1.8,5.1,2.2,8.2,0.1C-395.6-69.5-393.8-70.5-394.7-73.3z M-417.1-57.2c0.6-2.5-0.4-3.7-2.4-5.2
			c-3.3-2.4-5.8-2.3-8.9,0.1c-1.4,1.1-2.2,1.9-2.5,3.8c-0.5,3.9,1.2,5.7,4.4,7.4c2.2,1.2,3.7,1.2,5.5-0.2c0.3-0.3,0.6-0.6,1-0.7
			C-417.5-52.8-416.3-54.5-417.1-57.2z M-431.1-73.5c0.2,1.3,0,3.1,0.7,3.8c1.9,1.5,4.2,3.5,6.4,3.5c2.2,0,4.5-2.1,6.6-3.5
			c0.5-0.3,0.4-1.6,0.4-2.4c0-1.6,0.4-4-0.5-4.8c-1.8-1.7-4.3-3.5-6.5-3.5c-2.1,0-4.5,1.9-6.4,3.4
			C-431.1-76.5-430.9-74.8-431.1-73.5z M-416.8-89.5c-0.2-1.3,0-3.1-0.8-3.7c-1.7-1.5-3.8-2.4-5.9-3.4c-0.4-0.2-1.1,0-1.5,0.2
			c-1.7,0.9-3.4,1.9-5,2.9c-0.3,0.2-0.8,0.5-0.8,0.7c-0.1,2.2-0.3,4.4,0.1,6.5c0.1,0.8,1.7,1.2,2.6,1.9c2.8,2.4,5.2,2.3,8.4,0.2
			C-417.6-85.7-416.5-87-416.8-89.5z M-425.1-65.4c-7.4-5.6-13.7-4.9-20.1,0C-438.6-59.8-431.8-59.8-425.1-65.4z M-380.3-65.4
			c-7.8-5.9-14.3-4.6-20,0C-393.8-59.6-387-59.9-380.3-65.4z M-422.8-65.4c6.6,5.5,13.3,5.7,19.9,0
			C-409.2-70.5-415.6-70.9-422.8-65.4z M-380.2-97.4c-6.7-5.2-13.6-5.4-20.3,0C-393.4-92.5-388.7-91.7-380.2-97.4z M-445.4-97.4
			c8.1,5.4,12.9,5.3,20.3,0C-431.9-102.8-438.7-102.7-445.4-97.4z M-400.6-81.5c6.6,5.3,13.6,5.4,20.4,0
			C-385.8-86-393.5-87-400.6-81.5z M-394.4-107.3c-5.1,0-9.7,0-14.6,0c0.1,1.9-0.4,4.4,0.5,5.3c1.8,1.8,4.4,3.6,6.7,3.6
			c2.2,0,4.9-1.8,6.6-3.5C-394.1-102.9-394.6-105.4-394.4-107.3z M-425-81.4c-5.8-5.2-14.5-5.2-20.3-0.1
			C-439.9-77.5-434-75.1-425-81.4z M-422.8-97.5c6.6,5.3,13.3,5.5,20,0C-409.5-102.8-416.2-102.7-422.8-97.5z M-423-81.6
			c6.6,5.3,13.8,5.5,20.2,0.1C-407.2-85.3-414.5-87.7-423-81.6z M-445.4-49.3c6.7,5.3,13.7,5.3,20.2,0
			C-431.6-54.2-438.5-54.4-445.4-49.3z M-400.5-49.3c7.1,5.8,14.6,4.7,20.1,0C-387-54.4-393.8-54.3-400.5-49.3z M-422.9-49.3
			c6.9,5.6,14.1,5.1,20.1-0.1C-409.5-54.4-416.3-54.2-422.9-49.3z M-416.7-107.4c-5.1,0-9.6,0-14.6,0c0.4,2.1,0.1,4.6,1.2,5.9
			c1.4,1.6,4,3.2,6,3.2c2.1,0,4.6-1.6,6-3.2C-416.8-102.8-417.1-105.3-416.7-107.4z M-394.8-41.5c0.4-3.2,0.2-2.9-2.2-4.7
			c-3.6-2.8-6.5-2-9.8,0.3c-1.8,1.2-2.5,2.3-1.9,4.4C-404-41.5-399.4-41.5-394.8-41.5z M-417.3-41.5c1-2.7-0.3-4-2.5-4.8
			c-0.4-0.2-0.8-0.5-1.2-0.8c-1.8-1.1-3.6-2.1-5.6-0.3c-0.6,0.5-1.4,0.9-2.1,1.3c-2.6,1.4-2.6,1.4-2,4.6
			C-426.2-41.5-421.7-41.5-417.3-41.5z M-445.9-50.3c4.5-1.4,7.8-3.7,6.5-9c-0.2-0.8-0.6-1.8-1.2-2.2c-1.6-1.1-3.4-2-5.2-3
			C-445.9-59.6-445.9-55-445.9-50.3z M-445.9-80.7c0,5,0,9.6,0,14.5c1.9-1.1,3.7-2.1,5.5-3.2c0.4-0.2,0.9-0.6,0.9-0.9
			c0.1-2.1,0.3-4.3-0.1-6.3c-0.2-0.9-1.9-1.4-3-2.1C-443.6-79.3-444.6-79.9-445.9-80.7z M-445.8-96.6c0,4.8,0,9.5,0,14.2
			c1.7-0.9,3.3-1.7,4.8-2.6c1.1-0.6,1.5-1.4,1.7-2.8c0.4-3.9-0.5-6.7-4.6-7.8C-444.6-95.8-445.1-96.2-445.8-96.6z M-380-64.4
			c-1.9,1.1-3.6,2.1-5.2,3.1c-0.3,0.2-0.8,0.7-0.8,1c-0.1,2-0.1,4.1,0,6.1c0,0.3,0.2,0.7,0.5,0.8c1.8,1,3.6,2,5.5,3.1
			C-380-55-380-59.6-380-64.4z M-380-80.4c-1.6,0.9-3,1.6-4.4,2.4c-1.1,0.7-1.7,1.5-1.7,3c0.1,5.4,0.1,5.4,4.9,8
			c0.3,0.2,0.7,0.4,1.2,0.6C-380-71.1-380-75.6-380-80.4z M-380.1-82.5c0-4.7,0-9.3,0-14.2c-2.3,2.3-6.2,2-6.2,7
			C-386.3-84.8-382.8-84.5-380.1-82.5z M-409.4-86.1c0-2.3,0-4.5,0-6.8c-2.3,0-4.5,0-6.7,0c0,2.3,0,4.5,0,6.8
			C-413.8-86.1-411.6-86.1-409.4-86.1z M-438.6-86.3c6.4,1,7.1,0.5,6.8-5.3c0-0.1,0-0.3,0-0.4c-0.3-0.4-0.6-1-0.9-1
			c-1.9-0.1-3.8,0-5.7,0c-0.1,0.5-0.1,0.9-0.1,1.2C-438.6-90-438.6-88.2-438.6-86.3z M-393.7-86.2c6.6,0.8,7.1,0.3,6.7-5.5
			c0-0.1,0-0.3,0-0.4c-0.3-0.3-0.7-0.9-1-0.9c-1.9-0.1-3.8,0-5.7,0C-393.7-90.6-393.7-88.5-393.7-86.2z M-439.6-107.5
			c-1.7,0-3.3-0.1-4.9,0.1c-0.5,0.1-1.4,0.8-1.4,1.2c-0.1,2.6-0.1,5.2-0.1,7.9c0.7-0.4,1.3-0.6,1.8-0.9c5-2.4,5-2.4,4.7-7.8
			C-439.5-107.1-439.5-107.1-439.6-107.5z M-438.5-70.1c2.3,0,4.4,0,6.6,0c0-2.3,0-4.4,0-6.7c-2.2,0-4.4,0-6.6,0
			C-438.5-74.5-438.5-72.4-438.5-70.1z M-409.4-70c0-2.4,0-4.5,0-6.7c-2.3,0-4.5,0-6.7,0c0,2.3,0,4.5,0,6.7
			C-413.8-70-411.6-70-409.4-70z M-393.7-70.1c2.2,0,4.4,0,6.6,0c0-2.3,0-4.5,0-6.6c-2.3,0-4.4,0-6.6,0
			C-393.7-74.5-393.7-72.4-393.7-70.1z M-438.5-60.6c0,2.2,0,4.5,0,6.8c2.2,0,4.3,0,6.5,0c0-2.3,0-4.5,0-6.8
			C-434.2-60.6-436.2-60.6-438.5-60.6z M-416.1-53.8c2.4,0,4.5,0,6.7,0c0-2.4,0-4.6,0-6.8c-2.3,0-4.4,0-6.7,0
			C-416.1-58.2-416.1-56.1-416.1-53.8z M-387.1-60.6c-2.2,0-4.4,0-6.5,0c0,2.4,0,4.6,0,6.8c2.2,0,4.3,0,6.5,0
			C-387.1-56-387.1-58.2-387.1-60.6z M-386-107.3c0,1.6,0,3,0,4.5c0,0.5,0.3,1.1,0.6,1.3c1.7,1,3.5,1.9,5.5,2.9c0-1.4,0-2.6,0-3.7
			c-0.1-6,1.2-5.2-5.5-5.2C-385.5-107.5-385.6-107.4-386-107.3z M-393.7-102.3c2.3,0,4.4,0,6.6,0c0-1.8,0-3.4,0-5.1
			c-2.3,0-4.4,0-6.6,0C-393.7-105.6-393.7-104-393.7-102.3z M-416.1-102.3c2.4,0,4.6,0,6.8,0c0-1.8,0-3.4,0-5c-2.3,0-4.5,0-6.8,0
			C-416.1-105.6-416.1-104-416.1-102.3z M-432-107.3c-2.3,0-4.5,0-6.6,0c0,1.8,0,3.4,0,5c2.2,0,4.3,0,6.6,0
			C-432-104-432-105.6-432-107.3z M-446-48.5c0,2.1-0.1,3.9,0,5.6c0,0.5,0.6,1.3,1,1.4c1.8,0.2,3.6,0.1,5.1,0.1
			c1-2.7-0.3-3.9-2.3-4.8C-443.3-46.8-444.4-47.6-446-48.5z M-385.8-41.4c1.5,0,3,0.1,4.5-0.1c0.5-0.1,1.2-0.8,1.3-1.4
			c0.2-1.7,0.1-3.4,0.1-5.5c-1.4,0.8-2.4,1.6-3.6,2C-385.9-45.4-386.5-43.9-385.8-41.4z M-438.5-44.6c0,1.1,0,2.1,0,3
			c2.3,0,4.4,0,6.5,0c0-1.1,0-2,0-3C-434.2-44.6-436.3-44.6-438.5-44.6z M-409.4-44.6c-2.3,0-4.5,0-6.7,0c0,1.1,0,2,0,3
			c2.3,0,4.5,0,6.7,0C-409.4-42.6-409.4-43.5-409.4-44.6z M-393.7-41.5c2.3,0,4.4,0,6.6,0c0-1.1,0-2.1,0-3c-2.3,0-4.4,0-6.6,0
			C-393.7-43.5-393.7-42.6-393.7-41.5z"/>
		<path class="st0" d="M-518.6-74.6c0-10.2,0-20.4,0-30.6c0-2.9,0.7-3.6,3.6-3.6c20.5,0,40.9,0,61.4,0c2.7,0,3.5,0.8,3.5,3.5
			c0,20.5,0,41.1,0,61.6c0,2.7-0.8,3.5-3.5,3.5c-20.5,0-40.9,0-61.4,0c-2.9,0-3.6-0.7-3.6-3.6C-518.6-54-518.6-64.3-518.6-74.6z
			 M-479.8-50c-0.3,0.5-0.5,1.1-0.8,1.6c2.6,0,5.1,0,7.2,0c-1.1-1.2-2.3-2.6-3.5-3.8C-477.9-51.5-478.9-50.7-479.8-50
			c0.7-1,1.5-2,2.2-2.8c-2.2-2.2-4.3-4.4-6.3-6.5c-2.1,2.1-4.3,4.2-6.8,6.6c0.9,0.8,1.9,1.4,2.7,2.2c1.4,1.6,2.9,2.8,5.1,2.1
			C-481.9-48.6-480.9-49.4-479.8-50z M-461.8-68c0.1,2.5,2.5,2.9,3.8,4.4c0-2.4,0-4.9,0-7.5C-459.4-70-460.7-68.9-461.8-68
			c0.6-0.8,1.4-1.6,2.1-2.5c0.7-1.1,1.5-2.2,1.8-3.4c0.5-1.6-0.2-3-1.6-4.1c-1.2-0.9-2.5-1.8-3.7-2.7c-0.1-0.4,0-0.9-0.2-1.1
			c-2-2.1-4.1-4.2-6.1-6.2c-2.4,2.2-4.5,4.3-6.6,6.3c2.3,2.3,4.5,4.5,6.7,6.7c1.3-1.2,2.6-2.5,4-3.8c-1.2,1.5-2.3,3.1-3.8,5
			c1.8,1.7,3.8,3.6,5.8,5.4C-463.1-68.2-462.4-68.2-461.8-68z M-509.7-86c1.5,1.3,3,2.7,4.2,3.8c2.3-2.2,4.5-4.2,6.5-6.2
			c-2.2-2.2-4.3-4.3-6.7-6.7c-1,1.1-1.9,2.4-3.1,3.3C-510.7-90.3-510.7-87.9-509.7-86c-0.2,0.3-0.6,0.5-0.6,0.8c0,2.6,0,5.3,0,7.9
			c1.6-1.5,3-2.8,4.4-4.1C-507.2-83-508.5-84.5-509.7-86z M-463.4-66.6c0-0.3,0.2-0.7,0.1-0.8c-2.1-2.1-4.3-4.2-6.1-6
			c-2.3,2.1-4.5,4.2-6.6,6.2c1.9,1.9,3.7,3.8,5.6,5.7c0.3,0.3,0.9,0.4,1.4,0.6c0.1,0.4,0.1,0.9,0.3,1.1c2,2.1,4,4.2,6.3,6.6
			c1.1-1.3,1.8-2.3,2.7-3.2c2.7-2.8,2.8-5-0.1-7.7C-460.9-65-462.2-65.7-463.4-66.6z M-511.1-74.7c0-5.7,0-11.3,0-16.8
			c-2.1,0-4.1,0-6.2,0c0,5.7,0,11.2,0,16.8C-515.2-74.7-513.2-74.7-511.1-74.7z M-511.1-57.1c0-5.5,0-11,0-16.6c-2.1,0-4.1,0-6.1,0
			c0,5.6,0,11.1,0,16.6C-515.2-57.1-513.2-57.1-511.1-57.1z M-457.2-74.7c2,0,3.9,0,5.8,0c0-5.7,0-11.3,0-16.8c-2,0-3.9,0-5.8,0
			C-457.2-85.9-457.2-80.4-457.2-74.7z M-484.5-107.3c-5.7,0-11.2,0-16.7,0c0,2,0,3.9,0,5.8c5.6,0,11.1,0,16.7,0
			C-484.5-103.5-484.5-105.3-484.5-107.3z M-501.2-41.5c5.7,0,11.1,0,16.7,0c0-2,0-3.8,0-5.8c-5.6,0-11.1,0-16.7,0
			C-501.2-45.3-501.2-43.5-501.2-41.5z M-451.4-57.1c0-5.7,0-11.1,0-16.6c-2,0-3.9,0-5.8,0c0,5.6,0,11.1,0,16.6
			C-455.1-57.1-453.3-57.1-451.4-57.1z M-466.8-107.3c-5.6,0-11.1,0-16.6,0c0,2,0,3.9,0,5.8c5.6,0,11.1,0,16.6,0
			C-466.8-103.5-466.8-105.4-466.8-107.3z M-466.8-47.3c-5.7,0-11.1,0-16.7,0c0,2,0,3.8,0,5.8c5.6,0,11.1,0,16.7,0
			C-466.8-43.5-466.8-45.3-466.8-47.3z M-476.7-80.7c-2.2,2.2-4.4,4.3-6.4,6.3c2.1,2.2,4.2,4.4,6.2,6.6c2.2-2.2,4.3-4.4,6.4-6.5
			C-472.5-76.5-474.7-78.7-476.7-80.7z M-477.1-82.5c2.2-2.1,4.5-4.2,6.5-6.1c-2.2-2.2-4.3-4.4-6.2-6.3c-2.1,2.1-4.3,4.2-6.5,6.3
			C-481.2-86.5-479.1-84.4-477.1-82.5z M-497.8-87.6c-2.4,2.1-4.7,4.1-6.8,6c2.3,2.3,4.4,4.5,6,6.2c2.2-2.1,4.4-4.2,6.6-6.4
			C-493.9-83.8-496-85.8-497.8-87.6z M-490.2-67.4c2.1,2.2,4.2,4.5,6.2,6.5c2.2-2.1,4.3-4.2,6.3-6.2c-2.1-2.1-4.2-4.3-6.3-6.5
			C-486.2-71.4-488.3-69.3-490.2-67.4z M-484.9-59.9c-2.1-2.2-4.2-4.5-6.1-6.6c-2.3,2.2-4.4,4.3-6.4,6.3c2.1,2.2,4.3,4.4,6.3,6.5
			C-488.9-55.8-486.8-58-484.9-59.9z M-477.7-81.7c-2.1-2.1-4.2-4.3-6.3-6.4c-2.2,2.2-4.4,4.3-6.6,6.4c2.2,2.2,4.4,4.3,6.5,6.4
			C-481.9-77.3-479.8-79.5-477.7-81.7z M-491.1-80.5c-2.2,2.1-4.4,4.2-6.2,6c2.1,2.2,4.2,4.4,6.2,6.6c2.1-2.1,4.2-4.2,6.2-6.3
			C-486.9-76.4-489.1-78.5-491.1-80.5z M-483.1-60.2c2.1,2.1,4.2,4.3,6.2,6.4c2.2-2.1,4.3-4.2,6.3-6.1c-2.1-2.2-4.2-4.4-6.3-6.7
			C-479.1-64.4-481.1-62.2-483.1-60.2z M-505.5-81c-1.4,1.5-3.1,2.8-4.1,4.5c-0.6,1.1-0.8,3.1-0.2,4.2c1,1.8,2.7,3.2,4,4.7
			c2.5-2.5,4.6-4.7,6.8-6.8C-501-76.5-503.1-78.7-505.5-81z M-498.3-60.9c2.1-2.2,4.2-4.3,6.2-6.4c-2-2-4.1-4.2-6-6.2
			c-2.2,2.1-4.4,4.2-6.4,6.2C-502.4-65.2-500.4-63-498.3-60.9z M-462.5-95c-2.3,2.2-4.5,4.3-6.8,6.4c2.2,2.2,4.4,4.3,6.6,6.4
			C-456.9-86.8-455.3-89.1-462.5-95z M-497.5-88.6c2.2,2.2,4.3,4.3,6.2,6.1c2.2-2.1,4.4-4.1,6.5-6.2c-2.1-2.1-4.2-4.2-6.2-6.3
			C-493.1-93-495.2-90.8-497.5-88.6z M-463.4-95.8c-5.4-7-8-6.2-12.5-0.3c2.1,2.2,4.2,4.4,6.2,6.3
			C-467.7-91.7-465.6-93.7-463.4-95.8z M-469.7-59.5c-1.2,1.2-2.3,2.2-3.4,3.2c-1.1,1-2.2,2.1-3.3,3.1c6.3,7.9,8.9,5.6,13,0.1
			C-465.5-55.2-467.6-57.3-469.7-59.5z M-504.4-96c2.2,2.3,4.2,4.4,6.1,6.4c2.3-2.2,4.4-4.3,6.6-6.4
			C-497-102.1-498.9-102.5-504.4-96z M-477.5-95.9c-6.1-7.4-8.5-5.4-12.6-0.1c2.1,2.2,4.2,4.4,6.3,6.5
			C-481.8-91.6-479.7-93.7-477.5-95.9z M-498-59.3c-2.3,2.2-4.4,4.3-6.6,6.4c6,7.6,8.6,5.4,12.8-0.2C-493.9-55.2-496-57.3-498-59.3z
			 M-498.9-60.1c-2.2-2.3-4.2-4.4-6.8-7.1c-1.4,1.7-3.1,3.1-4,4.9c-0.6,1.1-0.6,3,0,4.1c1,1.8,2.7,3.2,4.2,4.7
			C-503.2-55.8-501.1-57.9-498.9-60.1z M-516.8-107c-0.1,0.1-0.3,0.2-0.4,0.4c0,4.7,0,9.4,0,14.1c2.1,0,4.1,0,6.2,0
			c0-2.7,0-5.2,0-7.8c0-0.3-0.2-0.7-0.4-0.9C-513.1-103.2-514.9-105.1-516.8-107z M-517.2-42.1c0.2,0.2,0.4,0.3,0.6,0.5
			c1.4-1.6,2.7-3.1,4.1-4.7c0.5-0.6,1.4-1.2,1.5-1.9c0.2-2.6,0.1-5.2,0.1-7.8c-2.3,0-4.3,0-6.3,0C-517.2-51.3-517.2-46.7-517.2-42.1
			z M-515.9-107.4c-0.1,0.2-0.2,0.3-0.3,0.5c1.8,1.7,3.6,3.4,5.4,5c0.3,0.2,0.7,0.4,1.1,0.5c2.5,0,5.1,0,7.7,0c0-2.2,0-4.1,0-6
			C-506.8-107.4-511.4-107.4-515.9-107.4z M-465.9-101.4c2.6,0,5,0,7.4,0c0.4,0,0.9-0.1,1.1-0.3c1.9-1.7,3.7-3.5,5.9-5.7
			c-5.2,0-9.8,0-14.4,0C-465.9-105.4-465.9-103.5-465.9-101.4z M-452.2-41.4c0.1-0.2,0.1-0.3,0.2-0.5c-1.7-1.7-3.4-3.3-5.1-4.9
			c-0.3-0.3-0.8-0.6-1.2-0.6c-2.5-0.1-5,0-7.5,0c0,2.1,0,4,0,6c0.5,0,0.9,0.1,1.3,0.1C-460.5-41.4-456.3-41.4-452.2-41.4z
			 M-502-41.5c0-2,0-3.9,0-5.7c-6.5-1.2-10.9,0.6-13.8,5.7C-511.3-41.5-506.8-41.5-502-41.5z M-451.5-92.5c0-4.7,0-9.2,0-14.2
			c-2,2.1-3.6,3.8-5.2,5.5c-0.3,0.3-0.6,0.7-0.6,1c0,2.5,0,5.1,0,7.7C-455.2-92.5-453.4-92.5-451.5-92.5z M-451.5-42.3
			c0-4.8,0-9.3,0-13.8c-2,0-3.9,0-5.8,0c0,2.5,0,4.8,0,7.1c0,0.5,0.3,1,0.6,1.4C-455-45.9-453.4-44.2-451.5-42.3z M-506.2-95.5
			c-1.3-1.4-2.5-2.8-3.9-4.4c0,2.9,0,5.6,0,8.6C-508.7-92.9-507.4-94.3-506.2-95.5z M-510.1-57.4c0,2.9,0,5.6,0,8.1
			c1.4-1.3,2.8-2.6,4.1-3.8C-507.4-54.5-508.7-55.8-510.1-57.4z M-510.2-63c1.5-1.6,2.8-3,4.1-4.3c-1.2-1.2-2.5-2.6-4.1-4.2
			C-510.2-68.6-510.2-65.9-510.2-63z M-461.6-95.9c1.1,1.3,2.3,2.7,3.6,4.2c0-2.7,0-5.3,0-8.1C-459.5-98.3-460.7-97-461.6-95.9z
			 M-461.8-53.3c1.2,1.3,2.4,2.7,3.8,4.1c0-2.7,0-5.2,0-7.9C-459.5-55.6-460.7-54.3-461.8-53.3z M-495.1-100.4
			c1.5,1.5,2.8,2.8,3.8,3.8c1.4-1.2,2.7-2.4,4.2-3.8C-489.8-100.4-492.2-100.4-495.1-100.4z M-458-85.6c-1.5,1.5-2.8,2.7-3.8,3.7
			c1.3,1.5,2.5,2.9,3.8,4.4C-458-80.2-458-82.7-458-85.6z M-501.3-100.4c-2.6,0-5.1,0-7.1,0c1,1.2,2.1,2.6,2.9,3.7
			C-504-98-502.7-99.1-501.3-100.4z M-480.5-100.4c1.2,1.4,2.4,2.7,3.5,3.9c1.3-1.3,2.6-2.5,4-3.9
			C-475.7-100.4-478.1-100.4-480.5-100.4z M-466.8-48.4c2.9,0,5.3,0,7.2,0c-1-1.2-2.1-2.6-3.1-4C-464.1-51.1-465.3-49.9-466.8-48.4z
			 M-458.9-100.4c-2.7,0-5.2,0-7.6,0c1.3,1.4,2.5,2.7,3.6,3.9C-461.6-97.7-460.4-99-458.9-100.4z M-509.1-48.4c2.6,0,5,0,7.6,0
			c-1.3-1.4-2.5-2.7-3.7-3.9C-506.4-51-507.7-49.8-509.1-48.4z M-487.4-48.4c-1.2-1.4-2.4-2.7-3.3-3.6c-1.4,1.2-2.8,2.3-4.3,3.6
			C-492.2-48.4-489.8-48.4-487.4-48.4z"/>
	</g>
</g>
<g>
	<defs>
		<rect id="SVGID_1_" x="48" y="38.3" width="73.3" height="73.3"/>
	</defs>
	<clipPath id="SVGID_2_">
		<use xlink:href="#SVGID_1_"  style="overflow:visible;"/>
	</clipPath>
	<g class="st1">
		<g>
			<circle class="st2" cx="50.2" cy="38.3" r="12.2"/>
			<circle class="st2" cx="75.2" cy="38.3" r="12.2"/>
			<circle class="st2" cx="50.2" cy="63.4" r="12.2"/>
			<circle class="st2" cx="75.2" cy="63.4" r="12.2"/>
		</g>
		<g>
			
				<rect x="57.2" y="45.7" transform="matrix(0.7071 -0.7071 0.7071 0.7071 -17.7274 58.989)" class="st3" width="10.4" height="10.4"/>
			
				<rect x="82.2" y="45.7" transform="matrix(0.7071 -0.7071 0.7071 0.7071 -10.3992 76.6808)" class="st3" width="10.4" height="10.4"/>
		</g>
		<g>
			
				<rect x="57.2" y="70.7" transform="matrix(0.7071 -0.7071 0.7071 0.7071 -35.4192 66.3172)" class="st3" width="10.4" height="10.4"/>
			
				<rect x="82.2" y="70.7" transform="matrix(0.7071 -0.7071 0.7071 0.7071 -28.091 84.009)" class="st3" width="10.4" height="10.4"/>
		</g>
		<g>
			<circle class="st2" cx="50.2" cy="88.4" r="12.2"/>
			<circle class="st2" cx="75.2" cy="88.4" r="12.2"/>
			<circle class="st2" cx="50.2" cy="113.4" r="12.2"/>
			<circle class="st2" cx="75.2" cy="113.4" r="12.2"/>
		</g>
		<g>
			
				<rect x="57.2" y="95.8" transform="matrix(0.7071 -0.7071 0.7071 0.7071 -53.111 73.6454)" class="st3" width="10.4" height="10.4"/>
			
				<rect x="82.2" y="95.8" transform="matrix(0.7071 -0.7071 0.7071 0.7071 -45.7828 91.3372)" class="st3" width="10.4" height="10.4"/>
		</g>
		<g>
			
				<rect x="57.2" y="120.8" transform="matrix(0.7071 -0.7071 0.7071 0.7071 -70.8028 80.9735)" class="st3" width="10.4" height="10.4"/>
			
				<rect x="82.2" y="120.8" transform="matrix(0.7071 -0.7071 0.7071 0.7071 -63.4746 98.6654)" class="st3" width="10.4" height="10.4"/>
		</g>
		<g>
			<circle class="st2" cx="100.2" cy="38.3" r="12.2"/>
			<circle class="st2" cx="125.2" cy="38.3" r="12.2"/>
			<circle class="st2" cx="100.2" cy="63.4" r="12.2"/>
			<circle class="st2" cx="125.2" cy="63.4" r="12.2"/>
		</g>
		<g>
			
				<rect x="107.2" y="45.7" transform="matrix(0.7071 -0.7071 0.7071 0.7071 -3.071 94.3726)" class="st3" width="10.4" height="10.4"/>
			
				<rect x="132.2" y="45.7" transform="matrix(0.7071 -0.7071 0.7071 0.7071 4.2572 112.0644)" class="st3" width="10.4" height="10.4"/>
		</g>
		<g>
			
				<rect x="107.2" y="70.7" transform="matrix(0.7071 -0.7071 0.7071 0.7071 -20.7628 101.7008)" class="st3" width="10.4" height="10.4"/>
			
				<rect x="132.2" y="70.7" transform="matrix(0.7071 -0.7071 0.7071 0.7071 -13.4346 119.3926)" class="st3" width="10.4" height="10.4"/>
		</g>
		<g>
			<circle class="st2" cx="100.2" cy="88.4" r="12.2"/>
			<circle class="st2" cx="125.2" cy="88.4" r="12.2"/>
			<circle class="st2" cx="100.2" cy="113.4" r="12.2"/>
			<circle class="st2" cx="125.2" cy="113.4" r="12.2"/>
		</g>
		<g>
			
				<rect x="107.2" y="95.8" transform="matrix(0.7071 -0.7071 0.7071 0.7071 -38.4546 109.029)" class="st3" width="10.4" height="10.4"/>
			
				<rect x="132.2" y="95.8" transform="matrix(0.7071 -0.7071 0.7071 0.7071 -31.1264 126.7208)" class="st3" width="10.4" height="10.4"/>
		</g>
		<g>
			
				<rect x="107.2" y="120.8" transform="matrix(0.7071 -0.7071 0.7071 0.7071 -56.1464 116.3572)" class="st3" width="10.4" height="10.4"/>
			
				<rect x="132.2" y="120.8" transform="matrix(0.7071 -0.7071 0.7071 0.7071 -48.8182 134.049)" class="st3" width="10.4" height="10.4"/>
		</g>
	</g>
</g>
<rect x="48" y="38.3" class="st2" width="73.3" height="73.3"/>
</svg>
