<?xml version="1.0" encoding="utf-8"?>
<!-- Generator: Adobe Illustrator 16.0.0, SVG Export Plug-In . SVG Version: 6.00 Build 0)  -->
<!DOCTYPE svg PUBLIC "-//W3C//DTD SVG 1.1//EN" "http://www.w3.org/Graphics/SVG/1.1/DTD/svg11.dtd">
<svg version="1.1" id="_x2014_ÎÓÈ_x5F_1" xmlns="http://www.w3.org/2000/svg" xmlns:xlink="http://www.w3.org/1999/xlink"
	 x="0px" y="0px" width="259px" height="259px" viewBox="158.5 270.5 259 259" enable-background="new 158.5 270.5 259 259"
	 xml:space="preserve">
<g id="UpLcRx_1_">
	<g>
		<path fill="#FF5200" d="M-2136.627-278.705c-34.753,0-69.506,0-104.259,0c-10.221,0-12.606-2.385-12.606-12.606
			c0-69.506,0-139.012,0-208.518c0-9.88,2.385-12.266,12.266-12.266c69.847,0,139.353,0,209.2,0c9.54,0,12.266,2.385,12.266,12.266
			c0,69.847,0,139.353,0,209.199c0,9.2-2.726,11.925-11.925,11.925C-2066.439-278.705-2101.533-278.705-2136.627-278.705z
			 M-2025.213-401.704c-16.354-16.695-32.368-32.708-48.041-48.722c-7.155,7.155-14.31,14.31-21.465,21.124
			c16.354,16.354,32.368,32.368,48.382,48.382C-2039.523-388.075-2032.027-394.889-2025.213-401.704z M-2164.906-430.664
			c-7.155-7.496-13.629-14.311-20.103-21.125c-16.354,16.013-32.368,32.027-47.7,47.359c6.814,7.155,13.288,13.969,20.103,21.125
			C-2196.593-398.978-2180.579-414.991-2164.906-430.664z M-2110.051-374.446c-16.354-16.695-32.368-32.709-47.7-48.382
			c-7.155,6.814-13.97,13.629-20.784,19.762c16.014,16.354,32.027,32.368,48.041,48.041
			C-2123.68-361.158-2116.865-367.973-2110.051-374.446z M-2102.215-477.683c-15.673,15.673-31.346,31.687-46.337,46.678
			c6.474,6.814,13.288,14.31,19.762,21.124c16.014-15.673,31.687-31.346,47.7-47.019
			C-2087.904-464.055-2095.06-470.869-2102.215-477.683z M-2137.649-345.826c-6.474-6.814-13.288-13.969-20.102-21.125
			c-16.014,16.014-32.027,32.027-47.7,47.7c6.474,7.155,13.288,14.31,19.761,21.125
			C-2168.995-314.48-2152.981-330.494-2137.649-345.826z M-2158.092-437.819c7.155-7.155,13.969-14.31,20.443-20.443
			c-15.673-16.014-31.687-32.027-47.36-48.041c-6.814,6.814-13.628,13.628-20.442,20.443
			C-2190.119-469.506-2174.105-453.833-2158.092-437.819z M-2074.617-393.186c-15.673,16.014-31.687,31.687-46.678,47.019
			c6.474,7.155,13.629,14.31,19.762,21.125c16.354-16.014,32.027-31.687,47.7-47.359
			C-2060.647-379.216-2067.461-386.031-2074.617-393.186z M-2240.204-395.911c-5.792,4.088-10.222,8.858-8.858,17.036
			c0.681,4.088,0,8.177,0.34,12.606c0,1.704,0.34,4.088,1.363,5.111c11.584,11.584,23.169,23.168,34.412,34.071
			c7.155-7.155,14.311-13.969,20.784-20.443C-2208.518-363.884-2224.19-379.897-2240.204-395.911z M-2128.79-337.99
			c-7.155,6.814-13.97,13.969-21.806,21.465c6.474,6.133,13.628,11.925,19.421,19.08c9.199,11.584,20.102,16.695,35.435,14.991
			c6.474-0.682,11.244-2.385,14.31-7.496C-2097.444-306.303-2113.458-322.317-2128.79-337.99z M-2066.099-345.145
			c13.628,13.628,27.598,27.598,42.249,41.908c0-13.628,0-26.917,0-40.205c0-0.681-0.34-1.703-1.022-2.385
			c-6.814-7.155-13.629-14.31-19.421-20.784C-2052.811-358.433-2059.625-351.618-2066.099-345.145z M-2023.85-497.785
			c-14.651,14.31-28.62,28.279-41.567,40.886c6.814,7.155,13.628,14.31,21.124,22.146c5.792-6.133,12.266-12.606,18.399-19.421
			c1.022-1.363,2.044-3.066,2.044-4.77C-2023.85-471.891-2023.85-484.498-2023.85-497.785z M-2052.129-486.882
			c-6.474-6.474-12.947-12.606-19.42-18.74c-1.022-1.022-2.385-2.044-3.407-2.044c-13.288,0-26.917,0-40.205,0
			c14.31,14.65,27.939,28.62,41.567,42.589C-2066.439-472.572-2059.625-479.387-2052.129-486.882z M-2200.341-508.007
			c-12.606,0-24.872,0-37.138,0c-6.814,0-11.244,4.77-11.584,11.584c0,4.088,0.34,8.518,0,12.606
			c-1.022,7.836,2.385,12.947,8.518,16.695C-2227.257-480.75-2214.31-494.037-2200.341-508.007z M-2149.915-485.86
			c6.814,6.814,13.629,13.629,20.443,20.443c6.814-6.814,13.969-13.969,20.103-20.443c-6.474-7.155-13.288-14.31-19.421-20.784
			C-2135.945-499.489-2143.101-492.675-2149.915-485.86z M-2165.929-375.809c-6.814-6.814-13.288-13.288-19.42-19.421
			c-6.474,6.814-13.288,13.288-20.102,20.443c6.474,6.474,12.947,12.947,19.08,19.08
			C-2179.557-362.521-2172.743-369.335-2165.929-375.809z M-2194.208-458.603c-6.474-6.814-13.288-13.628-19.42-20.443
			c-6.474,6.474-12.947,13.288-18.74,19.421c6.133,6.133,12.947,12.947,20.103,19.761
			C-2206.814-445.656-2200.341-452.47-2194.208-458.603z M-2233.39-291.312c7.154,8.518,7.154,8.518,18.058,8.518
			c6.133,0,11.925,0,18.058,0c4.771,0,9.199,0,12.266,0c-9.199-9.881-18.398-19.761-27.257-29.301
			C-2219.421-305.281-2226.235-298.467-2233.39-291.312z M-2074.276-336.968c-6.814,6.474-13.288,12.947-19.08,18.739
			c6.474,6.814,12.606,13.629,18.398,19.421c6.814-6.474,13.288-12.947,19.762-19.08
			C-2061.329-324.021-2067.802-330.494-2074.276-336.968z M-2249.062-460.307c0,11.244,0.34,21.806,0,32.368
			c-0.341,7.836,2.044,13.288,8.177,16.695c7.155-7.155,14.311-13.969,20.443-20.102
			C-2229.983-440.886-2239.182-450.426-2249.062-460.307z M-2249.062-293.356c9.54-9.54,18.739-18.739,26.916-26.917
			c-6.474-6.474-13.288-13.629-20.783-21.125c-2.044,3.066-5.792,6.474-5.792,9.881
			C-2249.403-318.569-2249.062-305.622-2249.062-293.356z M-2082.453-402.385c-6.474-6.474-12.606-12.947-19.08-19.421
			c-6.814,6.474-13.288,12.947-19.761,19.08c6.474,6.814,12.947,13.288,19.42,20.102
			C-2095.4-389.438-2088.927-395.911-2082.453-402.385z M-2044.293-308.348c-9.199,8.859-17.717,17.377-25.895,25.554
			c10.222,0,21.806-0.341,33.05,0c5.451,0,9.199-1.363,11.584-6.133C-2032.027-296.082-2038.842-302.896-2044.293-308.348z
			 M-2157.751-311.414c-6.814,6.814-12.947,13.288-19.421,19.762c9.881,12.947,29.643,12.947,38.501,0.341
			C-2145.145-297.785-2151.277-304.259-2157.751-311.414z M-2060.647-507.666c5.111,5.451,9.881,10.562,14.311,14.991
			c5.11-5.11,10.221-9.88,15.332-14.991C-2040.886-507.666-2050.426-507.666-2060.647-507.666z M-2024.19-386.712
			c-4.771,4.429-9.54,9.199-13.629,12.947c4.43,4.429,8.858,9.199,13.629,13.969C-2024.19-368.654-2024.19-377.513-2024.19-386.712z
			 M-2157.41-493.697c4.77-5.111,9.199-9.54,13.288-13.628c-8.177,0-17.036,0-24.532,0
			C-2164.906-502.896-2161.158-498.126-2157.41-493.697z M-2024.19-440.545c-4.43,3.748-9.199,7.836-13.969,11.925
			c4.77,4.43,9.199,8.858,13.969,12.947C-2024.19-424.19-2024.19-432.708-2024.19-440.545z"/>
		<path fill="#FF5200" d="M-1893.356-798.637c34.753,0,69.506,0,104.259,0c9.881,0,12.266,2.385,12.266,12.266
			c0,69.847,0,139.353,0,209.199c0,9.881-2.385,12.266-12.266,12.266c-69.847,0-139.353,0-209.199,0
			c-9.54,0-11.925-2.385-11.925-11.925c0-69.847,0-140.034,0-209.881c0-9.199,2.385-11.925,11.925-11.925
			C-1963.203-798.637-1928.109-798.637-1893.356-798.637z M-1870.869-623.85c25.213,0,49.745,0,74.276,0c0-11.584,0-22.487,0-33.731
			c-24.872,0-49.404,0-74.276,0C-1870.869-646.337-1870.869-635.435-1870.869-623.85z M-1912.436-657.922
			c0,25.213,0,49.745,0,74.276c11.584,0,22.828,0,33.731,0c0-24.872,0-49.404,0-74.276
			C-1889.949-657.922-1900.852-657.922-1912.436-657.922z M-1836.457-739.693c-11.244,0-22.828,0-34.071,0
			c0,24.872,0,49.404,0,73.936c11.584,0,22.828,0,34.071,0C-1836.457-690.29-1836.457-714.821-1836.457-739.693z M-1878.364-739.693
			c-25.213,0-50.085,0-74.276,0c0,11.584,0,22.487,0,33.731c24.873,0,49.745,0,74.276,0
			C-1878.364-717.206-1878.364-728.45-1878.364-739.693z M-1960.477-665.417c0-25.213,0-49.745,0-74.276
			c-11.584,0-22.828,0-33.731,0c0,24.872,0,49.404,0,74.276C-1982.964-665.417-1972.061-665.417-1960.477-665.417z
			 M-1870.869-583.646c25.213,0,49.745,0,74.276,0c0-11.244,0-21.806,0-32.368c-24.872,0-49.404,0-74.276,0
			C-1870.869-605.11-1870.869-594.548-1870.869-583.646z M-1796.593-665.417c0-25.213,0-49.745,0-74.276
			c-11.244,0-21.806,0-32.368,0c0,24.872,0,49.404,0,74.276C-1818.058-665.417-1807.496-665.417-1796.593-665.417z
			 M-1878.364-697.785c-25.213,0-49.745,0-74.276,0c0,11.244,0,21.806,0,32.368c24.873,0,49.404,0,74.276,0
			C-1878.364-676.32-1878.364-686.882-1878.364-697.785z M-1870.869-747.53c25.213,0,49.745,0,74.276,0c0-11.244,0-21.806,0-32.368
			c-24.872,0-49.404,0-74.276,0C-1870.869-768.995-1870.869-758.433-1870.869-747.53z M-1952.981-583.646
			c11.244,0,22.146,0,32.709,0c0-24.872,0-49.404,0-73.936c-10.903,0-21.806,0-32.709,0
			C-1952.981-632.709-1952.981-608.518-1952.981-583.646z M-1878.364-793.867c-11.925,0-22.828,0-34.072,0
			c0,15.673,0,31.005,0,46.337c11.584,0,22.828,0,34.072,0C-1878.364-763.203-1878.364-778.194-1878.364-793.867z M-2005.451-623.85
			c15.332,0,29.983,0,44.975,0c0-11.584,0-22.828,0-33.731c-15.333,0-30.324,0-44.975,0
			C-2005.451-645.997-2005.451-635.094-2005.451-623.85z M-1952.641-793.867c0,16.014,0,31.346,0,46.337c11.244,0,21.806,0,32.368,0
			c0-15.673,0-31.005,0-46.337C-1931.175-793.867-1941.396-793.867-1952.641-793.867z M-1960.477-616.014
			c-15.673,0-30.324,0-44.974,0c0,11.244,0,21.806,0,32.368c15.332,0,30.323,0,44.974,0
			C-1960.477-594.548-1960.477-605.11-1960.477-616.014z M-2005.451-747.53c15.332,0,30.324,0,44.975,0c0-11.244,0-21.806,0-32.708
			c-15.333,0-29.983,0-44.975,0C-2005.451-769.335-2005.451-758.773-2005.451-747.53z M-1788.756-583.646c2.726,0,5.111,0,7.496,0
			c0-25.213,0-49.745,0-74.276c-2.726,0-5.11,0-7.496,0C-1788.756-633.049-1788.756-608.177-1788.756-583.646z M-1878.364-575.809
			c-25.213,0-49.745,0-74.958,0c0.34,2.385,0.34,4.429,0.681,6.133c25.213,0,49.404,0,74.276,0
			C-1878.364-571.721-1878.364-573.424-1878.364-575.809z M-1870.869-787.734c25.213,0,49.745,0,74.958,0
			c-0.341-2.385-0.341-4.429-0.682-6.133c-25.213,0-49.404,0-74.276,0C-1870.869-791.823-1870.869-790.119-1870.869-787.734z
			 M-1788.756-793.867c0,15.673,0,31.005,0,46.337c2.726,0,5.111,0,7.836,0c0-13.628-0.341-26.917,0-39.864
			C-1780.579-793.186-1782.624-795.23-1788.756-793.867z M-2005.451-787.734c15.332,0,29.983,0,45.656,0
			c0-2.385-0.34-4.088-0.34-6.474c-13.629,0-26.917,0-39.864,0C-2004.77-794.208-2006.474-792.504-2005.451-787.734z
			 M-2003.748-664.736c0.681-0.341,1.022-0.341,1.704-0.681c0-24.873,0-49.745,0-74.617c-0.682-0.341-1.022-0.341-1.704-0.682
			c-0.682,1.363-2.044,2.726-2.044,4.089c0,22.487,0,44.975,0,67.462C-2005.792-667.462-2004.429-666.099-2003.748-664.736z
			 M-1788.756-739.693c0,11.584,0,22.828,0,34.412c2.726,0,5.111-0.341,7.496-0.341c0-11.584,0-22.828,0-34.071
			C-1783.646-739.693-1785.689-739.693-1788.756-739.693z M-1788.756-698.126c0,11.244,0,21.806,0,33.049
			c2.726,0,5.111-0.341,7.496-0.341c0-11.244,0-21.806,0-32.708C-1783.646-698.126-1786.031-698.126-1788.756-698.126z
			 M-1871.209-575.809c0.341,2.385,0.341,4.429,0.341,6.474c11.584,0,22.487,0,34.071,0c0-2.385,0-4.088,0-6.474
			C-1848.041-575.809-1858.943-575.809-1871.209-575.809z M-1960.477-575.809c-11.925,0-22.828,0-34.071,0c0,2.385,0,4.088,0,6.133
			c11.584,0,22.828,0,34.071,0C-1960.477-571.721-1960.477-573.765-1960.477-575.809z M-1828.961-569.676c11.244,0,22.146,0,33.05,0
			c-0.341-2.385-0.341-4.429-0.682-6.133c-11.244,0-21.806,0-32.368,0C-1828.961-573.765-1828.961-571.721-1828.961-569.676z
			 M-1780.92-575.809c-2.385,0-5.111,0-7.836,0c0,2.044,0,4.088,0,6.133C-1783.646-568.654-1780.238-569.335-1780.92-575.809z"/>
		<path fill="#FF5200" d="M-2253.151-682.112c0-34.753,0-69.506,0-104.259c0-9.881,2.385-12.266,12.266-12.266
			c69.847,0,139.353,0,209.199,0c9.199,0,11.925,2.726,11.925,11.925c0,69.847,0,140.034,0,209.881
			c0,9.199-2.726,11.925-11.925,11.925c-69.847,0-139.353,0-209.199,0c-9.881,0-12.266-2.385-12.266-12.266
			C-2253.151-612.266-2253.151-647.019-2253.151-682.112z M-2196.934-632.027c0-27.938,0-55.196,0-82.453
			c-17.717,0-34.753,0-52.129,0c0,27.939,0,54.855,0,82.453C-2231.346-632.027-2214.31-632.027-2196.934-632.027z M-2133.22-684.157
			c0,26.576,0,52.47,0,78.365c16.695,0,33.05,0,49.063,0c0-26.235,0-52.13,0-78.365
			C-2100.511-684.157-2116.524-684.157-2133.22-684.157z M-2074.957-714.821c0,19.762,0,39.183,0,58.944c17.036,0,33.73,0,50.426,0
			c0-20.103,0-39.523,0-58.944C-2041.567-714.821-2058.262-714.821-2074.957-714.821z M-2128.79-759.795c0-11.584,0-22.828,0-33.731
			c-26.576,0-52.471,0-78.365,0c0,11.584,0,22.487,0,33.731C-2180.92-759.795-2155.025-759.795-2128.79-759.795z M-2119.591-760.136
			c26.576,0,52.47,0,78.364,0c0-11.584,0-22.828,0-33.731c-26.235,0-52.129,0-78.364,0
			C-2119.591-782.624-2119.591-771.38-2119.591-760.136z M-2142.419-632.027c0-17.717,0-34.753,0-52.129
			c-15.332,0-29.983,0-44.975,0c0,17.717,0,34.753,0,52.129C-2172.402-632.027-2157.41-632.027-2142.419-632.027z M-2237.819-723.68
			c28.62,0,56.218,0,84.157,0c0-9.199,0-18.058,0-26.917c-28.28,0-56.219,0-84.157,0
			C-2237.819-741.397-2237.819-732.879-2237.819-723.68z M-2187.734-693.356c34.753,0,69.166,0,103.237,0c0-7.496,0-14.651,0-21.465
			c-34.753,0-68.825,0-103.237,0C-2187.734-707.666-2187.734-700.852-2187.734-693.356z M-2207.155-569.676
			c26.576,0,52.47,0,78.365,0c0-8.859,0-17.376,0-25.554c-26.235,0-52.13,0-78.365,0
			C-2207.155-586.712-2207.155-578.535-2207.155-569.676z M-2040.886-569.335c0-8.859,0-17.376,0-25.895c-26.235,0-52.47,0-78.364,0
			c0,8.859,0,17.036,0,25.895C-2093.015-569.335-2067.121-569.335-2040.886-569.335z M-2217.376-623.168
			c-10.903,0-20.784,0-31.687,0c0,16.695,0,33.049,0.34,49.404c0,1.362,2.385,4.088,4.088,4.429c9.2,0.34,18.399,0.34,27.598,0.34
			C-2217.376-587.734-2217.376-605.11-2217.376-623.168z M-2084.157-723.68c0-9.54,0-18.058,0-26.917c-20.443,0-40.205,0-60.307,0
			c0,9.199,0,18.058,0,26.917C-2124.021-723.68-2104.259-723.68-2084.157-723.68z M-2041.227-605.792c0-13.97,0-27.598,0-40.886
			c-11.584,0-22.828,0-33.73,0c0,13.969,0,27.257,0,40.886C-2063.714-605.792-2052.47-605.792-2041.227-605.792z M-2075.298-724.021
			c17.376,0,34.071,0,50.767,0c0-9.199,0-18.058,0-26.917c-17.376,0-34.071,0-50.767,0
			C-2075.298-741.737-2075.298-733.22-2075.298-724.021z M-2142.419-622.828c-21.806,0-43.271,0-64.396,0c0,6.133,0,11.584,0,17.377
			c21.806,0,42.931,0,64.396,0C-2142.419-611.584-2142.419-617.036-2142.419-622.828z M-2217.376-793.867
			c-7.155,0-13.629,0-20.103,0c0,11.584,0,22.828,0,34.072c6.814,0,13.628,0,20.103,0
			C-2217.376-771.38-2217.376-782.624-2217.376-793.867z M-2024.531-591.482c0-18.74,0-36.797,0-54.855c-2.726,0-5.111,0-7.496,0
			c0,18.74,0,36.797,0,54.855C-2029.301-591.482-2027.257-591.482-2024.531-591.482z M-2023.85-759.795c0-9.54,0-18.74,0-27.939
			c0-6.474-0.681-6.814-7.836-5.792c0,11.244,0,22.487,0,33.73C-2029.301-759.795-2026.917-759.795-2023.85-759.795z
			 M-2247.019-767.632c-0.341,0-1.022,0-1.363,0c0,14.65,0,29.301,0,43.952c0.341,0,1.022,0,1.363,0
			C-2247.019-738.331-2247.019-752.981-2247.019-767.632z M-2032.027-569.676c8.518,0.341,9.199-0.681,7.496-13.288
			c-2.385,0-4.771,0-7.496,0C-2032.027-578.194-2032.027-574.105-2032.027-569.676z M-2247.019-792.845
			c-0.341,0-0.682,0-1.363-0.341c0,5.451,0,11.243,0,16.695c0.341,0,0.682,0,1.363,0
			C-2247.019-781.942-2247.019-787.394-2247.019-792.845z"/>
		<path fill="#FF5200" d="M-1533.561-394.889c0,34.412,0,69.165,0,103.578c0,10.221-2.385,12.606-12.606,12.606
			c-69.506,0-139.012,0-208.518,0c-9.881,0-12.266-2.385-12.266-12.266c0-69.847,0-139.353,0-209.2
			c0-9.88,2.385-12.266,12.266-12.266c69.847,0,139.353,0,209.199,0c9.199,0,11.925,2.726,11.925,11.925
			C-1533.561-465.077-1533.561-429.983-1533.561-394.889z M-1680.75-381.942c0.341-10.222-1.704-12.947-8.858-12.266
			c-9.881,0.682-19.762,1.363-29.643,1.363c-4.77,0-6.814,1.703-7.155,6.133c-0.341,5.451-1.022,10.903-1.022,16.354
			c-0.34,8.177,2.044,10.562,10.562,10.562c9.881,0,20.102-0.341,29.983,0c4.77,0,6.133-2.726,6.133-6.474
			C-1680.409-371.38-1680.75-376.831-1680.75-381.942z M-1674.276-353.322v-0.34c-8.177,0.681-16.014,1.022-23.85,2.044
			c-2.044,0.341-5.111,3.066-5.451,4.77c-0.682,6.474-0.341,12.947-0.341,19.421c0,5.452,2.044,8.518,8.177,8.518
			c10.222-0.341,20.443,0.341,31.005,0.681c3.748,0,6.474-1.363,6.474-5.451c0.341-8.518,0.341-17.036,0-25.554
			c0-1.363-2.726-3.407-4.429-3.748C-1666.439-354.003-1670.528-353.322-1674.276-353.322z M-1658.262-422.146
			c-0.341-11.244-0.341-11.584-11.584-11.925c-8.858-0.341-17.717,0.681-26.576,1.362c-7.496,0.682-8.859,3.066-7.496,10.562
			c0.681,3.407,1.022,7.155,0.341,10.903c-1.363,7.836,0.34,10.903,8.518,11.244c6.814,0.341,13.288,0,20.103-0.341
			c5.11-0.341,11.925,1.022,14.31-1.704c2.726-3.407,1.704-10.221,2.385-15.332
			C-1657.581-418.739-1658.262-420.443-1658.262-422.146z M-1707.666-471.891c0-0.341,0-0.341,0-0.682
			c-4.429,0-8.858-0.341-12.947,0.341c-2.044,0.341-5.11,2.726-5.11,4.77c-0.682,7.496-0.682,14.651,0,22.147
			c0.34,2.044,3.066,5.792,5.11,5.792c11.244,1.022,22.828,1.022,34.412,1.363c1.363,0,4.089-1.704,4.089-3.066
			c0.341-9.54,0.682-19.08,0.341-28.62c0-1.363-3.407-3.407-5.111-3.407C-1694.037-473.254-1700.852-472.231-1707.666-471.891z
			 M-1602.044-360.136c0,0.341,0,0.341,0,0.681c1.703,0,3.066,0.341,4.77,0.341c11.244,0.682,13.288-0.681,13.629-12.266
			c0.341-5.111-0.682-10.222,0-14.991c0.682-5.452-1.363-7.155-6.474-7.155c-7.836,0-16.014-0.682-23.85-0.682
			c-10.221,0-13.969,4.43-12.606,14.651c0.34,3.748,0.681,7.496,0.34,10.903c-0.681,7.155,2.045,10.222,9.2,9.54
			C-1612.266-359.455-1607.155-359.795-1602.044-360.136z M-1633.39-359.795c3.748-9.881,1.363-20.443,0.682-31.005
			c0-1.022-3.748-2.726-5.792-2.726c-9.88-0.341-20.102-0.341-29.982-0.341c-5.792,0-7.155,2.385-6.133,8.177
			c1.022,5.452,1.362,11.244,0.681,17.036c-1.022,7.836-0.681,8.858,7.496,8.858
			C-1655.537-359.795-1645.315-359.795-1633.39-359.795z M-1608.177-337.649c0.341-2.726,0.341-5.452,0.682-8.177
			c0.341-4.77-1.363-6.814-6.133-6.474c-10.221,0.341-20.443-0.682-30.665-0.341c-2.726,0-7.496,2.726-7.496,4.43
			c-0.341,8.177,0,16.354,1.022,24.19c0.341,1.704,3.748,4.089,5.792,4.43c5.451,1.022,10.903,0.681,16.354,1.022
			C-1609.54-317.888-1608.177-319.25-1608.177-337.649z M-1605.451-438.501v0.341c4.77,0,9.88,0.682,14.65-0.341
			c2.726-0.681,6.474-3.407,6.814-5.792c0.682-7.836,0.341-15.673,0.341-23.509c0-4.088-2.044-5.111-5.452-5.111
			c-9.88,0.341-19.761,0.341-29.642,0.682c-4.429,0-7.155,1.703-6.814,7.155c0.341,5.792-0.341,11.925-1.022,17.717
			c-0.682,5.792,2.044,8.177,7.155,8.518C-1614.991-438.501-1610.222-438.501-1605.451-438.501z M-1581.602-400.341V-400
			c4.089,0,7.837,0,11.925,0c7.496,0.341,9.881-2.044,9.54-9.881c-0.341-5.11-1.363-10.221-1.022-14.991
			c1.022-7.155-1.022-9.54-8.177-9.199c-9.2,0.681-18.058,1.022-27.257,1.022c-4.429,0-6.474,1.363-6.474,5.792
			c0,6.133,0.682,12.606,0,18.739c-0.682,5.792,2.044,7.836,6.814,7.836C-1591.141-400-1586.371-400.341-1581.602-400.341z
			 M-1653.151-471.55C-1653.151-471.891-1653.151-471.891-1653.151-471.55c-5.111-0.34-10.222,0-15.333-0.34
			c-5.111,0-7.836,1.022-6.814,7.155c1.022,5.452,1.703,11.584,1.022,17.036c-0.682,6.814,0,8.858,6.814,9.199
			c9.54,0.341,18.74-0.341,28.28,0c4.088,0,6.473-0.681,6.473-4.77c0.341-7.155,0.341-13.97,1.022-21.125
			c0.682-5.451-1.363-7.155-6.474-7.155C-1642.93-471.55-1648.041-471.55-1653.151-471.55z M-1609.199-421.465
			c0.341-5.111,3.407-12.266-5.792-12.266c-10.222,0-20.784,0.682-31.005,1.363c-2.044,0.341-5.452,3.066-5.452,4.77
			c-0.34,7.836,0.341,15.673,0.682,23.509c0,3.407,1.704,4.43,5.452,4.43c9.88-0.341,20.102-1.363,29.983,0
			c6.814,0.681,7.155-2.726,7.155-6.814C-1608.177-411.925-1608.858-416.695-1609.199-421.465z M-1751.959-398.978
			c12.606,0,22.828-0.341,33.049,0c8.177,0.34,10.222-1.363,10.222-9.54c-0.341-6.474,0-13.288,0-19.762
			c0-4.089-1.704-5.111-5.792-4.77c-9.881,0.341-20.102,1.022-29.642-0.341c-5.792-0.681-7.155,2.385-7.496,6.133
			C-1752.3-418.058-1751.959-409.199-1751.959-398.978z M-1602.385-336.968h-0.341c0,4.089-0.682,7.837,0.341,11.584
			c0.682,2.044,3.407,5.452,5.451,5.452c10.222,0.341,20.784,0.341,31.005-0.341c2.044,0,5.792-2.726,5.792-4.089
			c0.341-8.177,0-16.354-0.681-24.872c0-1.363-3.407-3.407-5.111-3.748c-8.518-0.681-17.036-0.341-25.554-1.022
			c-8.518-0.341-11.925,2.385-11.244,10.903C-1602.726-340.715-1602.726-339.012-1602.385-336.968z M-1750.596-319.25
			c12.266,0,22.828,0,33.731,0c4.429,0,8.518-1.022,8.518-6.474c0-6.814-0.681-13.288-1.022-20.102
			c-0.681-7.836-2.044-8.518-9.54-7.155c-3.066,0.682-6.133,0-9.199,0c-2.385,0-4.429-0.341-6.814,0
			c-3.748,0.341-7.836,0.341-11.244,1.022c-2.044,0.341-5.451,2.385-5.451,3.748
			C-1751.959-339.012-1750.937-329.472-1750.596-319.25z M-1680.75-282.794c0-9.54,0.341-18.058-0.341-26.235
			c0-1.704-3.407-4.429-5.451-4.429c-11.584,0-22.828,0.34-34.413,1.022c-2.044,0-4.77,4.088-5.11,6.474
			c-1.022,6.133-1.363,12.266-1.363,18.398c0,1.363,2.385,4.429,3.407,4.429C-1709.71-282.794-1695.741-282.794-1680.75-282.794z
			 M-1680.068-508.007c-4.089,0-8.177,0-12.607,0c-11.243,0-11.243,0-10.562,11.244c0,2.385-0.681,5.111-1.022,7.496
			c-0.341,4.77,0.341,9.881,6.474,10.222c11.243,0.682,22.828,1.363,34.071,1.022c2.044,0,5.792-3.407,6.133-5.792
			c0.682-5.792,0.341-11.584,0.341-17.717c0-4.088-0.682-7.155-6.133-6.814C-1668.824-507.666-1674.617-508.007-1680.068-508.007z
			 M-1603.407-507.666c0,7.155,0,13.969,0,21.124c0,6.814,4.089,10.562,11.244,9.881c9.881-0.681,19.421-1.022,30.665-1.703
			c0.682-9.2,1.704-19.08,2.726-29.302C-1573.765-507.666-1588.075-507.666-1603.407-507.666z M-1626.235-282.794
			c13.628,0,26.576,0,39.523-0.341c1.363,0,3.748-3.066,3.748-4.77c0.341-6.814-0.341-13.288-0.341-20.103
			c0-4.77-2.385-5.792-6.474-5.792c-9.54,0-19.08,0-28.62,0c-5.451,0-9.199,1.022-6.814,8.177c1.022,3.066-0.681,7.155-0.681,10.903
			C-1626.576-290.971-1626.235-287.223-1626.235-282.794z M-1537.99-471.891c-11.584,0-22.487-0.341-33.049,0.34
			c-2.044,0-5.111,3.407-5.452,5.452c-0.681,6.814-0.681,13.969,0.341,20.784c0.341,2.385,4.089,6.133,6.133,6.133
			c10.562,0.681,21.125,0.341,32.027,0.341C-1537.99-449.744-1537.99-461.329-1537.99-471.891z M-1631.005-283.135
			c-0.341-9.54-0.682-18.739-1.704-27.598c0-1.022-3.066-2.385-5.111-2.385c-10.222-0.34-20.784-0.34-31.005,0
			c-2.044,0-5.792,3.066-6.133,4.77c-0.682,8.177-0.341,16.695-0.341,25.213C-1660.647-283.135-1646.678-283.135-1631.005-283.135z
			 M-1537.99-359.795c0-11.925,0-22.487,0-33.731c-10.903,0-21.465-0.341-32.027,0.341c-2.044,0-5.452,2.726-5.792,4.429
			c-0.682,7.836-1.022,15.673-0.682,23.509c0,1.704,2.726,5.111,4.089,5.111C-1561.158-359.455-1549.915-359.795-1537.99-359.795z
			 M-1607.496-507.666c-16.014,0-30.324,0-43.952,0c0,7.496,0,14.651,0,21.806c0,6.133,2.385,9.199,9.199,8.858
			c9.199-0.681,18.058-1.022,27.257-1.703c2.044-0.341,5.111-2.044,5.451-3.748C-1608.518-490.63-1608.177-499.148-1607.496-507.666
			z M-1752.641-507.666c0.682,6.814,1.363,12.947,1.363,19.08c-0.341,11.244,0.681,12.266,11.925,10.903
			c7.155-0.681,14.31-2.726,21.806,1.022c4.089,2.044,8.859-0.681,8.859-5.792c0.34-8.177-0.682-16.354-1.022-24.872
			C-1724.021-507.666-1737.308-507.666-1752.641-507.666z M-1537.649-313.118c-11.584,0-22.487-0.34-33.049,0.341
			c-2.044,0-5.111,2.726-5.111,4.429c-0.682,6.474-0.341,13.288,0,19.762c0,3.748,1.704,6.133,6.474,6.133
			c8.518-0.341,17.036-0.341,25.554,0c4.429,0,6.474-1.363,6.474-5.792C-1537.649-296.763-1537.649-304.6-1537.649-313.118z
			 M-1762.181-439.182c3.407,0.34,6.474,0.34,9.54,0.681c3.066,0,6.474-0.341,9.54,0.341c8.177,1.363,12.947-3.066,11.584-11.244
			c-0.682-4.088-0.341-8.518-0.682-12.947c-0.681-3.407,1.022-8.859-4.77-9.2c-8.177-0.681-16.354,0-25.213,0
			C-1762.181-460.988-1762.181-450.426-1762.181-439.182z M-1762.521-391.823c0,10.562,0,20.784,0,32.027
			c7.496,0.34,14.992,1.022,22.146,0.681c2.385-0.341,6.474-3.407,6.814-5.792c0.682-8.518,0.341-17.376,0-25.895
			c0-1.022-1.703-2.385-2.726-2.385C-1744.804-392.845-1753.322-392.504-1762.521-391.823z M-1762.521-313.458
			c0,9.54-0.341,17.717,0.34,26.235c0,1.704,3.407,4.088,5.111,4.429c6.814,0.682,13.288,0,20.102,0.341
			c3.748,0,5.111-1.363,5.111-4.77c0-6.814,0-13.969,0-20.784c0-3.748-1.363-5.451-5.452-5.111
			C-1745.485-313.458-1753.322-313.458-1762.521-313.458z M-1537.649-351.277c-2.385-0.341-4.088-0.341-6.133-0.341
			c-7.836-1.363-10.221,1.022-10.221,8.858c0,5.792-0.341,11.244,0,17.036c0,1.704,1.703,4.429,3.066,4.77
			c4.088,1.363,8.177,1.363,12.947,2.044C-1537.649-330.835-1537.649-340.715-1537.649-351.277z M-1537.99-431.687
			c-3.066-0.341-5.792-0.682-8.518-0.682c-5.11-0.341-7.496,1.363-6.814,7.496c0.681,4.429-0.341,8.858-1.022,13.628
			c-0.682,5.792,2.385,11.584,6.474,11.584c3.066,0,6.473-0.341,9.54-0.341C-1537.99-410.903-1537.99-421.124-1537.99-431.687z
			 M-1537.649-477.683c0-8.518,0.341-17.036,0-25.554c-0.341-6.474-5.452-4.088-8.859-4.429c-3.407-0.341-6.814,0-6.473,4.77
			c0,6.814,0,13.288,0.681,20.102c0.341,2.044,2.726,4.77,4.77,5.452C-1544.804-477.002-1541.397-477.683-1537.649-477.683z
			 M-1762.521-320.272c0.681,0,1.363,0.341,2.385,0.341c6.133-8.518,1.022-18.739,2.726-28.279c0.34-1.704-2.044-3.748-3.067-5.792
			c-0.681,0.341-1.022,0.682-1.704,1.022C-1762.521-342.078-1762.521-331.175-1762.521-320.272z M-1762.181-399.318
			c6.133-6.474,6.133-31.687,0-34.413C-1762.181-422.487-1762.181-411.244-1762.181-399.318z M-1761.499-476.32
			c6.814-10.562,1.704-21.124,4.089-31.005C-1763.203-506.644-1764.906-492.334-1761.499-476.32z"/>
		<path fill="#FF5200" d="M-1649.404-798.637c34.413,0,69.166,0,103.578,0c10.222,0,12.606,2.385,12.606,12.606
			c0,69.506,0,139.012,0,208.518c0,9.881-2.385,12.266-12.266,12.266c-69.847,0-139.353,0-209.199,0
			c-9.54,0-12.266-2.385-12.266-12.266c0-69.847,0-139.353,0-209.199c0-9.54,2.385-11.925,11.925-11.925
			C-1719.932-798.637-1684.497-798.637-1649.404-798.637z M-1669.165-685.179c25.554,0,50.767,0,75.639,0
			c0-11.244,0-21.806,0-32.368c-25.554,0-50.426,0-75.639,0C-1669.165-706.644-1669.165-696.082-1669.165-685.179z
			 M-1677.001-717.206c-25.554,0-50.767,0-75.639,0c0,10.903,0,21.465,0,32.368c25.554,0,50.426,0,75.639,0
			C-1677.001-695.741-1677.001-706.303-1677.001-717.206z M-1711.073-644.634c25.554,0,50.767,0,75.639,0
			c0-11.244,0-21.806,0-32.368c-25.553,0-50.426,0-75.639,0C-1711.073-666.439-1711.073-655.877-1711.073-644.634z
			 M-1551.959-677.002c-25.554,0-50.767,0-75.639,0c0,11.244,0,21.806,0,32.368c25.554,0,50.426,0,75.639,0
			C-1551.959-655.537-1551.959-666.099-1551.959-677.002z M-1669.165-636.797c0,11.244,0,21.806,0,32.709
			c25.554,0,50.426,0,75.639,0c0-11.244,0-21.806,0-32.709C-1619.08-636.797-1643.952-636.797-1669.165-636.797z M-1676.661-636.797
			c-25.894,0-50.767,0-75.639,0c0,11.244,0,21.806,0,32.368c25.554,0,50.426,0,75.639,0
			C-1676.661-615.332-1676.661-625.895-1676.661-636.797z M-1711.073-725.042c25.554,0,50.767,0,75.639,0
			c0-11.244,0-21.806,0-32.368c-25.553,0-50.426,0-75.639,0C-1711.073-746.508-1711.073-735.945-1711.073-725.042z
			 M-1551.959-725.042c0-11.244,0-21.806,0-32.368c-25.554,0-50.426,0-75.639,0c0,10.903,0,21.465,0,32.368
			C-1602.385-725.042-1577.513-725.042-1551.959-725.042z M-1752.641-765.588c25.554,0,50.767,0,75.639,0c0-9.881,0-19.08,0-28.279
			c-25.554,0-50.426,0-75.639,0C-1752.641-784.327-1752.641-775.128-1752.641-765.588z M-1669.165-794.208c0,9.881,0,19.08,0,28.62
			c25.554,0,50.426,0,75.298,0c0-9.881,0-19.08,0-28.62C-1619.08-794.208-1643.611-794.208-1669.165-794.208z M-1711.073-569.676
			c25.554,0,50.767,0,75.639,0c0-9.199,0-18.399,0-26.917c-25.553,0-50.426,0-75.639,0
			C-1711.073-587.394-1711.073-578.875-1711.073-569.676z M-1627.598-569.676c25.554,0,50.767,0,75.639,0c0-9.199,0-18.399,0-26.917
			c-25.554,0-50.426,0-75.639,0C-1627.598-587.394-1627.598-578.875-1627.598-569.676z M-1537.99-717.547c-16.354,0-32.027,0-47.7,0
			c0,11.244,0,21.806,0,32.368c16.354,0,31.687,0,47.7,0C-1537.99-695.741-1537.99-706.303-1537.99-717.547z M-1586.03-604.429
			c16.014,0,32.027,0,47.7,0c0-11.244,0-21.806,0-32.368c-16.354,0-32.027,0-47.7,0
			C-1586.03-625.554-1586.03-614.991-1586.03-604.429z M-1762.181-677.342c0,10.903,0,21.806,0,32.708c14.651,0,28.961,0,43.271,0
			c0-11.243,0-21.806,0-32.708C-1733.22-677.342-1747.53-677.342-1762.181-677.342z M-1762.181-758.092c0,11.243,0,22.146,0,32.708
			c14.992,0,29.302,0,43.612,0c0-11.244,0-21.806,0-32.708C-1733.561-758.092-1747.53-758.092-1762.181-758.092z M-1586.03-765.588
			c16.354,0,32.027,0,48.381,0c0-8.177,0.341-15.673-0.341-23.168c0-2.044-2.726-5.111-4.429-5.111
			c-14.31-0.341-28.961-0.341-43.611-0.341C-1586.03-784.327-1586.03-775.128-1586.03-765.588z M-1718.569-596.593
			c-14.992,0-29.301,0-44.293,0c0,7.836-0.341,15.332,0.34,22.828c0,1.703,2.726,4.088,4.089,4.429
			c13.288,0.34,26.576,0.34,39.864,0.34C-1718.569-578.875-1718.569-587.394-1718.569-596.593z M-1544.123-757.751
			c0,11.243,0,21.806,0,33.049c2.385-0.341,4.429-0.341,6.133-0.341c0-11.244,0-21.806,0-32.368
			C-1540.034-757.751-1542.078-757.751-1544.123-757.751z M-1544.123-677.342c0,11.244,0,21.806,0,32.708c2.044,0,4.088,0,6.133,0
			c0-10.903,0-21.806,0-32.708C-1540.034-677.342-1541.737-677.342-1544.123-677.342z M-1544.463-596.593c0,9.54,0,18.398,0,27.257
			c0.341,0.34,1.022,0.681,1.363,1.022c1.704-1.704,4.77-3.407,5.111-5.11c0.682-7.837,0.341-15.333,0.341-23.169
			C-1540.034-596.593-1542.078-596.593-1544.463-596.593z M-1762.181-604.429c0.341,0,1.022,0,1.363,0c0-10.903,0-21.806,0-32.708
			c-0.341,0-1.022,0-1.363,0C-1762.181-625.895-1762.181-614.991-1762.181-604.429z M-1760.477-717.547c-0.34,0-1.022,0-1.363,0
			c0,10.903,0,21.806,0,32.709c0.341,0,1.022,0,1.363,0C-1760.477-695.741-1760.477-706.644-1760.477-717.547z M-1760.477-793.186
			c-0.34,0-1.022,0-1.363,0c0,9.199,0,18.398,0,27.598c0.341,0,1.022,0,1.363,0
			C-1760.477-774.787-1760.477-783.986-1760.477-793.186z"/>
		<path fill="#FF5200" d="M-2010.221-396.252c0-34.753,0-69.506,0-104.259c0-9.2,2.385-11.925,11.925-11.925
			c69.847,0,139.353,0,209.2,0c9.881,0,12.266,2.385,12.266,12.266c0,69.847,0,139.353,0,209.2c0,9.54-2.385,12.266-12.266,12.266
			c-69.847,0-139.353,0-209.2,0c-9.54,0-11.925-2.726-11.925-11.925C-2010.221-325.724-2010.221-360.817-2010.221-396.252z
			 M-1876.32-337.309c1.704,2.045,4.089,5.452,6.474,8.178c4.089,4.77,8.518,9.54,12.947,14.31
			c3.407,3.748,6.814,2.726,10.222-0.681c11.243-11.584,22.487-23.509,34.071-35.094c5.111-5.111,5.451-8.859,0.682-13.969
			c-2.044-2.385-4.089-4.43-6.474-6.474c-14.31-11.584-11.244-12.947-24.532,0c-1.704,1.704-3.748,3.407-5.451,5.11
			C-1857.921-356.389-1866.78-347.189-1876.32-337.309z M-1996.934-457.922c1.363,1.704,3.748,4.771,5.792,7.496
			c4.429,5.11,9.199,10.222,13.628,15.332c3.407,3.407,6.814,2.385,9.54-0.682c11.244-11.584,22.487-23.509,33.731-35.434
			c5.452-5.452,5.792-8.859,0.682-14.651c-2.385-2.385-4.77-5.11-7.496-7.496c-10.222-8.859-10.222-8.859-20.784-1.022
			c-1.022,0.681-2.044,1.362-2.726,2.044C-1974.787-480.409-1985.69-469.165-1996.934-457.922z M-1935.945-396.934
			c1.704,2.385,4.088,5.452,6.474,8.518c4.089,4.77,8.177,9.88,12.947,13.969c1.703,1.363,6.474,1.704,8.177,0.341
			c4.429-3.066,7.836-7.836,11.584-11.584c7.836-8.177,15.673-17.036,24.19-24.531c4.77-4.429,5.111-8.518,1.363-12.266
			c-5.111-5.451-11.244-10.221-17.036-14.991c-1.363-1.022-4.77-1.704-6.133-0.682c-5.111,3.748-10.222,8.177-14.65,12.606
			C-1917.888-416.695-1926.746-406.814-1935.945-396.934z M-1820.102-459.966c-1.022-3.066-1.022-5.111-2.044-6.474
			c-6.474-6.474-12.947-12.947-19.761-19.08c-1.363-1.022-5.111-1.363-6.133-0.341c-4.429,4.089-8.177,9.199-12.266,13.629
			c-3.067,3.407-6.474,6.474-9.54,9.54c-4.77,4.77-9.54,9.54-14.31,14.65c-2.726,3.066-1.363,4.771,1.363,7.155
			c5.111,4.429,9.881,9.54,14.31,14.651c4.089,4.77,9.881,5.452,13.629,1.704c9.199-9.199,18.398-17.717,27.257-26.917
			C-1824.531-454.515-1822.146-457.581-1820.102-459.966z M-1917.888-428.62c-0.681-1.363-1.363-2.726-2.385-3.748
			c-6.133-5.451-12.266-10.902-18.739-16.354c-0.682-0.682-2.726-1.022-3.748-0.682c-3.407,2.044-7.155,4.088-10.222,6.814
			c-7.836,7.155-14.991,14.651-22.487,22.146c-6.474,6.133-7.496,13.288-2.726,18.739c4.088,4.429,7.836,8.518,11.584,13.288
			c3.407,4.429,6.474,4.429,10.221,0.34c4.77-5.451,8.177-13.288,13.969-16.014c10.222-4.77,13.969-14.991,22.146-20.783
			C-1918.91-425.554-1918.569-427.257-1917.888-428.62z M-1942.078-392.504c-4.429,3.748-8.177,6.473-11.244,9.54
			c-6.133,5.792-11.925,11.584-17.717,18.058c-4.089,4.77-8.858,9.54-10.903,15.332c-0.682,2.044,5.111,6.474,7.836,9.881
			c0.682,1.022,1.022,2.044,2.044,2.726c3.066,3.066,6.133,6.133,9.54,8.518c1.363,1.022,4.429,1.022,5.451,0.341
			c4.089-3.066,8.178-6.814,11.925-10.222c4.088-4.088,7.836-8.177,11.925-12.266c5.11-5.111,10.562-10.562,16.354-16.354
			C-1925.383-375.469-1933.561-383.646-1942.078-392.504z M-1968.313-304.94c5.451,6.133,10.222,11.584,14.651,17.036
			c5.111,6.474,10.903,6.814,16.695,0.34c3.407-4.088,6.474-8.177,10.222-11.584c6.814-6.814,13.969-13.628,21.465-19.761
			c3.407-3.066,3.407-5.792,0.341-8.859c-5.451-5.11-11.584-9.88-16.695-14.991c-3.066-3.066-5.11-2.385-8.177,0.341
			c-6.133,5.792-12.607,10.903-18.399,17.036C-1955.366-319.25-1961.499-312.095-1968.313-304.94z M-1917.547-354.344
			c-0.34,12.266,9.54,19.42,17.376,27.257c0.682,0.682,2.385,1.363,3.067,1.022c4.429-3.066,9.199-6.133,12.947-9.54
			c3.407-3.407,6.133-7.837,9.54-11.244c4.429-4.77,9.54-8.858,14.31-13.288c3.066-2.726,4.429-5.452,1.022-9.199
			c-7.155-7.155-13.629-14.992-21.806-23.85c-5.792,6.133-9.881,10.562-14.31,15.332
			C-1902.896-370.357-1910.051-362.181-1917.547-354.344z M-1937.649-456.559c6.814,6.474,11.925,11.925,17.376,16.695
			c8.177,6.814,10.562,5.792,17.717-2.044c8.177-9.199,17.376-17.717,26.576-25.554c3.748-3.066,4.089-5.792,2.044-8.518
			c-6.474-7.496-13.628-14.651-21.806-23.169C-1909.71-484.838-1923.339-470.869-1937.649-456.559z M-1874.276-394.889
			c6.133,5.792,11.244,10.903,16.695,15.673c8.518,7.155,10.221,6.133,17.717-1.704c8.177-8.858,17.036-17.717,26.235-25.554
			c4.77-4.088,4.77-6.814,1.363-10.562c-5.452-5.792-10.903-11.925-16.695-17.376c-1.022-1.022-3.748-2.044-4.429-1.704
			c-3.748,2.044-7.496,4.77-10.562,7.836c-7.836,7.836-15.673,16.014-23.168,24.19
			C-1869.847-401.704-1871.891-398.296-1874.276-394.889z M-1882.794-333.561c-5.792,6.814-10.221,11.925-15.332,17.036
			c-6.814,7.155-14.31,14.31-21.124,21.465c-1.704,1.704-3.748,5.792-2.726,7.155c1.704,2.385,5.111,4.429,8.177,4.77
			c9.54,0.682,19.421,0.341,28.961,0c2.385,0,5.451-1.363,7.155-3.066c6.814-6.474,12.947-13.288,20.443-20.783
			C-1865.417-315.502-1873.254-323.68-1882.794-333.561z M-1840.204-282.794c13.288,2.726,23.85-3.407,31.346-16.695
			c1.363-2.385,4.089-4.429,6.474-6.133c4.089-3.066,3.066-6.473,0.341-8.858c-5.451-5.111-11.584-9.54-17.717-13.628
			c-1.704-1.022-5.452-1.022-6.814,0c-12.266,11.244-24.191,23.168-36.116,34.753c-1.022,1.022-2.044,4.429-1.363,5.451
			c1.704,2.044,4.429,4.429,6.814,4.77C-1852.129-282.453-1847.359-282.794-1840.204-282.794z M-1780.92-402.385
			c0-6.474,0.341-12.947,0-19.421c0-1.704-1.704-4.089-3.407-5.111c-0.681-0.681-3.407,0.681-4.429,1.704
			c-5.111,5.451-9.54,10.903-14.651,16.354c-2.726,2.726-6.133,4.77-8.858,7.496c-4.429,4.429-8.518,8.859-12.266,13.628
			c-0.682,1.022,0.341,4.771,1.363,6.133c4.77,5.111,9.881,9.881,14.65,14.992c4.77,5.452,10.562,5.111,14.651-0.681
			c1.022-1.363,1.704-3.066,3.066-3.748c9.881-4.43,11.584-12.606,10.221-22.487C-1780.92-396.252-1780.92-399.318-1780.92-402.385z
			 M-1784.327-485.52c-6.133,5.111-10.221,8.177-13.969,11.925c-6.474,6.474-12.947,13.288-19.42,20.103
			c-2.726,2.726-5.792,5.451-7.837,8.858c-1.022,1.363-0.34,5.111,1.022,6.474c4.77,4.77,9.881,9.54,14.991,13.97
			c6.133,5.11,8.178,5.11,13.629-0.682c14.991-15.332,14.991-15.332,14.991-36.457c0-4.088,0.341-8.518,0-12.606
			C-1781.261-477.342-1782.964-480.409-1784.327-485.52z M-2005.792-339.693c0.682,0.341,1.363,1.022,2.044,1.363
			c5.792-6.133,11.584-12.266,17.376-18.398c0.682-0.682,1.363-1.022,2.044-1.704c4.77-4.089,9.881-8.177,14.31-12.947
			c2.044-2.044,4.088-5.792,3.407-7.496c-4.429-10.562-13.969-16.695-22.828-23.509c-0.682-0.341-1.704,0-2.726,0
			c-5.111,1.363-14.31,12.266-14.31,17.376C-2006.133-369.676-2005.792-354.685-2005.792-339.693z M-1965.247-321.295
			c-3.748-4.088-7.496-8.858-11.925-12.947c-10.222-9.199-10.562-8.858-21.125-1.022c-1.363,1.022-3.066,2.044-4.088,3.407
			c-1.363,1.704-3.066,4.088-3.066,6.133c-0.341,12.266-0.341,24.532,0,36.797c0,1.704,1.022,4.77,2.044,5.111
			c1.704,0.341,4.77-0.341,6.133-1.363c10.222-9.54,19.762-19.762,29.643-29.643C-1966.61-315.843-1966.61-317.888-1965.247-321.295
			z M-1779.897-504.6c-2.044-1.022-4.43-3.066-6.474-3.407c-10.221-0.341-20.784,0.341-31.005-0.341
			c-7.836-0.681-12.947,2.385-17.376,8.518c-4.429,6.814-4.77,9.54,2.385,13.288c5.111,2.726,8.518,6.474,11.584,11.244
			c3.748,6.474,10.221,6.133,14.65,0.34c2.044-3.066,5.111-5.111,7.836-7.496c5.792-5.451,11.244-11.244,17.036-16.695
			C-1780.92-500.17-1780.92-501.874-1779.897-504.6z M-1780.92-375.809c-6.474,7.155-11.244,12.606-16.354,17.717
			c-4.77,4.77-9.54,9.881-14.991,13.628c-6.133,4.088-6.814,6.814-1.704,11.925c4.77,4.77,9.199,10.221,13.969,14.991
			c1.704,1.704,6.133,3.748,6.814,3.066c4.429-4.429,11.243-8.858,11.584-14.31C-1779.897-343.441-1780.92-358.773-1780.92-375.809z
			 M-1837.479-508.007c-16.695,0-32.027,0-47.019,0.341c-1.704,0-3.748,2.726-5.111,4.429c-0.682,1.022,0,3.748,0.681,4.429
			c5.111,5.452,10.903,10.222,16.354,15.673c3.748,3.748,7.496,3.407,10.903,0.341
			C-1853.833-490.63-1846.337-498.808-1837.479-508.007z M-1976.831-426.917c-9.2-9.199-17.376-17.717-25.554-25.894
			c-1.363,0.34-2.385,0.681-3.748,1.022c0,17.036,0,34.071,0,51.107c0.682,0.341,1.363,1.022,2.044,1.363
			C-1994.889-408.177-1986.371-417.036-1976.831-426.917z M-2005.792-462.01c4.429-3.066,8.518-5.111,11.925-8.177
			c4.43-4.429,8.177-9.881,12.947-14.31c3.407-3.407,2.726-6.133,0-8.859c-5.111-4.77-10.222-9.199-15.673-13.288
			c-4.089-3.066-8.858-1.363-8.858,3.748C-2006.133-489.608-2005.792-475.979-2005.792-462.01z M-1895.741-505.962
			c-0.34-0.341-0.681-0.681-1.363-1.363c-16.695,0-33.39,0-50.426,0c0.681,1.704,1.022,2.726,1.704,3.407
			c6.474,4.77,12.947,9.199,17.036,16.695c3.407,5.792,9.881,4.429,13.628-1.022c1.363-2.044,3.407-3.748,5.111-5.452
			C-1905.281-497.785-1900.511-501.874-1895.741-505.962z M-1780.92-315.843c-11.244,11.244-21.465,21.465-33.049,33.049
			c10.903,0,19.421,0.341,27.938-0.341c1.704,0,4.77-3.066,4.77-4.77C-1780.579-296.763-1780.92-305.622-1780.92-315.843z
			 M-1990.119-284.838c0.341,0.34,1.022,1.022,1.363,1.363c10.221,0,20.783,0,27.598,0c-3.407-4.089-8.177-9.54-13.629-15.673
			C-1979.557-295.06-1985.008-289.949-1990.119-284.838z M-1988.075-507.666c14.651,16.014,17.717,18.058,28.96,0
			C-1968.654-507.666-1978.194-507.666-1988.075-507.666z"/>
		<path fill="#FF5200" d="M-1290.29-681.431c0,34.753,0,69.506,0,104.259c0,9.881-2.385,12.266-12.266,12.266
			c-69.847,0-139.353,0-209.2,0c-9.54,0-12.266-2.385-12.266-12.266c0-69.847,0-139.353,0-209.199
			c0-9.54,2.385-11.925,11.925-11.925c69.847,0,140.034,0,209.88,0c9.2,0,11.925,2.726,11.925,11.925
			C-1290.29-751.618-1290.29-716.524-1290.29-681.431z M-1445.315-680.75v0.341c-9.881,0-19.421,0-29.302,0
			c-5.452,0-8.518,3.066-8.518,7.836c-0.341,7.496,0,14.651,0.341,22.146c0.341,5.792,3.066,8.177,9.54,8.177
			c19.421-0.682,38.501-0.341,57.922-1.022c2.385,0,6.133-3.066,6.474-5.111c1.363-8.177,1.703-16.354,2.044-24.872
			c0.341-3.407-0.681-5.792-5.11-5.792C-1422.828-679.387-1434.071-680.068-1445.315-680.75z M-1519.25-719.591
			c0,11.925,0,23.168,0,34.412c10.562,0,20.442,0,30.664,0c12.947,0,26.235,0,39.182,0.341c6.133,0,10.222-3.066,10.562-9.199
			c0.34-4.43-0.682-8.859,0.34-12.947c3.066-10.562,0-12.606-10.562-12.606c-17.036,0-34.071,0-51.107,0
			C-1506.303-719.591-1512.777-719.591-1519.25-719.591z M-1440.886-725.383c8.858,0,17.717-0.341,26.235,0
			c6.133,0.341,9.199-2.385,9.88-8.177c0.682-7.836,0.682-15.673,0.341-23.509c0-1.363-3.066-3.748-4.77-4.088
			c-8.177-0.682-16.014-1.022-24.191-1.022c-12.266,0-24.531,0.341-36.797,1.363c-7.496,0.681-9.54,3.407-9.2,10.902
			c0.341,4.771,0.682,9.54,1.022,14.311c1.022,7.836,3.066,9.881,11.243,10.221
			C-1458.603-725.383-1449.744-725.383-1440.886-725.383z M-1398.637-719.591L-1398.637-719.591c-8.177,0-16.014,0.34-24.191,0
			c-6.133,0-9.54,2.385-9.199,8.858c0,4.77-0.682,9.54-1.022,14.31c-1.022,8.858,3.066,12.266,12.266,12.266
			c15.333-0.34,30.665-0.34,45.997-0.34c4.77,0,7.836-1.363,7.836-6.474c0.341-7.496,0.341-14.651,0.341-22.146
			c0-5.452-2.726-7.155-8.177-6.814C-1382.964-719.25-1390.801-719.591-1398.637-719.591z M-1402.385-569.676
			c28.279,0,55.536,0,82.794,0c0-7.155,0.34-13.969,0-20.443c-0.341-4.089-2.385-6.814-7.837-6.474
			c-14.65,0.682-28.96,1.022-43.611,1.022c-8.177,0-16.695-0.682-24.872-0.341c-2.044,0-5.792,3.066-5.792,4.77
			C-1402.726-584.327-1402.385-577.172-1402.385-569.676z M-1295.06-685.179c0-12.266,0-23.169,0-34.072
			c-20.102,0-39.523,0-58.603,0c-5.111,0-7.155,2.726-7.155,7.496c0,7.155-0.34,14.311,0,21.465c0,1.704,3.066,4.77,4.77,4.77
			C-1335.945-685.179-1315.502-685.179-1295.06-685.179z M-1408.177-569.676c-0.682-7.155-1.022-13.969-1.704-20.784
			c-0.34-4.089-2.385-5.792-6.814-5.792c-21.806,0-43.612-0.341-65.077-0.341c-3.748,0-5.792,1.363-6.133,5.451
			c-0.341,7.155-1.363,13.97-2.044,21.806C-1463.032-569.676-1436.457-569.676-1408.177-569.676z M-1348.552-726.405
			c7.155,1.363,9.881-1.022,9.881-8.177c0.341-6.133,1.022-12.606,0.681-18.739c0-4.77-2.044-9.2-8.177-8.859
			c-15.673,0.341-31.346,1.022-47.019,1.022c-4.088,0-6.133,1.703-6.133,5.792c0,6.133,0,12.266,0,18.398
			c0,10.903,2.726,12.947,13.629,12.266C-1373.083-725.383-1360.817-725.724-1348.552-726.405z M-1401.704-676.661
			c0,9.199,0.341,18.058,0,26.917c-0.34,5.451,2.044,6.814,6.814,6.814c9.54-0.341,18.739,0.341,28.279,0
			c24.872-1.022,22.828,1.363,23.168-23.168c0-10.903,0-10.903-10.903-10.903c-2.044,0-4.088-0.34-6.133-0.681
			C-1374.105-679.046-1387.394-681.431-1401.704-676.661z M-1324.021-638.501c0,0.341,0,0.341,0,0.682c-7.155,0-14.31,0-21.465,0
			c-4.089,0-5.792,1.022-5.452,5.792c0.682,6.814,0.682,13.97,0.682,20.784c0,8.518,1.704,10.562,10.562,10.222
			c13.288-0.341,26.576-1.022,40.205-1.022c4.088,0,5.111-1.704,5.111-5.452c-0.341-7.496-0.341-15.333,0-22.828
			c0-5.792-2.726-7.836-8.177-7.836C-1309.71-638.501-1316.865-638.501-1324.021-638.501z M-1387.734-794.208
			c-0.681,7.155-1.703,13.288-1.703,19.762c-0.341,5.792,3.066,8.858,9.199,8.518c14.65-0.681,29.302-1.362,44.293-1.362
			c22.487-0.341,23.509-1.363,20.443-23.851c0-1.022-0.341-1.703-0.681-2.726C-1340.715-794.208-1364.225-794.208-1387.734-794.208z
			 M-1386.371-637.819c-6.814,0-13.288,0.341-20.103,0c-5.792-0.341-7.496,2.044-7.155,7.155c0.341,7.836,0.341,15.673,1.363,23.509
			c0.341,1.704,3.407,4.771,5.111,4.771c14.651,0.341,29.642,0.341,44.293,0c2.044,0,5.792-3.066,5.792-4.771
			c0.341-8.177-0.34-16.695-0.681-24.872c-0.341-3.748-2.385-5.451-6.474-5.451
			C-1371.721-637.479-1379.216-637.819-1386.371-637.819z M-1446.678-602.726v0.341c6.474,0,12.947,0,19.421,0
			c4.429,0,7.155-2.044,7.155-6.474c-0.341-8.177-0.682-16.014-1.704-24.191c-0.341-1.704-3.066-4.429-4.77-4.429
			c-14.31-0.682-28.62-0.682-42.93-0.682c-2.044,0-5.111,3.407-5.451,5.452c-0.341,7.496,0.681,14.991,1.022,22.487
			c0.34,6.133,3.748,7.496,9.199,7.496C-1458.603-603.066-1452.811-602.726-1446.678-602.726z M-1294.719-679.728
			c-12.266,0-24.191-0.341-35.775,0.341c-2.385,0-6.133,2.726-6.474,4.77c-1.362,6.474-1.362,13.288-1.703,19.762
			c-0.682,11.244,0,11.584,10.903,10.562c3.748-0.341,7.496,0,10.903,0c7.155,0,14.651,0,21.806,0
			C-1294.719-655.877-1294.719-667.121-1294.719-679.728z M-1295.06-726.405c0-11.584,0-22.828,0-34.753
			c-9.881,0-19.08,0.341-28.279,0c-6.814-0.341-9.54,2.726-9.54,8.518c0,8.177,0.341,16.695,1.363,24.872
			c0,1.363,3.066,3.748,4.77,3.407C-1316.184-725.042-1305.622-725.724-1295.06-726.405z M-1519.25-602.726
			c10.221,0,20.102-0.682,29.642,0.341c6.814,0.681,8.858-2.385,8.858-7.837c0-7.836-0.681-15.673-1.363-23.509
			c0-1.363-2.385-3.748-3.748-3.748c-10.903-0.341-22.146,0-33.39,0C-1519.25-625.895-1519.25-614.65-1519.25-602.726z
			 M-1448.381-793.867c-16.354,0-31.687,0-47.7,0c0.681,6.814,1.022,13.288,1.704,19.421c0.681,7.496,4.429,9.881,11.925,8.858
			c9.54-1.021,19.08-2.044,28.62-2.044c4.089,0,6.474-1.022,6.474-5.111C-1447.359-779.557-1448.041-786.371-1448.381-793.867z
			 M-1394.548-793.186c-1.363-0.682-2.044-1.022-2.385-1.022c-10.221,0-20.443,0-30.323,0c-16.354,0-17.377,1.363-14.311,17.718
			c0,0.681,0.341,1.362,0.341,2.044c0.682,6.474,4.429,8.518,10.222,8.518c9.54,0,18.739,0,28.279,0c4.77,0,7.155-2.044,7.496-6.814
			C-1395.23-779.897-1394.889-786.371-1394.548-793.186z M-1519.25-725.383c10.562,0,20.783,0.341,30.664-0.341
			c2.385,0,6.133-3.748,6.133-5.792c0-8.518-1.022-17.036-2.044-25.213c-0.34-2.044-3.407-4.77-5.111-5.111
			c-9.88-0.341-19.761-0.341-29.642-0.341C-1519.25-749.233-1519.25-738.331-1519.25-725.383z M-1488.586-679.387
			c-10.903,0-20.443,0-30.664,0c0,11.584,0,23.509,0,34.753c7.836,0.341,15.332,0.682,22.828,1.022c4.088,0,7.496-1.363,7.496-6.133
			C-1488.586-658.944-1488.586-668.484-1488.586-679.387z M-1519.591-595.911c0,7.496-0.341,14.65,0.341,21.806
			c0,1.703,3.066,4.77,4.77,4.77c6.133,0.682,12.266,0.341,18.399,0.341c0.681-4.77,2.044-8.518,1.363-12.266
			c-1.704-14.31,1.363-15.673-14.31-15.332C-1512.095-596.934-1515.502-596.252-1519.591-595.911z M-1501.533-794.208
			c-4.429,0-8.858-0.341-13.288,0.341c-1.703,0.341-4.088,2.385-4.088,4.089c-0.341,7.836-0.341,15.673-0.341,23.168
			c3.748,0,6.474-0.34,9.54,0c7.155,0.682,9.54-1.704,9.54-9.199C-1500.852-781.602-1501.192-787.734-1501.533-794.208z
			 M-1312.436-569.335c4.77,0,9.199,0.681,12.947-0.341c2.044-0.341,4.77-3.066,4.77-4.77c0.681-7.155,0.341-13.969,0.341-21.124
			c-2.385-0.341-4.43-0.682-6.133-0.682c-9.881-0.682-10.903,0.341-11.925,10.222
			C-1312.777-580.579-1312.436-575.469-1312.436-569.335z M-1294.378-768.654c0-4.088,0-8.518,0-12.947
			c0-13.288,0-13.288-13.288-12.266c-0.341,0-0.682,0.341-1.704,1.022c0,4.088,0,8.858,0,13.288
			c0.341,13.288,0.341,13.288,13.969,11.925C-1295.4-767.973-1295.4-767.973-1294.378-768.654z"/>
		<path fill="#FF5200" d="M-1893.356,7.496c-34.753,0-69.506,0-104.259,0c-10.222,0-12.606-2.385-12.606-12.606
			c0-69.506,0-139.012,0-208.518c0-9.881,2.385-12.266,12.266-12.266c69.847,0,139.353,0,209.199,0
			c9.54,0,12.266,2.385,12.266,12.266c0,69.846,0,139.353,0,209.199c0,9.199-2.726,11.925-11.925,11.925
			C-1823.509,7.496-1858.262,7.496-1893.356,7.496z M-1853.833-107.666c10.903-0.341,19.08,1.022,26.576-6.474
			c10.221-10.222,17.717-19.762,16.014-35.435c-1.022-7.496-2.726-12.947-8.178-17.717c-4.088-3.407-7.836-6.814-11.925-10.562
			c-4.77-4.429-34.071-5.451-38.842-1.022c-5.792,5.111-11.584,10.562-17.036,16.014c-1.022,1.022-2.726,2.726-2.726,3.748
			c1.022,13.629-5.111,27.939,9.54,39.183C-1871.55-112.436-1864.054-104.259-1853.833-107.666z M-1851.107-102.215
			c-4.088,0-7.836-0.34-11.925,0c-2.726,0.341-6.133,1.022-8.177,2.726c-5.451,4.77-10.903,9.88-16.014,15.332
			c-1.704,2.044-3.066,5.111-3.407,7.836c-2.726,16.695,0.682,30.665,16.014,40.545c2.044,1.363,3.407,3.066,5.111,4.77
			c1.022,1.022,2.385,2.044,3.407,2.044c14.31-1.022,29.642,4.77,41.227-9.881c6.474-8.177,14.31-14.65,11.925-26.576
			c-0.341-1.704,0.682-3.748,0.682-5.451c0-3.748,1.022-8.859-1.022-10.562C-1824.191-90.971-1831.687-107.666-1851.107-102.215z
			 M-1936.286-108.348c11.244,2.385,19.08-1.363,27.598-8.858c10.903-9.199,12.266-19.762,11.925-32.368
			c0-7.836-3.066-12.947-8.177-18.398c-9.54-10.903-20.443-14.651-34.753-13.629c-8.858,0.682-14.992,3.748-21.806,8.859
			c-11.584,8.858-13.629,19.761-13.288,33.049c0.34,7.836,2.726,13.288,8.177,18.398
			C-1957.41-113.118-1949.915-102.896-1936.286-108.348z M-1938.331-28.62c10.222-0.682,18.399,1.704,24.532-5.792
			c4.089-4.77,8.858-8.859,13.288-13.288c4.088-4.088,5.451-31.005,2.044-35.775c-0.682-1.022-1.704-1.704-2.385-2.385
			c-4.771-4.429-9.54-8.858-14.311-13.288c-1.363-1.363-3.407-3.407-5.11-3.407c-14.31,1.022-30.665-5.792-42.249,9.54
			c-3.407,4.429-10.562,8.177-10.903,12.606c-1.022,14.31-4.77,29.301,10.562,40.886
			C-1954.344-33.049-1947.189-25.895-1938.331-28.62z M-1812.606-221.465c-25.894,0-51.448,0-77.001,0
			c-2.385,9.199-0.341,16.014,7.496,21.465c3.066,2.044,6.133,5.111,8.518,8.177c4.088,4.77,9.199,5.452,15.332,6.133
			c15.673,1.704,28.279-2.385,39.182-14.651C-1813.288-206.814-1809.881-212.266-1812.606-221.465z M-1973.424-221.465
			c-2.726,9.54,0,16.354,7.496,21.806c2.385,1.704,4.088,3.748,5.792,5.792c5.452,5.452,11.584,7.496,19.421,8.177
			c15.673,1.363,26.917-3.748,37.479-15.332c5.792-6.474,7.155-12.606,5.792-20.443
			C-1922.998-221.465-1948.211-221.465-1973.424-221.465z M-1974.787,3.066c26.576,0,52.13,0,77.343,0
			c0.682-8.858-19.762-27.938-29.643-27.938c-24.872,0-24.872,0-44.633,20.443C-1973.765-3.066-1973.765,0-1974.787,3.066z
			 M-1889.608,3.066c25.554,0,51.107,0,77.683,0c-2.044-12.266-13.288-16.695-20.103-24.191c-7.836-8.518-19.421-2.726-28.961-3.748
			C-1869.165-25.554-1889.949-4.77-1889.608,3.066z M-2005.451-26.917c8.858-8.518,16.014-15.332,23.168-22.487
			c0.682-0.681,1.022-2.385,1.363-3.748c1.022-17.036,2.385-34.072-16.354-43.612c-1.022-0.681-1.704-1.704-2.385-2.385
			c-1.703-1.363-3.407-2.385-5.792-3.748C-2005.451-77.683-2005.451-53.492-2005.451-26.917z M-2003.748-181.942
			c-0.682,0.34-1.022,0.681-1.704,1.363c0,24.19,0,48.381,0,74.617c3.407-3.066,5.792-5.111,8.177-6.814
			c13.969-9.199,19.421-21.806,16.354-38.16c-0.681-3.066,1.022-7.496-0.681-9.54
			C-1988.416-167.973-1996.252-174.787-2003.748-181.942z M-1781.261-182.283c-6.133,5.452-11.243,10.221-16.695,14.651
			c-5.452,4.429-7.155,9.881-7.836,17.036c-1.363,15.332,2.726,26.917,15.332,35.435c3.066,2.044,5.452,4.77,9.199,8.177
			C-1781.261-132.198-1781.261-156.389-1781.261-182.283z M-1780.92-103.918c-5.111,4.429-8.177,8.518-12.266,10.903
			c-10.222,6.814-13.969,16.013-12.266,28.279c0.682,4.429-1.363,10.562,1.022,13.628c6.474,8.177,14.651,14.992,23.509,23.85
			C-1780.92-53.492-1780.92-77.683-1780.92-103.918z M-1788.756-26.917c-7.155-6.474-13.969-12.266-19.421-17.376
			c-6.133,5.451-12.947,11.244-20.102,17.036c7.155,7.155,13.628,13.288,19.421,19.08
			C-1802.385-14.31-1795.911-20.443-1788.756-26.917z M-1912.777-26.917c6.814,6.814,13.288,12.947,19.08,19.08
			c6.814-6.474,13.288-12.606,19.761-18.739c-6.814-6.814-13.288-12.947-19.421-19.08
			C-1899.148-39.523-1905.622-33.731-1912.777-26.917z M-1977.172-9.199c6.133-5.792,12.606-11.584,19.08-17.376
			c-6.814-6.814-12.947-13.288-18.399-19.08c-6.474,6.133-12.947,12.266-19.421,18.398
			C-1989.438-20.784-1982.964-14.651-1977.172-9.199z M-1826.917-184.327c6.133,6.474,12.266,12.606,18.399,19.08
			c6.474-6.474,12.266-12.606,17.717-17.717c-6.133-6.474-11.925-12.606-17.717-18.739
			C-1814.991-195.571-1821.124-189.778-1826.917-184.327z M-1977.513-124.361c-5.451,5.792-10.903,10.903-16.014,16.695
			c-1.022,1.022-1.363,4.429-0.341,5.111c5.452,5.792,11.244,10.903,15.333,14.991c7.496-6.133,13.969-11.584,20.784-17.376
			C-1964.565-111.755-1970.698-117.547-1977.513-124.361z M-1893.356-86.201c5.792-5.792,11.584-10.903,17.036-16.354
			c0.682-1.022,1.022-3.748,0.341-4.77c-5.111-6.133-10.562-11.925-15.332-17.036c-7.837,7.155-14.311,13.288-20.443,18.739
			C-1905.281-99.148-1899.489-92.675-1893.356-86.201z M-1809.199-122.658c-5.451,5.452-11.584,11.584-17.717,17.376
			c6.133,6.474,11.925,12.606,18.058,18.739c6.474-6.473,12.606-12.266,19.08-19.08
			C-1795.911-111.073-1802.385-116.865-1809.199-122.658z M-1911.414-184.327c6.133,6.474,11.925,12.947,18.058,19.421
			c6.133-5.792,11.925-10.903,17.376-16.354c0.682-0.681,1.363-3.407,0.682-4.088c-5.792-6.133-11.925-11.584-17.376-17.036
			C-1899.489-195.571-1905.622-189.778-1911.414-184.327z M-1958.773-183.305c-6.474-6.474-12.266-12.606-18.739-19.08
			c-6.133,6.474-12.266,12.606-18.399,18.739c6.133,6.474,11.925,12.947,17.717,19.08
			C-1971.039-171.38-1964.565-177.513-1958.773-183.305z M-1981.942-221.806c-6.474,0-13.288-0.341-19.762,0
			c-1.363,0-4.088,2.385-4.088,3.407c-0.341,10.562-0.341,21.124-0.341,31.687c0.682,0.341,1.022,0.681,1.704,1.022
			c4.77-4.088,8.859-8.858,13.969-12.606C-1982.283-203.748-1978.535-210.903-1981.942-221.806z M-1805.792-221.806
			c0.341,5.451-1.022,11.584,1.704,14.65c6.474,7.837,14.31,14.311,21.806,21.125c1.704-10.903,1.704-21.125,1.363-31.346
			c0-1.704-2.726-4.429-4.429-4.429C-1791.823-222.146-1798.296-221.806-1805.792-221.806z M-1981.261,3.407
			c0.341-6.814-17.036-25.554-24.872-27.598c0,7.836-0.341,15.333,0.341,22.828c0,1.704,3.066,4.429,4.77,4.77
			C-1994.208,3.748-1988.075,3.407-1981.261,3.407z M-1780.92-24.191c-0.682-0.34-1.363-0.34-1.704-0.681
			c-7.155,9.199-19.08,14.65-23.85,28.279c8.518,0,14.992,0.341,21.125-0.341c1.704,0,4.429-3.066,4.429-4.429
			C-1780.579-8.858-1780.92-16.695-1780.92-24.191z"/>
		<path fill="#FF5200" d="M-1406.814-512.095c34.753,0,69.506,0,104.259,0c10.221,0,12.606,2.385,12.606,12.606
			c0,69.506,0,139.012,0,208.518c0,9.88-2.385,12.266-12.266,12.266c-69.847,0-139.353,0-209.2,0
			c-9.88,0-12.266-2.385-12.266-12.266c0-69.847,0-139.353,0-209.2c0-9.54,2.385-11.925,11.925-11.925
			C-1477.001-512.095-1441.908-512.095-1406.814-512.095z M-1409.881-328.791c0-23.509,0-45.997,0-68.825
			c-23.509,0-46.678,0-69.506,0c0,23.169,0,45.997,0,68.825C-1456.218-328.791-1433.39-328.791-1409.881-328.791z
			 M-1479.728-474.276c0,23.168,0,45.997,0,68.825c23.51,0,46.678,0,69.847,0c0-23.169,0-45.997,0-68.825
			C-1433.39-474.276-1456.559-474.276-1479.728-474.276z M-1333.901-328.791c0-22.828,0-45.656,0-68.825
			c-22.828,0-45.656,0-68.483,0c0,23.169,0,45.997,0,68.825C-1379.216-328.791-1356.729-328.791-1333.901-328.791z
			 M-1402.044-474.276c0,23.168,0,45.997,0,68.484c23.168,0,45.996,0,68.483,0c0-23.169,0-45.656,0-68.484
			C-1356.388-474.276-1379.216-474.276-1402.044-474.276z M-1480.068-283.475c23.85,0,47.019,0,69.847,0c0-12.947,0-25.554,0-38.16
			c-23.509,0-46.678,0-69.847,0C-1480.068-308.688-1480.068-296.082-1480.068-283.475z M-1402.385-321.635
			c0,13.288,0,25.553,0,38.16c23.168,0,45.656,0,68.824,0c0-12.947,0-25.553,0-38.16
			C-1356.729-321.635-1379.216-321.635-1402.385-321.635z M-1519.25-405.792c11.584,0,22.146,0,33.049,0c0-23.169,0-45.997,0-68.484
			c-11.244,0-22.147,0-33.049,0C-1519.25-451.107-1519.25-428.62-1519.25-405.792z M-1518.91-397.956c0,23.168,0,45.997,0,68.825
			c11.244,0,21.806,0,32.709,0c0-23.169,0-45.997,0-68.825C-1497.444-397.956-1508.007-397.956-1518.91-397.956z M-1294.719-405.451
			c0-23.169,0-45.997,0-68.484c-10.562,0-20.784,0-31.005,0c0,23.169,0,45.656,0,68.484
			C-1315.502-405.451-1305.281-405.451-1294.719-405.451z M-1294.719-397.615c-10.903,0-20.784,0-31.005,0
			c0,23.169,0,45.997,0,68.825c10.562,0,20.784,0,31.005,0C-1294.719-351.959-1294.719-374.787-1294.719-397.615z
			 M-1480.068-482.112c23.85,0,47.019,0,70.187,0c0-8.858,0-17.036,0-25.213c-23.509,0-46.678,0-70.187,0
			C-1480.068-498.808-1480.068-490.971-1480.068-482.112z M-1333.561-481.771c0-9.199,0-17.377,0-25.554
			c-23.168,0-45.997,0-68.483,0c0,8.858,0,17.036,0,25.554C-1379.216-481.771-1356.729-481.771-1333.561-481.771z
			 M-1486.201-282.794c0-13.288,0-25.895,0-38.501c-11.243,0-21.806,0-33.39,0c0,11.584-0.341,22.487,0.341,33.731
			c0,1.704,3.066,4.77,4.77,4.77C-1505.281-282.794-1496.082-282.794-1486.201-282.794z M-1325.724-321.635
			c0,13.288,0,25.894,0,38.841c8.859,0,17.376,0.341,25.895-0.341c1.704,0,5.111-2.385,5.111-4.088
			c0.341-11.584,0.341-22.828,0.341-34.753C-1305.281-321.635-1315.162-321.635-1325.724-321.635z M-1486.201-508.007
			c-9.88,0-19.421,0-29.301,0c-1.363,0-4.089,2.044-4.089,3.407c-0.34,7.496-0.34,14.991-0.34,22.146c11.925,0,22.487,0,33.39,0
			C-1486.201-490.971-1486.201-499.148-1486.201-508.007z M-1294.378-481.771c0-7.496,0.341-14.311-0.341-20.784
			c0-1.703-2.385-5.11-4.089-5.11c-9.199-0.341-18.398-0.341-27.257-0.341c0,9.199,0,17.376,0,26.235
			C-1315.502-481.771-1305.281-481.771-1294.378-481.771z"/>
		<path fill="#FF5200" d="M-2135.945-225.895c34.412,0,69.165,0,103.578,0c10.221,0,12.606,2.385,12.606,12.606
			c0,69.506,0,139.012,0,208.518c0,9.881-2.385,12.266-12.266,12.266c-69.847,0-139.353,0-209.2,0
			c-9.881,0-12.266-2.385-12.266-12.266c0-69.847,0-139.353,0-209.199c0-9.54,2.385-11.925,11.925-11.925
			C-2206.133-225.895-2171.039-225.895-2135.945-225.895z M-2139.353-114.14c-11.244,10.222-23.169,21.465-34.412,31.687
			c11.925,12.266,23.509,23.85,34.753,35.435c11.244-11.244,22.487-22.487,34.412-34.072
			C-2116.184-92.334-2128.45-103.578-2139.353-114.14z M-2104.94-158.092c-11.584-11.584-23.168-23.51-34.071-34.413
			c-11.244,11.244-23.169,22.828-33.39,33.049c11.244,11.244,22.828,23.169,33.731,34.413
			C-2127.768-136.286-2116.184-147.53-2104.94-158.092z M-2144.123-42.249c-11.244-11.244-23.168-22.828-34.412-34.413
			c-11.244,11.244-22.828,22.487-33.731,33.39c11.584,11.584,23.169,23.169,34.412,34.753
			C-2166.61-19.421-2155.025-31.005-2144.123-42.249z M-2100.511-154.003c-11.585,11.244-22.828,22.828-33.731,33.731
			c11.244,11.244,23.169,23.168,34.072,34.071c11.584-10.903,23.509-22.146,34.753-32.708
			C-2077.683-131.175-2089.608-142.76-2100.511-154.003z M-2145.826-120.613c-10.222-10.222-21.806-22.146-32.708-33.39
			c-10.903,10.903-22.487,22.146-34.412,33.731c11.925,11.244,23.509,22.487,36.116,34.412
			C-2166.61-97.104-2156.048-109.37-2145.826-120.613z M-2100.17-8.177c11.244-11.244,22.828-22.828,33.731-34.071
			c-11.243-11.244-23.168-23.169-34.071-34.072c-11.244,11.244-22.828,22.487-34.072,33.731
			C-2123.339-31.346-2111.754-19.762-2100.17-8.177z M-2095.4-159.795c11.585,11.925,23.169,23.509,34.072,34.753
			c11.244-11.244,22.487-22.487,33.731-33.39c-11.244-11.244-23.169-23.169-34.412-34.412
			C-2073.254-181.942-2084.838-170.698-2095.4-159.795z M-2095.06-81.771c11.244,11.243,22.828,23.168,33.731,34.071
			c11.244-10.903,22.487-22.487,33.731-33.39c-11.584-11.244-23.169-22.828-35.775-35.094
			C-2073.935-104.6-2084.838-92.675-2095.06-81.771z M-2218.058-194.208c-9.54,9.54-19.762,19.421-28.961,29.983
			c-1.704,1.703-2.044,7.496-0.682,9.199c9.881,10.562,20.103,20.784,28.961,29.642c12.266-12.266,23.85-23.509,34.753-34.412
			C-2194.889-170.698-2206.133-181.942-2218.058-194.208z M-2218.058-47.019c12.266-12.266,23.509-23.51,34.753-34.753
			c-11.244-10.903-22.828-22.487-34.412-33.731c-9.54,9.54-20.103,19.08-29.643,29.301c-1.703,1.704-1.703,7.836,0,9.54
			C-2237.819-66.099-2227.598-56.559-2218.058-47.019z M-2134.583-199.318c12.266,12.606,23.509,24.19,34.412,35.434
			c11.244-11.244,22.828-22.487,35.435-35.094c-3.748-3.407-8.518-6.133-11.584-10.221c-8.177-11.244-18.739-14.651-32.027-12.606
			c-2.044,0.341-4.429,0.681-5.792,1.704C-2121.294-212.947-2128.45-205.792-2134.583-199.318z M-2213.288-198.978
			c12.266,12.266,23.509,23.85,34.753,35.435c11.244-11.584,22.487-23.168,34.753-35.775c-3.066-2.726-7.496-5.792-10.562-9.881
			c-8.177-11.244-18.739-14.651-32.027-12.606c-2.044,0.341-4.429,0.681-5.792,1.704
			C-2198.978-212.947-2206.133-205.792-2213.288-198.978z M-2139.693-37.819c-11.243,11.244-22.828,22.828-34.412,34.412
			c2.726,4.77,6.814,7.155,13.288,7.155c14.65-0.341,29.643-0.341,44.293,0c5.792,0,9.54-2.385,11.925-6.474
			C-2116.524-14.991-2128.109-26.576-2139.693-37.819z M-2061.329-37.138c-11.584,11.243-23.168,22.487-34.753,34.071
			c3.067,4.77,7.155,6.814,13.288,6.474c14.311-0.341,28.62-0.341,42.93,0c6.133,0.341,10.222-1.704,12.607-6.474
			C-2038.842-14.651-2050.426-26.235-2061.329-37.138z M-2218.058-38.501c-9.54,9.54-19.762,19.421-29.302,29.643
			c-1.703,1.703-2.044,6.133-1.363,8.177c1.022,2.044,4.429,3.748,7.155,3.748c15.673,0.341,31.346,0,47.019,0.341
			c5.792,0,9.54-2.044,11.925-6.474C-2193.867-14.651-2205.451-26.235-2218.058-38.501z M-2023.85-86.882
			c0-21.465,0-42.589,0-63.714c0-0.682-0.34-1.022-0.34-1.022c-10.903,10.562-21.806,21.465-32.709,32.708
			C-2046.678-108.688-2035.435-98.126-2023.85-86.882z M-2023.85-74.617c-11.584,11.244-22.146,22.146-32.708,32.368
			c10.562,10.562,21.465,21.124,32.708,32.708c0-1.704,0-3.066,0-4.77C-2023.85-34.412-2023.85-54.515-2023.85-74.617z
			 M-2058.262-199.318c11.584,11.584,22.828,22.828,34.072,34.071c0-16.014,0-32.027,0-48.381c0-2.726-1.363-7.496-2.385-7.496
			c-3.407-0.34-8.177,0-10.562,2.044C-2044.634-212.947-2051.448-205.792-2058.262-199.318z M-2248.722-16.695
			c9.2-8.858,18.058-17.717,25.213-24.872c-8.519-8.858-17.036-18.058-25.213-26.576
			C-2248.722-51.448-2248.722-33.731-2248.722-16.695z M-2222.146-118.91c-9.199-9.54-18.058-18.739-26.235-27.598
			c0,17.376,0,35.094,0,52.47C-2239.522-102.555-2230.323-111.414-2222.146-118.91z M-2221.124-199.318
			c-6.814-6.474-13.97-13.629-21.125-20.784c-3.407-3.066-6.474-2.385-6.474,2.385c-0.34,15.333,0,30.665,0,46.337
			C-2239.864-180.579-2230.664-189.778-2221.124-199.318z M-2079.387-221.465c6.133,6.133,12.606,12.606,17.377,17.376
			c6.133-5.452,12.606-11.584,18.739-17.376C-2055.196-221.465-2067.802-221.465-2079.387-221.465z M-2197.615-221.125
			c-13.288,0-25.554,0-36.797,0c5.792,5.792,11.925,12.266,18.058,18.74C-2210.562-208.518-2204.429-214.31-2197.615-221.125z
			 M-2158.773-221.465c6.814,6.814,12.947,12.606,18.739,18.398c5.792-5.792,12.266-12.266,18.058-18.398
			C-2133.561-221.465-2145.485-221.465-2158.773-221.465z"/>
		<path fill="#FF5200" d="M-1406.814,7.496c-34.753,0-69.506,0-104.259,0c-10.222,0-12.606-2.385-12.606-12.606
			c0-69.506,0-139.012,0-208.518c0-9.881,2.385-12.266,12.266-12.266c69.847,0,139.353,0,209.199,0
			c9.54,0,12.266,2.385,12.266,12.266c0,69.846,0,139.353,0,209.199c0,9.199-2.726,11.925-11.925,11.925
			C-1336.968,7.496-1372.062,7.496-1406.814,7.496z M-1344.804-49.745c1.363-7.836,0-12.947-7.155-17.717
			c-11.584-7.836-20.784-9.199-32.368-0.34c-5.792,4.429-8.858,7.496-9.199,15.332c-0.341,9.881,2.385,14.992,11.584,20.102
			c10.222,5.792,17.036,6.814,26.917,0C-1348.211-37.138-1341.056-40.545-1344.804-49.745z M-1344.804-161.158
			c3.407-9.881-1.704-14.992-10.562-17.717c-1.022-0.341-2.044-1.022-3.066-1.704c-6.133-4.77-11.584-4.429-19.08-0.682
			c-11.925,5.792-18.058,12.606-15.673,26.576c0.682,4.429,2.044,7.155,5.451,9.199c3.407,2.044,7.155,3.066,10.222,5.451
			c6.474,5.452,12.266,4.77,18.398-0.341c1.363-1.022,2.726-1.703,4.089-2.385C-1346.167-145.826-1341.737-151.278-1344.804-161.158
			z M-1344.804-105.281c2.726-8.518-1.704-12.606-8.518-17.717c-11.244-8.177-20.102-6.474-30.665,0.34
			c-6.474,4.089-9.199,7.836-9.54,15.673c0,9.54,2.726,14.31,10.903,19.42c10.222,6.133,17.376,7.496,27.939,0.341
			C-1347.871-92.334-1341.737-95.741-1344.804-105.281z M-1421.124-50.426c2.044-8.518-1.363-12.606-8.177-17.717
			c-11.244-8.177-19.762-7.836-30.324,0.341c-4.77,3.748-7.496,6.474-8.518,12.947c-1.704,13.288,4.089,19.421,14.992,25.213
			c7.496,4.088,12.606,4.088,18.739-0.682c1.022-1.022,2.044-2.044,3.407-2.385C-1422.487-35.435-1418.398-41.227-1421.124-50.426z
			 M-1468.824-105.962c0.681,4.429,0,10.562,2.385,12.947c6.474,5.111,14.31,11.925,21.806,11.925
			c7.496,0,15.333-7.155,22.487-11.925c1.704-1.022,1.363-5.452,1.363-8.177c0-5.452,1.363-13.629-1.704-16.354
			c-6.133-5.792-14.65-11.925-22.146-11.925c-7.155,0-15.332,6.474-21.806,11.584
			C-1468.824-116.184-1468.143-110.392-1468.824-105.962z M-1420.102-160.477c-0.682-4.429,0-10.562-2.726-12.606
			c-5.792-5.111-12.947-8.177-20.102-11.584c-1.363-0.681-3.748,0-5.111,0.682c-5.792,3.066-11.584,6.474-17.036,9.881
			c-1.022,0.681-2.726,1.704-2.726,2.385c-0.34,7.496-1.022,14.992,0.341,22.146c0.341,2.726,5.792,4.089,8.859,6.474
			c9.54,8.177,17.717,7.836,28.62,0.682C-1422.828-147.53-1419.08-151.959-1420.102-160.477z M-1448.381-78.365
			c-25.213-19.08-46.678-16.695-68.484,0C-1494.378-59.285-1471.209-59.285-1448.381-78.365z M-1295.741-78.365
			c-26.575-20.102-48.722-15.673-68.143,0C-1341.737-58.603-1318.569-59.625-1295.741-78.365z M-1440.545-78.365
			c22.487,18.74,45.315,19.421,67.802,0C-1394.208-95.741-1416.014-97.104-1440.545-78.365z M-1295.4-187.394
			c-22.828-17.717-46.337-18.398-69.165,0C-1340.375-170.698-1324.361-167.973-1295.4-187.394z M-1517.547-187.394
			c27.598,18.398,43.952,18.058,69.166,0C-1471.55-205.792-1494.719-205.451-1517.547-187.394z M-1364.906-133.22
			c22.487,18.058,46.337,18.398,69.506,0C-1314.48-148.552-1340.715-151.959-1364.906-133.22z M-1343.782-221.125
			c-17.376,0-33.049,0-49.745,0c0.341,6.474-1.363,14.992,1.704,18.058c6.133,6.133,14.992,12.266,22.828,12.266
			c7.496,0,16.695-6.133,22.487-11.925C-1342.76-206.133-1344.463-214.651-1343.782-221.125z M-1448.041-132.879
			c-19.761-17.717-49.403-17.717-69.165-0.341C-1498.808-119.591-1478.705-111.414-1448.041-132.879z M-1440.545-187.734
			c22.487,18.058,45.315,18.739,68.143,0C-1395.23-205.792-1418.058-205.451-1440.545-187.734z M-1441.227-133.561
			c22.487,18.058,47.019,18.739,68.825,0.341C-1387.394-146.167-1412.266-154.344-1441.227-133.561z M-1517.547-23.509
			c22.828,18.058,46.678,18.058,68.825,0C-1470.528-40.205-1494.037-40.886-1517.547-23.509z M-1364.565-23.509
			c24.191,19.761,49.744,16.014,68.484,0C-1318.569-40.886-1341.737-40.545-1364.565-23.509z M-1440.886-23.509
			c23.509,19.08,48.041,17.376,68.484-0.341C-1395.23-40.886-1418.398-40.205-1440.886-23.509z M-1419.762-221.465
			c-17.376,0-32.708,0-49.744,0c1.363,7.155,0.341,15.673,4.088,20.102c4.77,5.452,13.629,10.903,20.443,10.903
			c7.155,0,15.673-5.451,20.443-10.903C-1420.102-205.792-1421.124-214.31-1419.762-221.465z M-1345.145,3.066
			c1.363-10.903,0.681-9.881-7.496-16.014c-12.266-9.54-22.146-6.814-33.39,1.022c-6.133,4.088-8.518,7.836-6.474,14.991
			C-1376.49,3.066-1360.817,3.066-1345.145,3.066z M-1421.806,3.066c3.407-9.199-1.022-13.628-8.518-16.354
			c-1.363-0.681-2.726-1.703-4.089-2.726c-6.133-3.748-12.266-7.155-19.08-1.022c-2.044,1.704-4.77,3.066-7.155,4.429
			c-8.858,4.77-8.858,4.77-6.814,15.673C-1452.129,3.066-1436.797,3.066-1421.806,3.066z M-1519.25-26.917
			c15.332-4.77,26.575-12.606,22.146-30.665c-0.682-2.726-2.044-6.133-4.089-7.496c-5.452-3.748-11.584-6.814-17.717-10.221
			C-1519.25-58.603-1519.25-42.93-1519.25-26.917z M-1519.25-130.494c0,17.036,0,32.709,0,49.404
			c6.473-3.748,12.606-7.155,18.739-10.903c1.363-0.682,3.066-2.044,3.066-3.066c0.341-7.155,1.022-14.651-0.341-21.465
			c-0.682-3.067-6.474-4.771-10.222-7.155C-1511.414-125.724-1514.821-127.769-1519.25-130.494z M-1518.91-184.668
			c0,16.354,0,32.368,0,48.382c5.792-3.066,11.244-5.792,16.354-8.858c3.748-2.044,5.111-4.771,5.792-9.54
			c1.363-13.288-1.704-22.828-15.673-26.576C-1514.821-181.942-1516.524-183.305-1518.91-184.668z M-1294.719-74.958
			c-6.474,3.748-12.266,7.155-17.717,10.562c-1.022,0.681-2.726,2.385-2.726,3.407c-0.341,6.814-0.341,13.97,0,20.784
			c0,1.022,0.681,2.385,1.704,2.726c6.133,3.407,12.266,6.814,18.739,10.562C-1294.719-42.93-1294.719-58.603-1294.719-74.958z
			 M-1294.719-129.472c-5.452,3.066-10.222,5.451-14.992,8.177c-3.748,2.385-5.792,5.111-5.792,10.222
			c0.341,18.398,0.341,18.398,16.695,27.257c1.022,0.681,2.385,1.363,4.089,2.044
			C-1294.719-97.785-1294.719-113.118-1294.719-129.472z M-1295.06-136.627c0-16.014,0-31.687,0-48.381
			c-7.836,7.836-21.125,6.814-21.125,23.85C-1316.184-144.463-1304.259-143.441-1295.06-136.627z M-1394.889-148.893
			c0-7.836,0-15.332,0-23.169c-7.836,0-15.332,0-22.828,0c0,7.837,0,15.333,0,23.169
			C-1409.881-148.893-1402.385-148.893-1394.889-148.893z M-1494.378-149.574c21.806,3.407,24.19,1.704,23.168-18.058
			c0-0.341,0-1.022,0-1.363c-1.022-1.363-2.044-3.407-3.066-3.407c-6.474-0.341-12.947,0-19.421,0
			c-0.341,1.704-0.341,3.066-0.341,4.088C-1494.378-162.181-1494.378-156.048-1494.378-149.574z M-1341.397-149.233
			c22.487,2.726,24.191,1.022,22.828-18.739c0-0.341,0-1.022,0-1.363c-1.022-1.022-2.385-3.066-3.407-3.066
			c-6.474-0.341-12.947,0-19.421,0C-1341.397-164.225-1341.397-157.07-1341.397-149.233z M-1497.785-221.806
			c-5.792,0-11.244-0.341-16.695,0.341c-1.703,0.34-4.77,2.726-4.77,4.088c-0.341,8.858-0.341,17.717-0.341,26.917
			c2.385-1.363,4.429-2.044,6.133-3.066c17.036-8.177,17.036-8.177,16.014-26.576
			C-1497.444-220.443-1497.444-220.443-1497.785-221.806z M-1494.037-94.378c7.836,0,14.991,0,22.487,0c0-7.837,0-14.992,0-22.828
			c-7.496,0-14.991,0-22.487,0C-1494.037-109.37-1494.037-102.215-1494.037-94.378z M-1394.889-94.038c0-8.177,0-15.332,0-22.828
			c-7.836,0-15.332,0-22.828,0c0,7.836,0,15.332,0,22.828C-1409.881-94.038-1402.385-94.038-1394.889-94.038z M-1341.397-94.378
			c7.496,0,14.992,0,22.487,0c0-7.837,0-15.333,0-22.487c-7.836,0-14.992,0-22.487,0
			C-1341.397-109.37-1341.397-102.215-1341.397-94.378z M-1494.037-62.01c0,7.496,0,15.333,0,23.168c7.496,0,14.65,0,22.146,0
			c0-7.836,0-15.332,0-23.168C-1479.387-62.01-1486.201-62.01-1494.037-62.01z M-1417.717-38.842c8.177,0,15.333,0,22.828,0
			c0-8.177,0-15.673,0-23.168c-7.836,0-14.992,0-22.828,0C-1417.717-53.833-1417.717-46.678-1417.717-38.842z M-1318.91-62.01
			c-7.496,0-14.992,0-22.146,0c0,8.177,0,15.673,0,23.168c7.496,0,14.651,0,22.146,0C-1318.91-46.337-1318.91-53.833-1318.91-62.01z
			 M-1315.162-221.125c0,5.452,0,10.222,0,15.333c0,1.704,1.022,3.748,2.044,4.429c5.792,3.407,11.925,6.474,18.739,9.881
			c0-4.77,0-8.859,0-12.606c-0.341-20.443,4.088-17.717-18.739-17.717C-1313.458-221.806-1313.799-221.465-1315.162-221.125z
			 M-1341.397-204.088c7.836,0,14.992,0,22.487,0c0-6.133,0-11.584,0-17.376c-7.836,0-14.992,0-22.487,0
			C-1341.397-215.332-1341.397-209.881-1341.397-204.088z M-1417.717-204.088c8.177,0,15.673,0,23.169,0c0-6.133,0-11.584,0-17.036
			c-7.836,0-15.333,0-23.169,0C-1417.717-215.332-1417.717-209.881-1417.717-204.088z M-1471.891-221.125
			c-7.837,0-15.333,0-22.487,0c0,6.133,0,11.584,0,17.036c7.496,0,14.65,0,22.487,0
			C-1471.891-209.881-1471.891-215.332-1471.891-221.125z M-1519.591-20.784c0,7.155-0.341,13.288,0,19.08
			c0,1.704,2.044,4.429,3.407,4.77c6.133,0.682,12.266,0.341,17.376,0.341c3.407-9.199-1.022-13.288-7.836-16.354
			C-1510.392-14.991-1514.14-17.717-1519.591-20.784z M-1314.48,3.407c5.111,0,10.222,0.341,15.333-0.341
			c1.704-0.341,4.088-2.726,4.429-4.77c0.682-5.792,0.341-11.584,0.341-18.739c-4.77,2.726-8.177,5.452-12.266,6.814
			C-1314.821-10.222-1316.865-5.111-1314.48,3.407z M-1494.037-7.496c0,3.748,0,7.155,0,10.221c7.836,0,14.991,0,22.146,0
			c0-3.748,0-6.814,0-10.221C-1479.387-7.496-1486.542-7.496-1494.037-7.496z M-1394.889-7.496c-7.836,0-15.332,0-22.828,0
			c0,3.748,0,6.814,0,10.221c7.836,0,15.333,0,22.828,0C-1394.889-0.682-1394.889-3.748-1394.889-7.496z M-1341.397,3.066
			c7.836,0,14.992,0,22.487,0c0-3.748,0-7.155,0-10.222c-7.836,0-14.992,0-22.487,0C-1341.397-3.748-1341.397-0.682-1341.397,3.066z
			"/>
		<path fill="#FF5200" d="M-1766.95-109.71c0-34.753,0-69.506,0-104.259c0-9.881,2.385-12.266,12.266-12.266
			c69.847,0,139.353,0,209.199,0c9.199,0,11.925,2.726,11.925,11.925c0,69.847,0,140.034,0,209.881
			c0,9.199-2.726,11.925-11.925,11.925c-69.847,0-139.353,0-209.199,0c-9.881,0-12.266-2.385-12.266-12.266
			C-1766.95-39.523-1766.95-74.617-1766.95-109.71z M-1634.753-25.895c-1.022,1.704-1.704,3.748-2.726,5.452
			c8.858,0,17.376,0,24.532,0c-3.748-4.088-7.836-8.859-11.925-12.947C-1628.279-31.005-1631.687-28.279-1634.753-25.895
			c2.385-3.407,5.111-6.814,7.496-9.54c-7.496-7.496-14.651-14.991-21.465-22.146c-7.155,7.155-14.651,14.31-23.168,22.487
			c3.066,2.726,6.474,4.77,9.199,7.496c4.77,5.451,9.881,9.54,17.376,7.155C-1641.908-21.125-1638.501-23.85-1634.753-25.895z
			 M-1573.424-87.223c0.341,8.518,8.518,9.881,12.947,14.992c0-8.177,0-16.695,0-25.554
			C-1565.247-94.038-1569.676-90.29-1573.424-87.223c2.044-2.726,4.77-5.452,7.155-8.518c2.385-3.748,5.111-7.496,6.133-11.584
			c1.704-5.452-0.681-10.222-5.452-13.97c-4.088-3.066-8.518-6.133-12.606-9.199c-0.341-1.363,0-3.066-0.681-3.748
			c-6.814-7.155-13.969-14.31-20.784-21.125c-8.177,7.496-15.332,14.651-22.487,21.465c7.836,7.837,15.332,15.333,22.828,22.828
			c4.429-4.088,8.858-8.518,13.628-12.947c-4.088,5.111-7.836,10.562-12.947,17.036c6.133,5.792,12.947,12.266,19.762,18.398
			C-1577.854-87.904-1575.468-87.904-1573.424-87.223z M-1736.627-148.552c5.111,4.429,10.222,9.199,14.31,12.947
			c7.836-7.496,15.333-14.311,22.146-21.125c-7.496-7.496-14.65-14.651-22.828-22.828c-3.407,3.748-6.474,8.177-10.562,11.244
			C-1740.034-163.203-1740.034-155.025-1736.627-148.552c-0.682,1.022-2.044,1.703-2.044,2.726c0,8.858,0,18.058,0,26.917
			c5.451-5.111,10.221-9.54,14.991-13.969C-1728.109-138.331-1732.538-143.441-1736.627-148.552z M-1578.875-82.453
			c0-1.022,0.681-2.385,0.341-2.726c-7.155-7.155-14.651-14.31-20.784-20.443c-7.836,7.155-15.332,14.311-22.487,21.125
			c6.474,6.474,12.606,12.947,19.08,19.421c1.022,1.022,3.066,1.363,4.77,2.044c0.341,1.363,0.341,3.066,1.022,3.748
			c6.814,7.155,13.629,14.31,21.465,22.487c3.748-4.429,6.133-7.836,9.2-10.903c9.199-9.54,9.54-17.036-0.341-26.235
			C-1570.357-77.002-1574.787-79.387-1578.875-82.453z M-1741.397-110.051c0-19.42,0-38.5,0-57.24c-7.155,0-13.969,0-21.124,0
			c0,19.42,0,38.16,0,57.24C-1755.366-110.051-1748.552-110.051-1741.397-110.051z M-1741.397-50.085c0-18.74,0-37.479,0-56.559
			c-7.155,0-13.969,0-20.784,0c0,19.08,0,37.819,0,56.559C-1755.366-50.085-1748.552-50.085-1741.397-50.085z M-1557.751-110.051
			c6.814,0,13.288,0,19.761,0c0-19.42,0-38.5,0-57.24c-6.814,0-13.288,0-19.761,0
			C-1557.751-148.211-1557.751-129.472-1557.751-110.051z M-1650.767-221.125c-19.421,0-38.16,0-56.899,0c0,6.814,0,13.288,0,19.762
			c19.08,0,37.819,0,56.899,0C-1650.767-208.177-1650.767-214.31-1650.767-221.125z M-1707.666,3.066c19.421,0,37.819,0,56.899,0
			c0-6.814,0-12.947,0-19.762c-19.08,0-37.819,0-56.899,0C-1707.666-9.881-1707.666-3.748-1707.666,3.066z M-1537.99-50.085
			c0-19.421,0-37.819,0-56.559c-6.814,0-13.288,0-19.761,0c0,19.08,0,37.819,0,56.559
			C-1550.596-50.085-1544.463-50.085-1537.99-50.085z M-1590.46-221.125c-19.08,0-37.819,0-56.559,0c0,6.814,0,13.288,0,19.762
			c19.08,0,37.819,0,56.559,0C-1590.46-208.177-1590.46-214.651-1590.46-221.125z M-1590.46-16.695c-19.421,0-37.819,0-56.899,0
			c0,6.814,0,12.947,0,19.762c19.08,0,37.819,0,56.899,0C-1590.46-3.748-1590.46-9.881-1590.46-16.695z M-1624.19-130.494
			c-7.496,7.496-14.992,14.651-21.806,21.465c7.155,7.496,14.31,14.991,21.125,22.487c7.496-7.496,14.65-14.992,21.806-22.147
			C-1609.881-116.184-1617.376-123.68-1624.19-130.494z M-1625.554-136.627c7.496-7.155,15.332-14.31,22.146-20.784
			c-7.496-7.496-14.65-14.991-21.124-21.465c-7.155,7.155-14.651,14.31-22.146,21.465
			C-1639.523-150.255-1632.368-143.101-1625.554-136.627z M-1696.082-154.003c-8.177,7.155-16.014,13.969-23.168,20.443
			c7.836,7.836,14.991,15.332,20.443,21.125c7.496-7.155,14.991-14.31,22.487-21.806
			C-1682.794-141.056-1689.949-147.871-1696.082-154.003z M-1670.188-85.179c7.155,7.496,14.311,15.332,21.125,22.146
			c7.496-7.155,14.651-14.31,21.465-21.125c-7.155-7.155-14.311-14.651-21.465-22.146
			C-1656.559-98.808-1663.714-91.652-1670.188-85.179z M-1652.129-59.625c-7.155-7.496-14.31-15.333-20.784-22.487
			c-7.836,7.496-14.991,14.65-21.806,21.465c7.155,7.496,14.651,14.992,21.465,22.146
			C-1665.758-45.656-1658.603-53.151-1652.129-59.625z M-1627.598-133.901c-7.155-7.155-14.311-14.65-21.465-21.806
			c-7.496,7.496-14.992,14.651-22.487,21.806c7.496,7.496,14.992,14.651,22.146,21.806
			C-1641.908-118.91-1634.753-126.405-1627.598-133.901z M-1673.254-129.812c-7.496,7.155-14.991,14.31-21.124,20.443
			c7.155,7.496,14.31,14.992,21.124,22.487c7.155-7.155,14.311-14.31,21.125-21.465
			C-1658.943-115.843-1666.439-122.998-1673.254-129.812z M-1645.997-60.647c7.155,7.155,14.31,14.651,21.125,21.806
			c7.496-7.155,14.65-14.31,21.465-20.783c-7.155-7.496-14.31-14.992-21.465-22.828
			C-1632.368-74.958-1639.182-67.462-1645.997-60.647z M-1722.317-131.516c-4.77,5.111-10.562,9.54-13.969,15.332
			c-2.044,3.748-2.726,10.562-0.682,14.31c3.407,6.133,9.2,10.903,13.629,16.014c8.518-8.518,15.673-16.014,23.168-23.168
			C-1706.984-116.184-1714.14-123.68-1722.317-131.516z M-1697.785-63.032c7.155-7.496,14.31-14.651,21.125-21.806
			c-6.814-6.814-13.969-14.311-20.443-21.125c-7.496,7.155-14.992,14.31-21.806,21.125
			C-1711.754-77.683-1704.94-70.188-1697.785-63.032z M-1575.809-179.216c-7.836,7.496-15.332,14.651-23.168,21.806
			c7.496,7.496,14.991,14.651,22.487,21.806C-1556.729-151.278-1551.277-159.114-1575.809-179.216z M-1695.06-157.411
			c7.496,7.496,14.651,14.651,21.125,20.784c7.496-7.155,14.992-13.969,22.146-21.124c-7.155-7.155-14.31-14.311-21.125-21.465
			C-1680.068-172.402-1687.223-164.906-1695.06-157.411z M-1578.875-181.942c-18.399-23.85-27.257-21.125-42.589-1.022
			c7.155,7.496,14.31,14.992,21.124,21.465C-1593.526-167.973-1586.371-174.787-1578.875-181.942z M-1600.341-58.262
			c-4.088,4.088-7.836,7.496-11.584,10.903c-3.748,3.407-7.496,7.155-11.244,10.562c21.465,26.917,30.324,19.08,44.293,0.341
			C-1586.03-43.611-1593.186-50.767-1600.341-58.262z M-1718.569-182.624c7.496,7.836,14.31,14.992,20.784,21.806
			c7.836-7.496,14.991-14.651,22.487-21.806C-1693.356-203.407-1699.83-204.77-1718.569-182.624z M-1626.917-182.283
			c-20.784-25.213-28.96-18.399-42.93-0.341c7.155,7.496,14.31,14.992,21.465,22.146
			C-1641.567-167.632-1634.412-174.787-1626.917-182.283z M-1696.763-57.581c-7.836,7.496-14.991,14.651-22.487,21.806
			c20.443,25.894,29.302,18.398,43.612-0.682C-1682.794-43.611-1689.949-50.767-1696.763-57.581z M-1699.83-60.307
			c-7.496-7.836-14.31-14.991-23.168-24.191c-4.77,5.792-10.562,10.562-13.629,16.695c-2.044,3.748-2.044,10.221,0,13.969
			c3.407,6.133,9.2,10.903,14.311,16.014C-1714.48-45.656-1707.325-52.811-1699.83-60.307z M-1760.817-220.102
			c-0.341,0.34-1.022,0.681-1.363,1.363c0,16.014,0,32.027,0,48.041c7.155,0,13.969,0,21.125,0c0-9.199,0-17.717,0-26.576
			c0-1.022-0.681-2.385-1.363-3.066C-1748.211-207.155-1754.344-213.628-1760.817-220.102z M-1762.181,1.022
			c0.682,0.682,1.363,1.022,2.044,1.704c4.77-5.451,9.199-10.562,13.969-16.014c1.704-2.044,4.77-4.088,5.111-6.474
			c0.681-8.858,0.34-17.717,0.34-26.576c-7.836,0-14.65,0-21.465,0C-1762.181-30.324-1762.181-14.651-1762.181,1.022z
			 M-1757.751-221.465c-0.341,0.681-0.682,1.022-1.022,1.703c6.133,5.792,12.266,11.584,18.398,17.036
			c1.022,0.681,2.385,1.363,3.748,1.704c8.518,0,17.376,0,26.235,0c0-7.496,0-13.969,0-20.443
			C-1726.746-221.465-1742.419-221.465-1757.751-221.465z M-1587.394-201.022c8.859,0,17.036,0,25.213,0
			c1.363,0,3.066-0.341,3.748-1.022c6.474-5.792,12.606-11.925,20.102-19.42c-17.717,0-33.39,0-49.063,0
			C-1587.394-214.651-1587.394-208.177-1587.394-201.022z M-1540.715,3.407c0.34-0.682,0.34-1.022,0.681-1.704
			c-5.792-5.792-11.584-11.244-17.376-16.695c-1.022-1.022-2.726-2.044-4.088-2.044c-8.518-0.341-17.036,0-25.554,0
			c0,7.155,0,13.628,0,20.443c1.704,0,3.066,0.341,4.429,0.341C-1568.995,3.407-1554.685,3.407-1540.715,3.407z M-1710.392,3.066
			c0-6.814,0-13.288,0-19.421c-22.146-4.088-37.138,2.044-47.019,19.421C-1742.078,3.066-1726.746,3.066-1710.392,3.066z
			 M-1538.331-170.698c0-16.014,0-31.346,0-48.382c-6.814,7.155-12.266,12.947-17.717,18.739c-1.022,1.022-2.044,2.385-2.044,3.407
			c0,8.518,0,17.376,0,26.235C-1550.937-170.698-1544.804-170.698-1538.331-170.698z M-1538.331,0.341c0-16.354,0-31.687,0-47.019
			c-6.814,0-13.288,0-19.761,0c0,8.518,0,16.354,0,24.19c0,1.704,1.022,3.407,2.044,4.77
			C-1550.255-11.925-1544.804-6.133-1538.331,0.341z M-1724.702-180.92c-4.429-4.77-8.518-9.54-13.288-14.991
			c0,9.88,0,19.08,0,29.301C-1733.22-172.062-1728.79-176.831-1724.702-180.92z M-1737.99-51.107c0,9.881,0,19.08,0,27.598
			c4.77-4.429,9.54-8.859,13.969-12.947C-1728.79-41.227-1733.22-45.656-1737.99-51.107z M-1738.331-70.188
			c5.111-5.451,9.54-10.221,13.969-14.65c-4.088-4.089-8.518-8.859-13.969-14.311C-1738.331-89.268-1738.331-80.068-1738.331-70.188
			z M-1572.743-182.283c3.748,4.429,7.836,9.199,12.266,14.31c0-9.199,0-18.058,0-27.598
			C-1565.588-190.46-1569.676-186.031-1572.743-182.283z M-1573.424-37.138c4.088,4.429,8.177,9.199,12.947,13.969
			c0-9.2,0-17.717,0-26.917C-1565.588-44.975-1569.676-40.545-1573.424-37.138z M-1686.882-197.615
			c5.111,5.111,9.54,9.54,12.947,12.947c4.77-4.088,9.199-8.177,14.31-12.947C-1668.824-197.615-1677.001-197.615-1686.882-197.615z
			 M-1560.477-147.189c-5.111,5.111-9.54,9.199-12.947,12.606c4.429,5.111,8.518,9.881,12.947,14.991
			C-1560.477-128.791-1560.477-137.309-1560.477-147.189z M-1708.007-197.615c-8.858,0-17.376,0-24.19,0
			c3.407,4.089,7.155,8.859,9.88,12.606C-1717.206-189.438-1712.777-193.186-1708.007-197.615z M-1637.138-197.615
			c4.088,4.771,8.177,9.2,11.925,13.288c4.429-4.429,8.858-8.518,13.629-13.288
			C-1620.784-197.615-1628.961-197.615-1637.138-197.615z M-1590.46-20.443c9.881,0,18.058,0,24.532,0
			c-3.407-4.088-7.155-8.859-10.562-13.628C-1581.261-29.642-1585.349-25.554-1590.46-20.443z M-1563.543-197.615
			c-9.199,0-17.717,0-25.894,0c4.429,4.771,8.518,9.2,12.266,13.288C-1572.743-188.416-1568.654-192.845-1563.543-197.615z
			 M-1734.583-20.443c8.859,0,17.036,0,25.895,0c-4.429-4.77-8.518-9.199-12.607-13.288
			C-1725.383-29.302-1729.812-25.213-1734.583-20.443z M-1660.647-20.443c-4.088-4.77-8.177-9.199-11.243-12.266
			c-4.77,4.088-9.54,7.836-14.651,12.266C-1677.001-20.443-1668.824-20.443-1660.647-20.443z"/>
	</g>
</g>
<g>
	<g>
		<defs>
			<rect id="SVGID_1_" x="163.543" y="274.958" width="249.745" height="249.745"/>
		</defs>
		<clipPath id="SVGID_2_">
			<use xlink:href="#SVGID_1_"  overflow="visible"/>
		</clipPath>
		<g clip-path="url(#SVGID_2_)">
			<g>
				<circle fill="none" stroke="#FF5200" stroke-width="2" stroke-miterlimit="10" cx="171.039" cy="274.958" r="41.567"/>
				<circle fill="none" stroke="#FF5200" stroke-width="2" stroke-miterlimit="10" cx="256.218" cy="274.958" r="41.567"/>
				<circle fill="none" stroke="#FF5200" stroke-width="2" stroke-miterlimit="10" cx="171.039" cy="360.477" r="41.567"/>
				<circle fill="none" stroke="#FF5200" stroke-width="2" stroke-miterlimit="10" cx="256.218" cy="360.477" r="41.567"/>
			</g>
			<g>
				
					<rect x="194.845" y="300.025" transform="matrix(-0.7071 0.7071 -0.7071 -0.7071 587.5446 392.1155)" fill="none" stroke="#FF5200" stroke-width="2.5127" stroke-miterlimit="10" width="35.434" height="35.434"/>
				
					<rect x="280.044" y="300.074" transform="matrix(-0.7071 0.7071 -0.7071 -0.7071 733.0215 331.9546)" fill="none" stroke="#FF5200" stroke-width="2.5127" stroke-miterlimit="10" width="35.434" height="35.434"/>
			</g>
			<g>
				
					<rect x="194.797" y="385.223" transform="matrix(-0.7071 0.7071 -0.7071 -0.7071 647.7054 537.5925)" fill="none" stroke="#FF5200" stroke-width="2.5127" stroke-miterlimit="10" width="35.434" height="35.434"/>
				
					<rect x="279.995" y="385.272" transform="matrix(-0.7071 0.7071 -0.7071 -0.7071 793.1824 477.4316)" fill="none" stroke="#FF5200" stroke-width="2.5127" stroke-miterlimit="10" width="35.434" height="35.434"/>
			</g>
			<g>
				<circle fill="none" stroke="#FF5200" stroke-width="2" stroke-miterlimit="10" cx="171.039" cy="445.656" r="41.567"/>
				<circle fill="none" stroke="#FF5200" stroke-width="2" stroke-miterlimit="10" cx="256.218" cy="445.656" r="41.567"/>
				<circle fill="none" stroke="#FF5200" stroke-width="2" stroke-miterlimit="10" cx="171.039" cy="530.835" r="41.567"/>
				<circle fill="none" stroke="#FF5200" stroke-width="2" stroke-miterlimit="10" cx="256.218" cy="530.835" r="41.567"/>
			</g>
			<g>
				
					<rect x="194.989" y="470.663" transform="matrix(-0.7071 0.7071 -0.7071 -0.7071 708.4479 683.311)" fill="none" stroke="#FF5200" stroke-width="2.5127" stroke-miterlimit="10" width="35.434" height="35.434"/>
				
					<rect x="280.187" y="470.712" transform="matrix(-0.7071 0.7071 -0.7071 -0.7071 853.9253 623.15)" fill="none" stroke="#FF5200" stroke-width="2.5127" stroke-miterlimit="10" width="35.434" height="35.434"/>
			</g>
			<g>
				
					<rect x="194.94" y="555.861" transform="matrix(-0.7071 0.7071 -0.7071 -0.7071 768.6096 828.7877)" fill="none" stroke="#FF5200" stroke-width="2.5127" stroke-miterlimit="10" width="35.434" height="35.434"/>
				
					<rect x="280.138" y="555.91" transform="matrix(-0.7071 0.7071 -0.7071 -0.7071 914.0866 768.6268)" fill="none" stroke="#FF5200" stroke-width="2.5127" stroke-miterlimit="10" width="35.434" height="35.434"/>
			</g>
			<g>
				<circle fill="none" stroke="#FF5200" stroke-width="2" stroke-miterlimit="10" cx="341.396" cy="274.958" r="41.567"/>
				<circle fill="none" stroke="#FF5200" stroke-width="2" stroke-miterlimit="10" cx="426.576" cy="274.958" r="41.567"/>
				<circle fill="none" stroke="#FF5200" stroke-width="2" stroke-miterlimit="10" cx="341.396" cy="360.477" r="41.567"/>
				<circle fill="none" stroke="#FF5200" stroke-width="2" stroke-miterlimit="10" cx="426.576" cy="360.477" r="41.567"/>
			</g>
			<g>
				
					<rect x="365.242" y="300.123" transform="matrix(-0.7071 0.7071 -0.7071 -0.7071 878.4985 271.7937)" fill="none" stroke="#FF5200" stroke-width="2.5127" stroke-miterlimit="10" width="35.434" height="35.434"/>
				
					<rect x="450.44" y="300.172" transform="matrix(-0.7071 0.7071 -0.7071 -0.7071 1023.9756 211.6328)" fill="none" stroke="#FF5200" stroke-width="2.5127" stroke-miterlimit="10" width="35.434" height="35.434"/>
			</g>
			<g>
				
					<rect x="365.193" y="385.321" transform="matrix(-0.7071 0.7071 -0.7071 -0.7071 938.6595 417.2707)" fill="none" stroke="#FF5200" stroke-width="2.5127" stroke-miterlimit="10" width="35.434" height="35.434"/>
				
					<rect x="450.391" y="385.37" transform="matrix(-0.7071 0.7071 -0.7071 -0.7071 1084.1365 357.1098)" fill="none" stroke="#FF5200" stroke-width="2.5127" stroke-miterlimit="10" width="35.434" height="35.434"/>
			</g>
			<g>
				<circle fill="none" stroke="#FF5200" stroke-width="2" stroke-miterlimit="10" cx="341.396" cy="445.656" r="41.567"/>
				<circle fill="none" stroke="#FF5200" stroke-width="2" stroke-miterlimit="10" cx="426.576" cy="445.656" r="41.567"/>
				<circle fill="none" stroke="#FF5200" stroke-width="2" stroke-miterlimit="10" cx="341.396" cy="530.835" r="41.567"/>
				<circle fill="none" stroke="#FF5200" stroke-width="2" stroke-miterlimit="10" cx="426.576" cy="530.835" r="41.567"/>
			</g>
			<g>
				
					<rect x="365.385" y="470.76" transform="matrix(-0.7071 0.7071 -0.7071 -0.7071 999.4027 562.9889)" fill="none" stroke="#FF5200" stroke-width="2.5127" stroke-miterlimit="10" width="35.434" height="35.434"/>
				
					<rect x="450.584" y="470.809" transform="matrix(-0.7071 0.7071 -0.7071 -0.7071 1144.8798 502.828)" fill="none" stroke="#FF5200" stroke-width="2.5127" stroke-miterlimit="10" width="35.434" height="35.434"/>
			</g>
			<g>
				
					<rect x="365.337" y="555.959" transform="matrix(-0.7071 0.7071 -0.7071 -0.7071 1059.5636 708.4659)" fill="none" stroke="#FF5200" stroke-width="2.5127" stroke-miterlimit="10" width="35.434" height="35.434"/>
				
					<rect x="450.535" y="556.008" transform="matrix(-0.7071 0.7071 -0.7071 -0.7071 1205.0406 648.3051)" fill="none" stroke="#FF5200" stroke-width="2.5127" stroke-miterlimit="10" width="35.434" height="35.434"/>
			</g>
		</g>
	</g>
</g>
<rect x="163.543" y="274.958" fill="none" stroke="#FF5200" stroke-width="2" stroke-miterlimit="10" width="249.745" height="249.745"/>
</svg>
