<?xml version="1.0" encoding="utf-8"?>
<!-- Generator: Adobe Illustrator 16.0.0, SVG Export Plug-In . SVG Version: 6.00 Build 0)  -->
<!DOCTYPE svg PUBLIC "-//W3C//DTD SVG 1.1//EN" "http://www.w3.org/Graphics/SVG/1.1/DTD/svg11.dtd">
<svg version="1.1" id="Layer_1" xmlns="http://www.w3.org/2000/svg" xmlns:xlink="http://www.w3.org/1999/xlink" x="0px" y="0px"
	 width="600px" height="604.5px" viewBox="0 95.5 600 604.5" enable-background="new 0 95.5 600 604.5" xml:space="preserve">
<g id="Flat_copy">
	<g>
		<path fill="#333333" d="M300,100C134.306,100,0,234.306,0,400c0,165.675,134.306,300,300,300c165.693,0,300-134.325,300-300
			C600,234.306,465.693,100,300,100z"/>
	</g>
	<path fill="#FFFFFF" d="M256.688,566.932h68.981v-166.95h46.013l6.094-57.525h-52.106l0.075-28.8c0-15,1.425-23.044,22.949-23.044
		h28.763v-57.543h-46.031c-55.293,0-74.737,27.918-74.737,74.85v34.537h-34.462V400h34.462V566.932z"/>
</g>
</svg>
