<?xml version="1.0" encoding="utf-8"?>
<!-- Generator: Adobe Illustrator 21.0.0, SVG Export Plug-In . SVG Version: 6.00 Build 0)  -->
<svg version="1.1" id="Capa_1" xmlns="http://www.w3.org/2000/svg" xmlns:xlink="http://www.w3.org/1999/xlink" x="0px" y="0px"
	 viewBox="0 0 60 60" style="enable-background:new 0 0 60 60;" xml:space="preserve">
<style type="text/css">
	.st0{fill:#F05627;}
</style>
<path class="st0" d="M46.7,25L57.3,9.6c0.2-0.3,0.2-0.7,0.1-1C57.2,8.2,56.9,8,56.5,8h-30V4c0-0.6-0.4-1-1-1h-21V1c0-0.6-0.4-1-1-1
	s-1,0.4-1,1v3v29v26c0,0.6,0.4,1,1,1s1-0.4,1-1V34h11c-0.6,0.8-1,1.9-1,3c0,2.8,2.2,5,5,5h37c0.4,0,0.7-0.2,0.9-0.5
	c0.2-0.3,0.1-0.7-0.1-1L46.7,25z M4.5,5h20v4v23h-5h-15V5z M19.5,40c-1.7,0-3-1.3-3-3s1.3-3,3-3h6c0.6,0,1-0.4,1-1V10h28.1
	l-9.9,14.4c-0.2,0.3-0.2,0.8,0,1.1L54.6,40H19.5z"/>
</svg>
