<?xml version="1.0" encoding="utf-8"?>
<!-- Generator: Adobe Illustrator 16.0.0, SVG Export Plug-In . SVG Version: 6.00 Build 0)  -->
<!DOCTYPE svg PUBLIC "-//W3C//DTD SVG 1.1//EN" "http://www.w3.org/Graphics/SVG/1.1/DTD/svg11.dtd">
<svg version="1.1" id="Layer_1" xmlns="http://www.w3.org/2000/svg" xmlns:xlink="http://www.w3.org/1999/xlink" x="0px" y="0px"
	 width="600px" height="604.5px" viewBox="0 95.5 600 604.5" enable-background="new 0 95.5 600 604.5" xml:space="preserve">
<g id="Flat_copy">
	<g>
		<path fill="#333333" d="M300,100C134.306,100,0,234.306,0,400c0,165.675,134.306,300,300,300c165.693,0,300-134.325,300-300
			C600,234.306,465.693,100,300,100z"/>
	</g>
	<path fill="#FFFFFF" d="M455.513,530.162V415.094c0-61.65-32.906-90.337-76.8-90.337c-35.419,0-51.281,19.481-60.113,33.15v-28.444
		h-66.712c0.881,18.844,0,200.7,0,200.7H318.6V418.075c0-5.981,0.432-11.981,2.194-16.257c4.818-11.981,15.787-24.394,34.219-24.394
		c24.149,0,33.806,18.394,33.806,45.375v107.382L455.513,530.162L455.513,530.162z M181.594,302.069
		c23.25,0,37.744-15.431,37.744-34.688c-0.431-19.688-14.494-34.669-37.312-34.669S144.3,247.694,144.3,267.381
		c0,19.275,14.475,34.688,36.881,34.688H181.594z M214.95,530.162v-200.7h-66.694v200.7H214.95L214.95,530.162z"/>
</g>
</svg>
