<?xml version="1.0" encoding="utf-8"?>
<!-- Generator: Adobe Illustrator 21.0.0, SVG Export Plug-In . SVG Version: 6.00 Build 0)  -->
<svg version="1.1" id="_x2014_ÎÓÈ_x5F_1" xmlns="http://www.w3.org/2000/svg" xmlns:xlink="http://www.w3.org/1999/xlink"
	 x="0px" y="0px" viewBox="0 0 176.1 150" style="enable-background:new 0 0 176.1 150;" xml:space="preserve">
<style type="text/css">
	.st0{fill:#FFFFFF;}
	.st1{fill:none;stroke:#FFFFFF;stroke-width:3;stroke-miterlimit:10;}
</style>
<g>
	<path class="st0" d="M90.5,28.4c7.5,0,15.4,1.9,21.9,4.6c9.9,4.2,19.1,12.8,21.6,18.4c0,0-0.4,0-1.1,0c-1.1,0-3,0.1-5.1,0.4
		c-2.7,0.4-12,3.7-19.2,6.9c-5.6,2.5-12.3,5.8-17.9,6.6c-0.8,0.1-2.1,0.3-3.7,0.3c-3.5,0-8.6-0.9-14.1-5.3c-5-4-6-10.7-6-10.7
		s-7.3,0.7-13.7,11C46.9,71,47.9,81.7,49,86c1.1,4.3,3.3,13.2,8.6,17.8s8.7,7,15.9,7.1c0.3,0,0.6,0,0.9,0c5.9,0,9.8-1.1,9.8-1.1
		c0.8,7.1,4.1,10.9,4.1,10.9s-2.9,0.8-7.6,0.8c-4.5,0-10.6-0.8-17.2-3.8c-6.9-3.2-12.5-8.6-16.8-16.4s-4.5-15.7-4.7-20.1
		c-0.3-5.4,0.8-12.6,5.7-20.8c3.1-5.2,10.4-13.2,20.1-16.2c0,0,0-9.9,10.1-13.7C81.9,29,86.2,28.4,90.5,28.4 M90.5,25.4L90.5,25.4
		c-5,0-9.5,0.8-13.6,2.3C68.1,31,65.7,38.3,65.1,42c-9.3,3.5-16.5,11.1-19.9,16.9c-4.4,7.4-6.5,14.9-6.1,22.4l0,0.4
		c0.2,4.8,0.6,12.8,5.1,21c4.5,8.2,10.6,14.1,18.2,17.7c5.7,2.7,12.1,4.1,18.4,4.1c5,0,8.2-0.9,8.3-0.9l4.6-1.3l-3.2-3.6
		c0,0-2.7-3.3-3.4-9.2l-0.4-3.5l-3.4,0.9c0,0-3.6,1-9,1c-0.3,0-0.6,0-0.9,0c-6.2-0.1-8.9-1.9-14-6.4c-4.6-4-6.7-12.2-7.6-16.2l0-0.1
		c-0.3-1.2-2.8-12.2,3.9-22.9c3.3-5.4,6.8-7.8,9.1-8.8c0.9,2.7,2.8,6.4,6.3,9.2c4.9,3.9,10.3,5.9,15.9,5.9c1.8,0,3.2-0.2,4.1-0.3
		l0.1,0c5.1-0.8,11-3.4,16.1-5.7c0.9-0.4,1.7-0.8,2.5-1.1c7.2-3.2,16.1-6.3,18.4-6.7c1.9-0.3,3.6-0.3,4.7-0.3c0.6,0,0.9,0,0.9,0
		l4.9,0.3l-2-4.5c-2.8-6.2-12.2-15.3-23.2-20C106.1,27.1,97.9,25.4,90.5,25.4L90.5,25.4z"/>
</g>
<circle class="st1" cx="103.2" cy="109.2" r="17"/>
<g>
	<path class="st0" d="M105.1,100.7v7.2h6.9v3.1h-6.9v7.3h-3.2V111H95v-3.1h6.9v-7.2H105.1z"/>
</g>
</svg>
