<?xml version="1.0" encoding="utf-8"?>
<!-- Generator: Adobe Illustrator 21.0.0, SVG Export Plug-In . SVG Version: 6.00 Build 0)  -->
<svg version="1.1" id="_x2014_ÎÓÈ_x5F_1" xmlns="http://www.w3.org/2000/svg" xmlns:xlink="http://www.w3.org/1999/xlink"
	 x="0px" y="0px" viewBox="0 0 150 178.3" style="enable-background:new 0 0 150 178.3;" xml:space="preserve">
<style type="text/css">
	.st0{fill:#F05728;}
</style>
<g id="D5bDTX_1_">
	<g>
		<path class="st0" d="M75.4,14.9c0.2,0.3,0.3,0.4,0.4,0.6c8.3,15,18.2,28.9,27.7,43.1c5.4,8,10.6,16.1,14.2,25.1
			c6.8,17,5.1,33.1-6.5,47.3c-11.9,14.6-27.8,20.2-46.1,16c-18.6-4.3-30.2-16.4-34.8-34.9c-2.8-11.1-0.5-21.7,4.3-31.9
			c4.3-9.2,10-17.6,15.6-26c8.6-12.7,17.2-25.3,24.7-38.7C75,15.4,75.2,15.2,75.4,14.9z M75.4,25.2c-0.3,0.3-0.4,0.5-0.5,0.6
			c-7.5,11.4-14.9,22.8-22.4,34.1c-5,7.5-9.9,15-13.7,23.3c-3.7,8.2-5.7,16.8-4,25.8c3.1,16,12.4,27.1,27.8,32.1
			c15.6,5.1,29.8,1.5,41.5-9.9c11.5-11.1,16.1-28.6,8.2-46.5c-3.7-8.4-8.6-16-13.6-23.6c-7.4-11.2-14.8-22.5-22.2-33.7
			C76.3,26.6,75.9,26,75.4,25.2z"/>
		<path class="st0" d="M75.4,132.8c0-1.7,0-3.3,0-5c6.9-0.2,13-2.6,18-7.5c5-4.9,7.4-11,7.6-18.1c1.7,0,3.3,0,5,0
			C106.6,117.9,93,133,75.4,132.8z"/>
	</g>
</g>
</svg>
