<?xml version="1.0" encoding="utf-8"?>
<!-- Generator: Adobe Illustrator 16.0.0, SVG Export Plug-In . SVG Version: 6.00 Build 0)  -->
<!DOCTYPE svg PUBLIC "-//W3C//DTD SVG 1.1//EN" "http://www.w3.org/Graphics/SVG/1.1/DTD/svg11.dtd">
<svg version="1.1" id="_x2014_ÎÓÈ_x5F_1" xmlns="http://www.w3.org/2000/svg" xmlns:xlink="http://www.w3.org/1999/xlink"
	 x="0px" y="0px" width="379px" height="533.832px" viewBox="111.5 103 379 533.832" enable-background="new 111.5 103 379 533.832"
	 xml:space="preserve">
<g id="D5bDTX_1_">
	<g>
		<path fill="#F05728" d="M301.6,103c0.801,1.2,1.2,1.6,1.601,2.4C336.4,165.4,376,221,414,277.8c21.6,32,42.4,64.4,56.8,100.4
			c27.2,68,20.4,132.399-26,189.2c-47.6,58.399-111.2,80.8-184.4,64C186,614.2,139.6,565.8,121.2,491.8
			c-11.2-44.399-2-86.8,17.2-127.6c17.2-36.8,40-70.4,62.4-104c34.4-50.8,68.8-101.2,98.8-154.8C300,105,300.8,104.2,301.6,103z
			 M301.6,144.2c-1.2,1.2-1.6,2-2,2.4c-30,45.6-59.6,91.2-89.6,136.4c-20,30-39.6,60-54.8,93.2c-14.8,32.8-22.8,67.2-16,103.2
			c12.4,64,49.6,108.399,111.2,128.399c62.4,20.4,119.2,6,166-39.6c46-44.4,64.399-114.4,32.8-186c-14.8-33.6-34.4-64-54.4-94.4
			c-29.6-44.8-59.2-90-88.8-134.8C305.2,149.8,303.6,147.4,301.6,144.2z"/>
		<path fill="#F05728" d="M301.6,574.6c0-6.8,0-13.199,0-20c27.601-0.8,52-10.399,72-30c20-19.6,29.601-44,30.4-72.399
			c6.8,0,13.2,0,20,0C426.4,515,372,575.4,301.6,574.6z"/>
	</g>
</g>
</svg>
