<?xml version="1.0" encoding="utf-8"?>
<!-- Generator: Adobe Illustrator 21.0.0, SVG Export Plug-In . SVG Version: 6.00 Build 0)  -->
<svg version="1.1" id="_x2014_ÎÓÈ_x5F_1" xmlns="http://www.w3.org/2000/svg" xmlns:xlink="http://www.w3.org/1999/xlink"
	 x="0px" y="0px" viewBox="0 0 128.3 132.6" style="enable-background:new 0 0 128.3 132.6;" xml:space="preserve">
<style type="text/css">
	.st0{fill:#F05627;}
</style>
<g>
	<path class="st0" d="M83,42.3V21.5c0-0.7-0.6-1.2-1.2-1.2H40c-0.7,0-1.2,0.6-1.2,1.2v20.8c0,6.8-5.5,12.2-12.2,12.2
		c-0.7,0-1.2,0.6-1.2,1.2v44.8c0,0.7,0.6,1.2,1.2,1.2h68.8c0.7,0,1.2-0.6,1.2-1.2V55.8c0-0.7-0.6-1.2-1.2-1.2
		C88.5,54.5,83,49,83,42.3z M94,88.1H62.1V71.3H94V88.1z M27.7,71.3h31.9v16.9H27.7V71.3z M49.9,22.8L59.6,65v3.7H49.3l-2.6-46H49.9
		z M60.8,59.2l-8.4-36.4h16.4L60.8,59.2z M62.1,68.8V65l9.3-42.3h3.2l-2.6,46H62.1z M41.2,42.3V22.8h2.9l2.6,46H27.7V57
		C35.3,56.3,41.2,50,41.2,42.3z M27.7,90.6h31.9v8.6H27.7V90.6z M62.1,99.3v-8.6H94v8.6H62.1z M94,68.8H74.4l2.6-46h3.5v19.5
		C80.5,50,86.4,56.3,94,57V68.8z"/>
</g>
</svg>
