<?xml version="1.0" encoding="utf-8"?>
<!-- Generator: Adobe Illustrator 16.0.0, SVG Export Plug-In . SVG Version: 6.00 Build 0)  -->
<!DOCTYPE svg PUBLIC "-//W3C//DTD SVG 1.1//EN" "http://www.w3.org/Graphics/SVG/1.1/DTD/svg11.dtd">
<svg version="1.1" id="_x2014_ÎÓÈ_x5F_1" xmlns="http://www.w3.org/2000/svg" xmlns:xlink="http://www.w3.org/1999/xlink"
	 x="0px" y="0px" width="336.254px" height="380.671px" viewBox="115.5 184.879 336.254 380.671"
	 enable-background="new 115.5 184.879 336.254 380.671" xml:space="preserve">
<g>
	<path fill="#F05627" d="M388.152,287.763v-97.272c0-3.274-2.806-5.612-5.611-5.612H187.062c-3.273,0-5.612,2.806-5.612,5.612
		v97.272c0,31.8-25.721,57.054-57.054,57.054c-3.273,0-5.612,2.806-5.612,5.612v209.509c0,3.273,2.806,5.612,5.612,5.612h321.746
		c3.273,0,5.612-2.807,5.612-5.612V350.896c0-3.274-2.806-5.612-5.612-5.612C413.874,344.817,388.152,319.096,388.152,287.763z
		 M439.595,501.948H290.413v-78.565h149.182V501.948z M129.54,423.383h149.182v79.033H129.54V423.383z M233.359,196.57
		l45.362,197.35v17.303h-48.168l-12.159-215.121h14.965V196.57z M284.333,366.796L245.051,196.57h76.695L284.333,366.796z
		 M290.413,411.691V393.92l43.492-197.817h14.965l-12.159,215.121h-46.298V411.691z M192.673,287.763V196.57h13.562l12.159,215.121
		H129.54v-55.183C165.082,353.234,192.673,323.772,192.673,287.763z M129.54,513.64h149.182v40.219H129.54V513.64z M290.413,554.326
		v-40.219h149.182v40.219H290.413z M439.595,411.691h-91.66l12.159-215.121h16.367v91.193c0,36.009,27.592,65.471,63.134,68.745
		V411.691z"/>
</g>
</svg>
