<?xml version="1.0" encoding="utf-8"?>
<!-- Generator: Adobe Illustrator 21.0.0, SVG Export Plug-In . SVG Version: 6.00 Build 0)  -->
<svg version="1.1" id="_x2014_ÎÓÈ_x5F_1" xmlns="http://www.w3.org/2000/svg" xmlns:xlink="http://www.w3.org/1999/xlink"
	 x="0px" y="0px" viewBox="0 0 176.1 150" style="enable-background:new 0 0 176.1 150;" xml:space="preserve">
<style type="text/css">
	.st0{fill:#F05627;stroke:#F05627;stroke-width:0.5;stroke-miterlimit:10;}
</style>
<g>
	<path class="st0" d="M101.9,83.7l-2.5-6.5c-0.5-1.3-2-2-3.3-1.5l-2.9,1.1c-1.4-2-3.1-3.8-5-5.4l1.3-2.8c0.3-0.6,0.3-1.3,0.1-2
		c-0.2-0.6-0.7-1.1-1.3-1.4l-6.3-2.9c-0.6-0.3-1.3-0.3-2-0.1c-0.6,0.2-1.1,0.7-1.4,1.3l-1.3,2.8c-2.4-0.4-4.9-0.5-7.4-0.2l-1.1-2.9
		c-0.5-1.3-2-2-3.3-1.5l-6.5,2.5c-1.3,0.5-2,2-1.5,3.3l1.1,2.9c-2,1.4-3.9,3.1-5.4,5l-2.8-1.3c-1.3-0.6-2.8,0-3.4,1.3L44.1,82
		c-0.6,1.3,0,2.8,1.3,3.4l2.8,1.3C47.7,89,47.7,91.5,48,94L45,95.1c-1.3,0.5-2,2-1.5,3.3l2.5,6.5c0.5,1.3,2,2,3.3,1.5l2.9-1.1
		c1.4,2,3.1,3.8,5,5.4l-1.3,2.8c-0.3,0.6-0.3,1.3-0.1,2c0.2,0.6,0.7,1.2,1.3,1.4l6.3,2.8c0.6,0.3,1.3,0.3,2,0.1
		c0.6-0.2,1.2-0.7,1.4-1.3l1.3-2.8c2.4,0.4,4.9,0.5,7.4,0.2l1.1,2.9c0.4,1,1.4,1.7,2.4,1.7c0.3,0,0.6-0.1,0.9-0.2l6.5-2.5
		c1.3-0.5,2-2,1.5-3.3l-1.1-2.9c2-1.4,3.8-3.1,5.4-5l2.8,1.3c0.6,0.3,1.3,0.3,2,0.1c0.6-0.2,1.1-0.7,1.4-1.3l2.9-6.4
		c0.6-1.3,0-2.8-1.3-3.4l-2.8-1.3c0.4-2.4,0.5-4.9,0.2-7.4l2.9-1.1C101.8,86.5,102.4,85,101.9,83.7z M95.1,86.2
		c-0.3,0.1-0.5,0.4-0.4,0.7l0.1,0.5c0.5,2.9,0.4,5.7-0.2,8.5l-0.1,0.5c-0.1,0.3,0.1,0.6,0.4,0.7l4.2,1.8l-2.8,6.3l-4.2-1.9
		c-0.3-0.1-0.6,0-0.8,0.2l-0.3,0.4c-1.7,2.3-3.8,4.3-6.2,5.8l-0.5,0.3c-0.3,0.2-0.4,0.5-0.3,0.8l1.7,4.3l-6.4,2.5l-1.6-4.4
		c-0.1-0.3-0.3-0.4-0.6-0.4c0,0-0.1,0-0.1,0l-0.5,0.1c-2.9,0.5-5.7,0.4-8.5-0.2l-0.5-0.1c-0.3-0.1-0.6,0.1-0.7,0.4l-1.8,4.2
		l-6.3-2.8l1.9-4.3c0.1-0.3,0-0.6-0.2-0.8l-0.4-0.3c-2.3-1.7-4.3-3.7-5.8-6.2l-0.3-0.5c-0.2-0.3-0.5-0.4-0.8-0.3l-4.3,1.7L46,97.5
		l4.4-1.7c0.3-0.1,0.5-0.4,0.4-0.7l-0.1-0.5c-0.5-2.8-0.4-5.7,0.3-8.5l0.1-0.5c0.1-0.3-0.1-0.6-0.4-0.7L46.5,83l2.8-6.3l4.2,1.9
		c0.3,0.1,0.6,0,0.8-0.2l0.3-0.4c1.7-2.3,3.7-4.3,6.2-5.8l0.5-0.3c0.3-0.2,0.4-0.5,0.3-0.8l-1.7-4.3l6.4-2.5l1.6,4.4
		c0.1,0.3,0.4,0.5,0.7,0.4l0.5-0.1c2.9-0.5,5.7-0.4,8.5,0.2l0.5,0.1c0.3,0.1,0.6-0.1,0.7-0.4l1.9-4.2l6.3,2.8l-1.9,4.3
		c-0.1,0.3,0,0.6,0.2,0.8l0.4,0.3c2.3,1.7,4.3,3.7,5.8,6.2l0.3,0.5c0.2,0.3,0.5,0.4,0.8,0.3l4.3-1.7l2.4,6.4L95.1,86.2z"/>
	<path class="st0" d="M80.2,74.5c-9.1-4.1-19.8,0-23.9,9.1c-4.1,9.1,0,19.8,9.1,23.9c2.4,1.1,4.9,1.6,7.4,1.6c2.2,0,4.4-0.4,6.4-1.2
		c4.5-1.7,8.1-5.1,10.1-9.5c2-4.4,2.1-9.3,0.4-13.8C88,80.1,84.6,76.5,80.2,74.5z M86.9,97.4L86.9,97.4c-1.7,3.8-4.7,6.7-8.6,8.1
		c-3.9,1.5-8.1,1.3-11.8-0.4c-7.8-3.5-11.3-12.7-7.8-20.5c2.5-5.5,8.1-9.1,14.1-9.1c2.2,0,4.3,0.5,6.3,1.4c3.8,1.7,6.7,4.8,8.1,8.6
		C88.7,89.4,88.6,93.6,86.9,97.4z"/>
	<path class="st0" d="M128.8,51.1C128.8,51.1,128.8,51.1,128.8,51.1l-1.5-0.1c-0.2-1.3-0.6-2.5-1.2-3.7l1.1-1
		c0.4-0.4,0.7-0.9,0.7-1.4c0-0.6-0.1-1.1-0.5-1.5l-2.8-3.2c-0.4-0.4-0.9-0.7-1.4-0.7c-0.6-0.1-1.1,0.1-1.5,0.5l-1.2,1
		c-1.1-0.7-2.3-1.3-3.5-1.8l0.1-1.5c0.1-0.5-0.1-1.1-0.5-1.5c-0.4-0.4-0.9-0.7-1.4-0.8l-4.3-0.3c-1.2-0.1-2.1,0.8-2.2,1.9l-0.1,1.5
		c-1.3,0.2-2.5,0.6-3.7,1.2l-1-1.1c-0.4-0.4-0.9-0.7-1.4-0.7c-0.6,0-1.1,0.1-1.5,0.5l-3.2,2.8c-0.4,0.4-0.7,0.9-0.7,1.4
		c0,0.6,0.1,1.1,0.5,1.5l1,1.2c-0.7,1.1-1.3,2.3-1.8,3.5l-1.5-0.1c-1.2-0.1-2.2,0.8-2.3,1.9l-0.3,4.3c-0.1,1.1,0.8,2.1,1.9,2.2
		l1.5,0.1c0.2,1.3,0.6,2.5,1.2,3.7l-1.2,1c-0.4,0.4-0.7,0.9-0.7,1.4c0,0.6,0.1,1.1,0.5,1.5l2.8,3.2c0.4,0.4,0.9,0.7,1.4,0.7
		c0.6,0,1.1-0.1,1.5-0.5l1.2-1c1.1,0.7,2.2,1.3,3.5,1.8l-0.1,1.5c-0.1,0.5,0.1,1.1,0.5,1.5c0.4,0.4,0.9,0.7,1.4,0.8l4.3,0.3
		c0,0,0.1,0,0.1,0c1.1,0,2-0.8,2.1-1.9l0.1-1.5c1.3-0.2,2.5-0.6,3.7-1.2l1,1.1c0.4,0.4,0.9,0.7,1.4,0.7c0.6,0,1.1-0.1,1.5-0.5
		l3.2-2.8c0.9-0.7,1-2.1,0.2-3l-1-1.2c0.7-1.1,1.3-2.2,1.8-3.5l1.5,0.1c1.1,0.1,2.2-0.8,2.3-1.9l0.3-4.3
		C130.8,52.2,129.9,51.2,128.8,51.1z M127.8,56.9l-2.6-0.2c-0.3,0-0.6,0.2-0.7,0.5l-0.1,0.5c-0.5,1.6-1.2,3.1-2.3,4.5l-0.3,0.4
		c-0.2,0.2-0.2,0.6,0,0.8l1.7,1.9l-2.5,2.1l-1.7-1.9c-0.2-0.2-0.5-0.3-0.8-0.2l-0.5,0.3c-1.5,0.8-3.1,1.4-4.8,1.6l-0.5,0.1
		c-0.3,0-0.6,0.3-0.6,0.6l-0.2,2.5l-3.2-0.3l0.2-2.6c0-0.3-0.2-0.6-0.5-0.7l-0.5-0.1c-1.6-0.5-3.1-1.2-4.5-2.3l-0.4-0.3
		c-0.2-0.2-0.6-0.2-0.8,0l-1.9,1.7l-2.1-2.5l1.9-1.7c0.2-0.2,0.3-0.5,0.2-0.8l-0.3-0.5c-0.8-1.5-1.4-3.1-1.6-4.8L98.4,55
		c0-0.3-0.3-0.6-0.6-0.6l-2.5-0.2l0.3-3.2l2.6,0.2c0.3,0,0.6-0.2,0.7-0.5l0.1-0.5c0.5-1.6,1.2-3.1,2.3-4.5l0.3-0.4
		c0.2-0.2,0.2-0.6,0-0.8l-1.7-1.9l2.5-2.1l1.7,1.9c0.2,0.2,0.5,0.3,0.8,0.1l0.5-0.3c1.5-0.8,3.1-1.4,4.8-1.6l0.5-0.1
		c0.3,0,0.6-0.3,0.6-0.6l0.2-2.5l3.2,0.3l-0.2,2.6c0,0.3,0.2,0.6,0.5,0.7l0.5,0.1c1.6,0.5,3.1,1.2,4.5,2.3l0.4,0.3
		c0.2,0.2,0.6,0.2,0.8,0l1.9-1.7l2.1,2.5l-2,1.7c-0.2,0.2-0.3,0.5-0.2,0.8l0.3,0.5c0.8,1.5,1.4,3.1,1.6,4.8l0.1,0.5
		c0,0.3,0.3,0.6,0.6,0.6l2.5,0.2L127.8,56.9z"/>
	<path class="st0" d="M112.4,44.4C112.4,44.4,112.4,44.4,112.4,44.4c-5.3-0.4-9.9,3.5-10.3,8.8c-0.4,5.2,3.5,9.9,8.8,10.3
		c0.3,0,0.5,0,0.8,0c4.9,0,9.1-3.9,9.5-8.8C121.6,49.5,117.6,44.9,112.4,44.4z M119,54.5c-0.3,4.1-3.9,7.1-8,6.8
		c-4.1-0.3-7.1-3.9-6.8-8c0.3-3.8,3.6-6.8,7.4-6.8c0.2,0,0.4,0,0.6,0C116.3,46.9,119.3,50.5,119,54.5z"/>
</g>
</svg>
