<?xml version="1.0" encoding="utf-8"?>
<!-- Generator: Adobe Illustrator 16.0.0, SVG Export Plug-In . SVG Version: 6.00 Build 0)  -->
<!DOCTYPE svg PUBLIC "-//W3C//DTD SVG 1.1//EN" "http://www.w3.org/Graphics/SVG/1.1/DTD/svg11.dtd">
<svg version="1.1" id="_x2014_ÎÓÈ_x5F_1" xmlns="http://www.w3.org/2000/svg" xmlns:xlink="http://www.w3.org/1999/xlink"
	 x="0px" y="0px" width="307px" height="301px" viewBox="142.5 258.5 307 301" enable-background="new 142.5 258.5 307 301"
	 xml:space="preserve">
<g>
	<path fill="#F05627" stroke="#F05627" stroke-width="0.5" stroke-miterlimit="10" d="M347.189,429.643l-8.519-22.146
		c-1.703-4.43-6.814-6.814-11.243-5.111l-9.881,3.748c-4.771-6.814-10.562-12.947-17.035-18.398l4.429-9.54
		c1.022-2.044,1.022-4.43,0.341-6.814c-0.682-2.044-2.385-3.748-4.43-4.77l-21.465-9.881c-2.044-1.022-4.429-1.022-6.814-0.341
		c-2.044,0.682-3.748,2.385-4.77,4.43l-4.429,9.54c-8.177-1.363-16.695-1.704-25.213-0.682l-3.748-9.881
		c-1.704-4.429-6.814-6.814-11.244-5.111l-22.146,8.518c-4.429,1.704-6.814,6.814-5.111,11.244l3.748,9.881
		c-6.814,4.77-13.288,10.562-18.398,17.036l-9.54-4.43c-4.43-2.044-9.54,0-11.584,4.43l-9.881,22.486
		c-2.044,4.43,0,9.54,4.429,11.585l9.54,4.429c-1.703,7.837-1.703,16.354-0.681,24.873l-10.222,3.747
		c-4.429,1.704-6.814,6.814-5.11,11.244l8.518,22.146c1.704,4.429,6.814,6.814,11.244,5.11l9.881-3.748
		c4.77,6.814,10.562,12.947,17.036,18.399l-4.429,9.54c-1.022,2.044-1.022,4.429-0.341,6.814c0.682,2.044,2.385,4.088,4.429,4.77
		l21.465,9.54c2.044,1.022,4.429,1.022,6.814,0.341c2.044-0.682,4.088-2.385,4.77-4.43l4.429-9.54
		c8.177,1.363,16.695,1.704,25.213,0.682l3.748,9.881c1.363,3.407,4.77,5.792,8.177,5.792c1.022,0,2.044-0.341,3.066-0.682
		l22.147-8.518c4.429-1.703,6.814-6.814,5.11-11.243l-3.748-9.881c6.813-4.771,12.947-10.562,18.398-17.036l9.54,4.43
		c2.044,1.021,4.43,1.021,6.814,0.341c2.044-0.682,3.748-2.386,4.77-4.43l9.881-21.806c2.045-4.43,0-9.54-4.429-11.585l-9.54-4.429
		c1.362-8.178,1.703-16.695,0.681-25.213l9.881-3.748C346.849,439.183,348.893,434.071,347.189,429.643z M324.021,438.16
		c-1.022,0.341-1.704,1.363-1.363,2.385l0.341,1.704c1.704,9.881,1.363,19.421-0.682,28.961l-0.34,1.703
		c-0.341,1.022,0.34,2.044,1.362,2.385l14.311,6.133l-9.54,21.466l-14.311-6.474c-1.022-0.341-2.044,0-2.726,0.681l-1.022,1.363
		c-5.792,7.836-12.947,14.65-21.124,19.762l-1.704,1.021c-1.022,0.682-1.363,1.704-1.022,2.727l5.792,14.65l-21.806,8.518
		l-5.452-14.991c-0.341-1.022-1.022-1.363-2.044-1.363h-0.34l-1.704,0.341c-9.881,1.704-19.421,1.363-28.961-0.681l-1.704-0.341
		c-1.022-0.341-2.044,0.341-2.385,1.362l-6.133,14.311L200,534.242l6.474-14.651c0.341-1.021,0-2.044-0.682-2.726l-1.363-1.022
		c-7.836-5.792-14.651-12.606-19.761-21.124l-1.022-1.703c-0.681-1.022-1.704-1.363-2.726-1.022l-14.651,5.792l-9.54-21.124
		l14.992-5.792c1.022-0.341,1.704-1.363,1.363-2.386l-0.341-1.703c-1.704-9.54-1.363-19.421,1.022-28.961l0.34-1.703
		c0.341-1.022-0.34-2.045-1.363-2.386l-14.31-6.474l9.54-21.465l14.31,6.474c1.022,0.341,2.044,0,2.726-0.682l1.022-1.362
		c5.792-7.837,12.606-14.651,21.124-19.762l1.704-1.022c1.022-0.682,1.363-1.704,1.022-2.726l-5.792-14.65l21.806-8.518
		l5.451,14.991c0.341,1.022,1.363,1.704,2.385,1.363l1.704-0.341c9.88-1.704,19.42-1.363,28.96,0.681l1.704,0.341
		c1.022,0.341,2.044-0.341,2.385-1.363l6.474-14.31l21.465,9.54l-6.474,14.651c-0.341,1.022,0,2.044,0.682,2.726l1.363,1.022
		c7.836,5.792,14.65,12.606,19.762,21.125l1.021,1.703c0.682,1.022,1.704,1.363,2.727,1.022l14.65-5.792l8.177,21.806
		L324.021,438.16z"/>
	<path fill="#F05627" stroke="#F05627" stroke-width="0.5" stroke-miterlimit="10" d="M273.254,398.297
		c-31.005-13.97-67.462,0-81.431,31.005s0,67.461,31.005,81.431c8.177,3.748,16.695,5.451,25.213,5.451
		c7.496,0,14.991-1.362,21.806-4.088c15.332-5.793,27.598-17.377,34.412-32.368c6.814-14.991,7.155-31.687,1.362-47.019
		C299.83,417.377,288.245,405.11,273.254,398.297z M296.082,476.32L296.082,476.32c-5.792,12.947-16.013,22.828-29.301,27.598
		c-13.288,5.111-27.598,4.43-40.205-1.362C200,490.63,188.075,459.284,200,432.709c8.518-18.739,27.598-31.006,48.041-31.006
		c7.496,0,14.65,1.704,21.465,4.771c12.947,5.792,22.828,16.354,27.598,29.302C302.215,449.063,301.874,463.373,296.082,476.32z"/>
	<path fill="#F05627" stroke="#F05627" stroke-width="0.5" stroke-miterlimit="10" d="M438.842,318.569L438.842,318.569l-5.111-0.34
		c-0.681-4.43-2.044-8.518-4.088-12.607l3.747-3.407c1.363-1.363,2.386-3.066,2.386-4.77c0-2.044-0.341-3.748-1.704-5.111
		l-9.54-10.903c-1.362-1.363-3.066-2.385-4.77-2.385c-2.045-0.341-3.748,0.341-5.111,1.704l-4.088,3.407
		c-3.748-2.385-7.837-4.429-11.926-6.133l0.341-5.111c0.341-1.704-0.341-3.748-1.703-5.111c-1.363-1.363-3.066-2.385-4.771-2.726
		l-14.65-1.022c-4.089-0.341-7.155,2.726-7.496,6.474l-0.341,5.11c-4.429,0.682-8.518,2.044-12.606,4.089l-3.407-3.748
		c-1.362-1.363-3.066-2.385-4.77-2.385c-2.044,0-3.748,0.34-5.11,1.703l-10.903,9.541c-1.363,1.363-2.385,3.066-2.385,4.77
		c0,2.044,0.341,3.748,1.703,5.11l3.407,4.089c-2.385,3.748-4.429,7.836-6.133,11.925l-5.11-0.341
		c-4.089-0.34-7.496,2.726-7.837,6.474l-1.022,14.651c-0.34,3.748,2.727,7.155,6.474,7.496l5.111,0.341
		c0.682,4.429,2.044,8.518,4.089,12.606l-4.089,3.407c-1.363,1.363-2.385,3.066-2.385,4.77c0,2.044,0.34,3.748,1.703,5.111
		l9.54,10.903c1.363,1.363,3.066,2.385,4.771,2.385c2.044,0,3.747-0.341,5.11-1.704l4.089-3.407
		c3.747,2.385,7.495,4.429,11.925,6.133l-0.341,5.111c-0.341,1.704,0.341,3.748,1.703,5.11c1.363,1.363,3.066,2.385,4.771,2.726
		l14.65,1.022h0.341c3.748,0,6.814-2.726,7.155-6.474l0.341-5.111c4.43-0.681,8.518-2.044,12.606-4.088l3.407,3.748
		c1.362,1.363,3.066,2.385,4.77,2.385c2.045,0,3.748-0.341,5.111-1.704l10.902-9.54c3.066-2.385,3.407-7.155,0.682-10.221
		l-3.407-4.089c2.385-3.748,4.43-7.496,6.133-11.925l5.111,0.341c3.747,0.34,7.495-2.726,7.836-6.474l1.022-14.651
		C445.656,322.317,442.59,318.91,438.842,318.569z M435.435,338.331l-8.858-0.682c-1.022,0-2.045,0.682-2.386,1.704l-0.341,1.704
		c-1.703,5.452-4.088,10.562-7.836,15.333l-1.022,1.363c-0.681,0.681-0.681,2.044,0,2.726l5.792,6.474l-8.518,7.155l-5.792-6.474
		c-0.682-0.681-1.704-1.022-2.726-0.681l-1.704,1.022c-5.11,2.726-10.562,4.77-16.354,5.452l-1.703,0.34
		c-1.022,0-2.044,1.022-2.044,2.044l-0.682,8.518l-10.903-1.022l0.682-8.858c0-1.022-0.682-2.044-1.703-2.385l-1.704-0.341
		c-5.451-1.704-10.562-4.089-15.332-7.836l-1.363-1.022c-0.681-0.681-2.044-0.681-2.726,0l-6.474,5.792l-7.154-8.518l6.474-5.792
		c0.681-0.682,1.021-1.704,0.681-2.726l-1.021-1.703c-2.727-5.111-4.771-10.562-5.452-16.354v-1.704
		c0-1.022-1.021-2.044-2.044-2.044l-8.518-0.681l1.021-10.903l8.859,0.681c1.021,0,2.044-0.681,2.385-1.704l0.341-1.704
		c1.703-5.451,4.088-10.562,7.836-15.332l1.022-1.363c0.682-0.682,0.682-2.044,0-2.726l-5.792-6.474l8.518-7.155l5.792,6.474
		c0.682,0.682,1.704,1.022,2.726,0.341l1.704-1.022c5.11-2.726,10.562-4.77,16.354-5.451l1.703-0.341
		c1.022,0,2.045-1.022,2.045-2.044l0.681-8.518l10.903,1.022l-0.682,8.858c0,1.022,0.682,2.044,1.704,2.385l1.703,0.341
		c5.451,1.704,10.562,4.088,15.332,7.836l1.363,1.022c0.682,0.682,2.044,0.682,2.726,0l6.474-5.792l7.155,8.518l-6.814,5.792
		c-0.682,0.681-1.022,1.704-0.682,2.726l1.022,1.704c2.726,5.111,4.77,10.562,5.451,16.354l0.341,1.704
		c0,1.022,1.022,2.044,2.044,2.044l8.519,0.682L435.435,338.331z"/>
	<path fill="#F05627" stroke="#F05627" stroke-width="0.5" stroke-miterlimit="10" d="M382.964,295.741L382.964,295.741
		c-18.058-1.363-33.73,11.925-35.094,29.983c-1.362,17.717,11.926,33.731,29.983,35.094c1.022,0,1.703,0,2.726,0
		c16.695,0,31.005-13.288,32.368-29.983C414.31,313.118,400.682,297.445,382.964,295.741z M405.451,330.153
		c-1.021,13.969-13.288,24.191-27.257,23.168c-13.97-1.022-24.191-13.288-23.169-27.257c1.022-12.947,12.266-23.169,25.213-23.169
		c0.682,0,1.363,0,2.045,0C396.252,304.259,406.474,316.525,405.451,330.153z"/>
</g>
</svg>
