<?xml version="1.0" encoding="utf-8"?>
<!-- Generator: Adobe Illustrator 21.0.0, SVG Export Plug-In . SVG Version: 6.00 Build 0)  -->
<svg version="1.1" id="Layer_1" xmlns="http://www.w3.org/2000/svg" xmlns:xlink="http://www.w3.org/1999/xlink" x="0px" y="0px"
	 viewBox="0 0 190.5 58.2" style="enable-background:new 0 0 190.5 58.2;" xml:space="preserve">
<style type="text/css">
	.st0{fill:#404041;}
	.st1{fill:#808080;}
	.st2{fill:none;stroke:#FD4D00;stroke-width:2.99;stroke-miterlimit:10;}
	.st3{fill:#FD4D00;}
	.st4{fill:#B3B3B3;}
	.st5{fill:#FFFFFF;}
	.st6{enable-background:new    ;}
	.st7{fill:#FF4B00;}
	.st8{fill:#4D4D4D;}
</style>
<title>Asset 1</title>
<g id="Layer_2">
	<g id="Layer_1-2">
		<rect x="5.3" y="5.3" class="st0" width="47.6" height="47.6"/>
		<path class="st1" d="M51.3,6.9v44.5H6.9V6.9H51.3 M54.4,3.8H3.8v50.6h50.6V3.8z"/>
		<rect x="1.5" y="1.5" class="st2" width="55.2" height="55.2"/>
		<polygon class="st1" points="23,11.6 12.9,21.7 6.8,15.6 6.8,6.9 18,6.9 		"/>
		<polygon class="st3" points="30.3,6.9 37.8,6.9 43.9,12.9 24.1,32.8 14.2,22.9 		"/>
		<polygon class="st4" points="6.8,17.7 22.8,34 12.9,43.9 6.9,37.8 		"/>
		<polygon class="st3" points="14.2,45.3 20.4,51.3 28.1,51.3 43.9,35.3 34,25.4 		"/>
		<polygon class="st1" points="35.5,46.5 40.3,51.3 51.4,51.3 51.4,42.7 45.4,36.5 		"/>
		<polygon class="st4" points="45.3,14.2 51.3,20.3 51.4,40.1 35.4,24.2 		"/>
		<path class="st5" d="M51.3,6.9v44.5H6.9V6.9H51.3 M52.1,6.1h-46v46h46L52.1,6.1L52.1,6.1z"/>
		<g class="st6">
			<path class="st7" d="M72.1,16.1c0,0.6,0.3,1,2.2,1.7c2.6,0.9,5.2,2.5,5.2,5.5c0,2.6-2.1,5-5.3,5c-2.6,0-4.6-1.1-6.2-3.6l2.6-2
				c0.7,1.1,2.2,2.2,3.6,2.1c0.9,0,1.6-0.6,1.6-1.3c0-0.7-1.3-1.6-3.1-2.3c-2.4-0.9-4.2-2.3-4.2-5c0-2.1,1.8-4.5,4.9-4.5
				c1.7,0,3.6,0.1,5.8,2.7l-2.8,2c-1.2-1.2-2.2-1.3-3.1-1.3C72.8,15.1,72.1,15.6,72.1,16.1z"/>
			<path class="st7" d="M91,11.8h3.6v10.3c0,4.1-3.5,6.1-6.5,6.1c-3,0-6.5-2-6.5-6.1V11.8h3.6v9.7c0,1.8,1.2,3,2.9,3
				c1.6,0,2.9-1.1,2.9-3V11.8z"/>
			<path class="st7" d="M97.3,11.8h5.6c3.5,0,6.2,2.6,6.2,6.2c0,2.2-1,4.1-2.7,5.2c0.3,0.6,0.9,1.5,2.9,4.7h-4l-2.2-3.6H103h-2.1V28
				h-3.6V11.8z M102.9,20.9c1.5,0,2.8-1.2,2.8-2.8c0-1.6-1.2-2.8-2.8-2.8h-2v5.6H102.9z"/>
		</g>
		<g class="st6">
			<path class="st7" d="M122.2,15.3h-7.4v3.2h6.1V22h-6.1V28h-3.6V11.8h11V15.3z"/>
		</g>
		<g class="st6">
			<path class="st7" d="M132,24.4h-4.8V28h-3.6V17.7c0-3.9,2.8-6.1,5.9-6.1c3.1,0,6,2.2,6,6.1V28H132V24.4z M132,20.9v-3
				c0-1.8-1.1-2.7-2.4-2.7c-1.5,0-2.4,1-2.4,2.7v3H132z"/>
			<path class="st7" d="M145.9,24.6c1.8,0,3.1-1.1,3.7-2l2.8,2.2c-1.2,1.9-3.7,3.4-6.5,3.4c-4.6,0-8.3-3.8-8.3-8.4
				c0-4.6,3.6-8.3,8.2-8.3c2.7,0,5,1.2,6.3,3.1l-2.9,2.1c-0.7-0.9-2-1.6-3.4-1.6c-2.4,0-4.6,2.2-4.6,4.7
				C141.2,22.4,143.5,24.6,145.9,24.6z"/>
			<path class="st7" d="M165.3,15.3h-7.4v3.2h6.1V22h-6.1v2.4h7.5V28h-11.1V11.8h11V15.3z"/>
			<path class="st7" d="M171.2,16.1c0,0.6,0.3,1,2.2,1.7c2.6,0.9,5.2,2.5,5.2,5.5c0,2.6-2.1,5-5.3,5c-2.6,0-4.6-1.1-6.2-3.6l2.6-2
				c0.7,1.1,2.2,2.2,3.6,2.1c0.9,0,1.6-0.6,1.6-1.3c0-0.7-1.3-1.6-3.1-2.3c-2.4-0.9-4.2-2.3-4.2-5c0-2.1,1.8-4.5,4.9-4.5
				c1.7,0,3.6,0.1,5.8,2.7l-2.8,2c-1.2-1.2-2.2-1.3-3.1-1.3C171.8,15.1,171.2,15.6,171.2,16.1z"/>
		</g>
		<g class="st6">
			<path class="st8" d="M75.3,48.2c-4,0-7.1-3.2-7.1-7.2c0-4,3.1-7.2,7.1-7.2c2.3,0,4.2,1,5.3,2.6l-1.3,1c-0.8-1.2-2.3-2-4-2
				c-3.1,0-5.4,2.5-5.4,5.6c0,3,2.3,5.5,5.4,5.5c1.5,0,2.8-0.3,3.9-1.1v-3.3h-3.7v-1.6h5.3v5.7C79.3,47.6,77.3,48.2,75.3,48.2z"/>
			<path class="st8" d="M91,48l-2.4-3.8h-3.2V48h-1.6V34.1h4.4c2.9,0,5.2,2,5.2,5c0,1.9-1,3.8-3,4.7l2.6,4.1H91z M88.1,42.5
				c1.9,0,3.5-1.3,3.5-3.4c0-2-1.6-3.4-3.5-3.4h-2.7v6.8H88.1z"/>
			<path class="st8" d="M102.1,33.8c4,0,7.1,3.2,7.1,7.2c0,4-3.1,7.2-7.1,7.2c-4,0-7.1-3.2-7.1-7.2C95,37.1,98.1,33.8,102.1,33.8z
				 M102.1,46.5c3.1,0,5.5-2.5,5.5-5.5c0-3.1-2.4-5.5-5.5-5.5c-3.1,0-5.4,2.5-5.4,5.5C96.6,44,99,46.5,102.1,46.5z"/>
			<path class="st8" d="M120.7,34.1h1.7v9c0,3.4-2.9,5.1-5.4,5.1c-2.6,0-5.4-1.7-5.4-5.1v-9h1.7v8.8c0,2.3,1.7,3.6,3.7,3.6
				c1.9,0,3.7-1.3,3.7-3.6V34.1z"/>
			<path class="st8" d="M125.6,34.1h4.4c2.9,0,5.2,2.1,5.2,5.1c0,2.9-2.3,4.9-5.2,4.9h-2.7V48h-1.6V34.1z M130,42.5
				c1.9,0,3.5-1.3,3.5-3.3c0-2-1.6-3.5-3.5-3.5h-2.7v6.8H130z"/>
		</g>
	</g>
</g>
</svg>
