<?xml version="1.0" encoding="utf-8"?>
<!-- Generator: Adobe Illustrator 21.0.0, SVG Export Plug-In . SVG Version: 6.00 Build 0)  -->
<svg version="1.1" id="_x2014_ÎÓÈ_x5F_1" xmlns="http://www.w3.org/2000/svg" xmlns:xlink="http://www.w3.org/1999/xlink"
	 x="0px" y="0px" viewBox="0 0 176.1 150" style="enable-background:new 0 0 176.1 150;" xml:space="preserve">
<style type="text/css">
	.st0{fill:none;stroke:#FF5200;stroke-width:2;stroke-miterlimit:10;}
	.st1{fill:none;stroke:#FF5200;stroke-width:1.6173;stroke-miterlimit:10;}
</style>
<polygon class="st0" points="112.1,118.2 58.7,118.2 58.7,110.3 60.7,107.8 60.7,52.4 58.8,50.8 58.8,43.4 85.4,35.2 111.5,43.4 
	111.5,50.8 110.1,52.4 110.1,108.2 112.1,110.3 "/>
<line class="st0" x1="85.4" y1="35.2" x2="85.4" y2="118.2"/>
<line class="st0" x1="70.4" y1="50.5" x2="70.4" y2="61.1"/>
<line class="st0" x1="70.4" y1="75.5" x2="70.4" y2="86.1"/>
<line class="st0" x1="70.4" y1="96.5" x2="70.4" y2="107.1"/>
<line class="st0" x1="100.4" y1="50.5" x2="100.4" y2="61.1"/>
<line class="st0" x1="100.4" y1="75.5" x2="100.4" y2="86.1"/>
<line class="st0" x1="100.4" y1="96.5" x2="100.4" y2="107.1"/>
<polyline class="st0" points="60.7,52.4 85.4,45.7 110.1,52.4 "/>
<polyline class="st0" points="60.7,64.5 85.4,57.8 110.1,64.5 "/>
<polyline class="st0" points="60.7,77.6 85.4,70.9 110.1,77.6 "/>
<polyline class="st1" points="60.7,87.7 85.4,83.3 110.1,87.7 "/>
<polyline class="st0" points="60.7,98 85.4,95.5 110.1,98 "/>
<polyline class="st0" points="110.1,108.2 85.4,107.5 60.7,108.2 "/>
</svg>
