<?xml version="1.0" encoding="utf-8"?>
<!-- Generator: Adobe Illustrator 16.0.0, SVG Export Plug-In . SVG Version: 6.00 Build 0)  -->
<!DOCTYPE svg PUBLIC "-//W3C//DTD SVG 1.1//EN" "http://www.w3.org/Graphics/SVG/1.1/DTD/svg11.dtd">
<svg version="1.1" id="_x2014_ÎÓÈ_x5F_1" xmlns="http://www.w3.org/2000/svg" xmlns:xlink="http://www.w3.org/1999/xlink"
	 x="0px" y="0px" width="192px" height="291px" viewBox="194.5 260.5 192 291" enable-background="new 194.5 260.5 192 291"
	 xml:space="preserve">
<polygon fill="none" stroke="#FF5200" stroke-width="2" stroke-miterlimit="10" points="381.942,547.189 200,547.189 200,520.272 
	206.814,511.755 206.814,322.998 200.341,317.547 200.341,292.334 290.971,264.396 379.897,292.334 379.897,317.547 
	375.128,322.998 375.128,513.117 381.942,520.272 "/>
<line fill="none" stroke="#FF5200" stroke-width="2" stroke-miterlimit="10" x1="290.971" y1="264.396" x2="290.971" y2="547.189"/>
<line fill="none" stroke="#FF5200" stroke-width="2" stroke-miterlimit="10" x1="239.864" y1="316.525" x2="239.864" y2="352.641"/>
<line fill="none" stroke="#FF5200" stroke-width="2" stroke-miterlimit="10" x1="239.864" y1="401.703" x2="239.864" y2="437.819"/>
<line fill="none" stroke="#FF5200" stroke-width="2" stroke-miterlimit="10" x1="239.864" y1="473.254" x2="239.864" y2="509.37"/>
<line fill="none" stroke="#FF5200" stroke-width="2" stroke-miterlimit="10" x1="342.078" y1="316.525" x2="342.078" y2="352.641"/>
<line fill="none" stroke="#FF5200" stroke-width="2" stroke-miterlimit="10" x1="342.078" y1="401.703" x2="342.078" y2="437.819"/>
<line fill="none" stroke="#FF5200" stroke-width="2" stroke-miterlimit="10" x1="342.078" y1="473.254" x2="342.078" y2="509.37"/>
<polyline fill="none" stroke="#FF5200" stroke-width="2" stroke-miterlimit="10" points="206.814,322.998 290.971,300.17 
	375.128,322.998 "/>
<polyline fill="none" stroke="#FF5200" stroke-width="2" stroke-miterlimit="10" points="206.814,364.225 290.971,341.397 
	375.128,364.225 "/>
<polyline fill="none" stroke="#FF5200" stroke-width="2" stroke-miterlimit="10" points="206.814,408.858 290.971,386.031 
	375.128,408.858 "/>
<polyline fill="none" stroke="#FF5200" stroke-width="1.6173" stroke-miterlimit="10" points="206.814,443.271 290.971,428.279 
	375.128,443.271 "/>
<polyline fill="none" stroke="#FF5200" stroke-width="2" stroke-miterlimit="10" points="206.814,478.364 290.971,469.847 
	375.128,478.364 "/>
<polyline fill="none" stroke="#FF5200" stroke-width="2" stroke-miterlimit="10" points="375.128,513.117 290.971,510.732 
	206.814,513.117 "/>
</svg>
