<?xml version="1.0" encoding="utf-8"?>
<!-- Generator: Adobe Illustrator 16.0.0, SVG Export Plug-In . SVG Version: 6.00 Build 0)  -->
<!DOCTYPE svg PUBLIC "-//W3C//DTD SVG 1.1//EN" "http://www.w3.org/Graphics/SVG/1.1/DTD/svg11.dtd">
<svg version="1.1" id="Layer_1" xmlns="http://www.w3.org/2000/svg" xmlns:xlink="http://www.w3.org/1999/xlink" x="0px" y="0px"
	 width="600px" height="604.5px" viewBox="0 95.5 600 604.5" enable-background="new 0 95.5 600 604.5" xml:space="preserve">
<g id="Flat_copy">
	<g>
		<path fill="#333333" d="M300,100C134.306,100,0,234.306,0,400c0,165.675,134.306,300,300,300c165.693,0,300-134.325,300-300
			C600,234.306,465.693,100,300,100z"/>
	</g>
	<path fill="#FFFFFF" d="M341.737,266.612c-29.812,10.856-48.656,38.832-46.519,69.45l0.712,11.812l-11.925-1.444
		c-43.406-5.55-81.337-24.356-113.55-55.95l-15.75-15.675l-4.031,11.569c-8.587,25.8-3.094,53.062,14.794,71.4
		c9.544,10.125,7.388,11.569-9.056,5.55c-5.719-1.932-10.744-3.375-11.212-2.644c-1.669,1.688,4.05,23.625,8.587,32.325
		c6.206,12.075,18.844,23.869,32.681,30.881l11.7,5.55l-13.856,0.206c-13.35,0-13.837,0.244-12.394,5.325
		c4.762,15.675,23.606,32.325,44.606,39.562l14.794,5.062l-12.881,7.725C199.35,498.438,176.925,504.7,154.5,505.15
		c-10.744,0.243-19.575,1.199-19.575,1.931c0,2.4,29.119,15.9,46.031,21.226c50.812,15.675,111.169,8.906,156.487-17.851
		c32.213-19.05,64.406-56.925,79.444-93.6c8.118-19.519,16.219-55.219,16.219-72.338c0-11.1,0.712-12.543,14.062-25.8
		c7.875-7.725,15.263-16.163,16.706-18.562c2.4-4.594,2.138-4.594-10.013-0.487c-20.269,7.237-23.138,6.281-13.106-4.575
		c7.388-7.725,16.219-21.712,16.219-25.8c0-0.713-3.581,0.487-7.631,2.644c-4.294,2.419-13.838,6.038-21,8.194l-12.881,4.106
		l-11.682-7.987c-6.45-4.331-15.487-9.169-20.269-10.612C371.325,262.263,352.725,262.75,341.737,266.612z"/>
</g>
</svg>
