<?xml version="1.0" encoding="utf-8"?>
<!-- Generator: Adobe Illustrator 16.0.0, SVG Export Plug-In . SVG Version: 6.00 Build 0)  -->
<!DOCTYPE svg PUBLIC "-//W3C//DTD SVG 1.1//EN" "http://www.w3.org/Graphics/SVG/1.1/DTD/svg11.dtd">
<svg version="1.1" id="_x2014_ÎÓÈ_x5F_1" xmlns="http://www.w3.org/2000/svg" xmlns:xlink="http://www.w3.org/1999/xlink"
	 x="0px" y="0px" width="303.681px" height="253.251px" viewBox="152.761 279.816 303.681 253.251"
	 enable-background="new 152.761 279.816 303.681 253.251" xml:space="preserve">
<path fill="#F05627" d="M452.024,435.89c2.577,0,4.417-2.209,4.417-4.417v-48.958c0-2.577-2.208-4.417-4.417-4.417h-98.282h-44.908
	v-44.172c0-2.577-2.208-4.417-4.417-4.417h-44.54v-45.276c0-2.577-2.208-4.417-4.417-4.417h-98.282
	c-2.577,0-4.417,2.208-4.417,4.417v48.957c0,2.577,2.208,4.417,4.417,4.417h44.54v39.754h-44.54c-2.577,0-4.417,2.208-4.417,4.417
	v48.957c0,2.576,2.208,4.417,4.417,4.417h44.54v40.123h-44.54c-2.577,0-4.417,2.208-4.417,4.417v48.957
	c0,2.576,2.208,4.417,4.417,4.417h98.282h98.282h98.282c2.577,0,4.417-2.209,4.417-4.417V480.43c0-2.577-2.208-4.417-4.417-4.417
	h-44.54V435.89H452.024z M299.632,475.645h-89.08V435.89h89.08V475.645z M308.834,435.89h89.08v39.755h-89.08V435.89z
	 M447.239,426.688h-89.08v-39.755h89.08V426.688z M348.957,426.688h-89.08v-39.755h44.54h44.54V426.688L348.957,426.688z
	 M161.595,289.019h89.08v39.754h-89.08V289.019z M210.552,337.976h89.08v39.754H255.46h-44.908V337.976z M161.595,386.933h44.54
	h44.54v39.755h-89.08V386.933z M161.595,485.215h89.08v39.755h-89.08V485.215z M259.877,485.215h89.08v39.755h-89.08V485.215z
	 M447.239,524.602h-89.08v-39.387h89.08V524.602z"/>
</svg>
