<?xml version="1.0" encoding="utf-8"?>
<!-- Generator: Adobe Illustrator 21.0.0, SVG Export Plug-In . SVG Version: 6.00 Build 0)  -->
<svg version="1.1" id="_x2014_ÎÓÈ_x5F_1" xmlns="http://www.w3.org/2000/svg" xmlns:xlink="http://www.w3.org/1999/xlink"
	 x="0px" y="0px" viewBox="0 0 163 141.3" style="enable-background:new 0 0 163 141.3;" xml:space="preserve">
<style type="text/css">
	.st0{fill:#F05627;}
</style>
<path class="st0" d="M122.8,80.4c0.7,0,1.2-0.6,1.2-1.2V65.9c0-0.7-0.6-1.2-1.2-1.2H96.1H83.9v-12c0-0.7-0.6-1.2-1.2-1.2H70.6V39.2
	c0-0.7-0.6-1.2-1.2-1.2H42.7c-0.7,0-1.2,0.6-1.2,1.2v13.3c0,0.7,0.6,1.2,1.2,1.2h12.1v10.8H42.7c-0.7,0-1.2,0.6-1.2,1.2v13.3
	c0,0.7,0.6,1.2,1.2,1.2h12.1v10.9H42.7c-0.7,0-1.2,0.6-1.2,1.2v13.3c0,0.7,0.6,1.2,1.2,1.2h26.7h26.7h26.7c0.7,0,1.2-0.6,1.2-1.2
	V92.5c0-0.7-0.6-1.2-1.2-1.2h-12.1V80.4H122.8z M81.4,91.2H57.2V80.4h24.2V91.2z M83.9,80.4h24.2v10.8H83.9V80.4z M121.5,77.9H97.3
	V67.1h24.2V77.9z M94.8,77.9H70.6V67.1h12.1h12.1V77.9z M43.9,40.5h24.2v10.8H43.9V40.5z M57.2,53.8h24.2v10.8H69.4H57.2V53.8z
	 M43.9,67.1H56h12.1v10.8H43.9V67.1z M43.9,93.8h24.2v10.8H43.9V93.8z M70.6,93.8h24.2v10.8H70.6V93.8z M121.5,104.5H97.3V93.8h24.2
	V104.5z"/>
</svg>
