<?xml version="1.0" encoding="utf-8"?>
<!-- Generator: Adobe Illustrator 21.0.0, SVG Export Plug-In . SVG Version: 6.00 Build 0)  -->
<svg version="1.1" id="_x2014_ÎÓÈ_x5F_1" xmlns="http://www.w3.org/2000/svg" xmlns:xlink="http://www.w3.org/1999/xlink"
	 x="0px" y="0px" viewBox="0 0 176.1 150" style="enable-background:new 0 0 176.1 150;" xml:space="preserve">
<style type="text/css">
	.st0{fill:none;stroke:#FF5200;stroke-width:3;stroke-linecap:round;stroke-miterlimit:10;}
</style>
<g>
	<g>
		<path class="st0" d="M115.7,63.1c0-7.6-6.2-13.8-13.8-13.8S88,55.4,88,63.1v23.2"/>
		<path class="st0" d="M106.4,74.6c0-5.1-4.1-9.2-9.2-9.2c-5.1,0-9.2,4.1-9.2,9.2"/>
	</g>
	<line class="st0" x1="88" y1="48" x2="88" y2="90.8"/>
	<g>
		<path class="st0" d="M60.4,63.1c0-7.6,6.2-13.8,13.8-13.8S88,55.4,88,63.1v23.2"/>
		<path class="st0" d="M69.7,74.6c0-5.1,4.1-9.2,9.2-9.2c5.1,0,9.2,4.1,9.2,9.2"/>
	</g>
</g>
<g>
	<line class="st0" x1="60.4" y1="90.8" x2="115.7" y2="90.8"/>
	<rect x="63.1" y="90.8" class="st0" width="49.9" height="20.8"/>
</g>
</svg>
