<?xml version="1.0" encoding="utf-8"?>
<!-- Generator: Adobe Illustrator 16.0.0, SVG Export Plug-In . SVG Version: 6.00 Build 0)  -->
<!DOCTYPE svg PUBLIC "-//W3C//DTD SVG 1.1//EN" "http://www.w3.org/Graphics/SVG/1.1/DTD/svg11.dtd">
<svg version="1.1" id="_x2014_ÎÓÈ_x5F_1" xmlns="http://www.w3.org/2000/svg" xmlns:xlink="http://www.w3.org/1999/xlink"
	 x="0px" y="0px" width="199.75px" height="221.493px" viewBox="200.5 308.007 199.75 221.493"
	 enable-background="new 200.5 308.007 199.75 221.493" xml:space="preserve">
<g>
	<g>
		<path fill="none" stroke="#FF5200" stroke-width="3" stroke-linecap="round" stroke-miterlimit="10" d="M394.208,359.455
			c0-25.895-21.125-47.019-47.019-47.019c-25.895,0-47.36,20.784-47.36,47.019v79.046"/>
		<path fill="none" stroke="#FF5200" stroke-width="3" stroke-linecap="round" stroke-miterlimit="10" d="M362.521,398.637
			c0-17.376-13.97-31.345-31.346-31.345c-17.377,0-31.346,13.969-31.346,31.345"/>
	</g>
	
		<line fill="none" stroke="#FF5200" stroke-width="3" stroke-linecap="round" stroke-miterlimit="10" x1="299.83" y1="308.007" x2="299.83" y2="453.833"/>
	<g>
		<path fill="none" stroke="#FF5200" stroke-width="3" stroke-linecap="round" stroke-miterlimit="10" d="M205.792,359.455
			c0-25.895,21.125-47.019,47.019-47.019c25.894,0,47.019,20.784,47.019,47.019v79.046"/>
		<path fill="none" stroke="#FF5200" stroke-width="3" stroke-linecap="round" stroke-miterlimit="10" d="M237.479,398.637
			c0-17.376,13.97-31.345,31.346-31.345s31.346,13.969,31.346,31.345"/>
	</g>
</g>
<g>
	
		<line fill="none" stroke="#FF5200" stroke-width="3" stroke-linecap="round" stroke-miterlimit="10" x1="205.792" y1="453.833" x2="394.208" y2="453.833"/>
	
		<rect x="214.991" y="453.833" fill="none" stroke="#FF5200" stroke-width="3" stroke-linecap="round" stroke-miterlimit="10" width="170.018" height="70.869"/>
</g>
</svg>
